<?xml version="1.0" standalone="no"?>
<!DOCTYPE svg PUBLIC "-//W3C//DTD SVG 1.1//EN" "http://www.w3.org/Graphics/SVG/1.1/DTD/svg11.dtd" >
<svg xmlns="http://www.w3.org/2000/svg" xmlns:xlink="http://www.w3.org/1999/xlink" version="1.1">
<metadata>
Created by FontForge 20161003 at Mon Oct  2 19:32:04 2017
 By www-data
Copyright (c) 2003 - 2012 Linotype GmbH, www.linotype.com. All rights reserved. This font software may not be reproduced, modified, disclosed or transferred without the express written approval of Linotype GmbH. Avenir is a trademark of Linotype GmbH registered in the U.S. Patent and Trademark Office and may be registered in certain other jurisdictions. This typeface is original artwork of Adrian Frutiger and Akira Kobayashi. The design may be protected in certain jurisdictions.
</metadata>
<defs>
<font id="AvenirNextCyrBold" horiz-adv-x="300" >
  <font-face 
    font-family="AvenirNextCyrBold"
    font-weight="750"
    font-stretch="normal"
    units-per-em="1000"
    panose-1="2 11 8 3 2 2 2 2 2 4"
    ascent="756"
    descent="-244"
    x-height="498"
    cap-height="708"
    bbox="-194 -250 1210 963"
    underline-thickness="50"
    underline-position="-150"
    unicode-range="U+000D-FB04"
  />
<missing-glyph horiz-adv-x="512" 
d="M278 117h-56v67h56v-67zM271 234h-46l-2 17q0 56 13 81q15 28 46 59q31 29 40.5 46t9.5 37q0 36 -22.5 60.5t-53.5 24.5q-71 0 -82 -95l-50 8q7 69 43 103t92 34q54 0 89 -36t35 -95q0 -34 -13 -60t-50 -60q-37 -33 -43 -52q-6 -20 -6 -72zM50 50h412v617h-412v-617z
M0 718h512v-718h-512v718z" />
    <glyph glyph-name="napostrophe" unicode="&#x22;n" horiz-adv-x="706" 
d="M646 0h-165v272q0 105 -74 105q-42 0 -65 -31t-23 -76v-270h-165v498h159v-69h2q18 35 58.5 59t90.5 24q93 0 137.5 -59.5t44.5 -144.5v-308zM203 708l-86 -195h-126l67 195h145z" />
    <glyph glyph-name="f_f" unicode="ff" horiz-adv-x="698" 
d="M718 765l-11 -130q-21 7 -45 7q-73 0 -73 -94v-50h111v-123h-111v-375h-164v375h-170v-375h-164v375h-91v123h91v48q0 229 214 229q48 0 79 -10l-11 -130q-21 7 -45 7q-73 0 -73 -94v-50h170v48q0 229 214 229q48 0 79 -10z" />
    <glyph glyph-name="fi" unicode="fi" horiz-adv-x="665" 
d="M611 657q0 -38 -27.5 -64t-66.5 -26t-66.5 26.5t-27.5 63.5q0 36 27.5 63t66.5 27q38 0 66 -26.5t28 -63.5zM599 0h-165v498h165v-498zM384 765l-11 -130q-21 7 -45 7q-73 0 -73 -94v-50h111v-123h-111v-375h-164v375h-91v123h91v48q0 229 214 229q48 0 79 -10z" />
    <glyph glyph-name="fl" unicode="fl" horiz-adv-x="666" 
d="M600 0h-166v756h166v-756zM384 765l-11 -130q-21 7 -45 7q-73 0 -73 -94v-50h111v-123h-111v-375h-164v375h-91v123h91v48q0 229 214 229q48 0 79 -10z" />
    <glyph glyph-name="f_f_i" unicode="ffi" horiz-adv-x="999" 
d="M718 765l-11 -130q-21 7 -45 7q-73 0 -73 -94v-50h111v-123h-111v-375h-164v375h-170v-375h-164v375h-91v123h91v48q0 229 214 229q48 0 79 -10l-11 -130q-21 7 -45 7q-73 0 -73 -94v-50h170v48q0 229 214 229q48 0 79 -10zM945 657q0 -38 -27.5 -64t-66.5 -26
t-66.5 26.5t-27.5 63.5q0 36 27.5 63t66.5 27t66.5 -26.5t27.5 -63.5zM933 0h-164v498h164v-498z" />
    <glyph glyph-name="f_f_l" unicode="ffl" horiz-adv-x="1000" 
d="M718 765l-11 -130q-21 7 -45 7q-73 0 -73 -94v-50h111v-123h-111v-375h-164v375h-170v-375h-164v375h-91v123h91v48q0 229 214 229q48 0 79 -10l-11 -130q-21 7 -45 7q-73 0 -73 -94v-50h170v48q0 229 214 229q48 0 79 -10zM934 0h-166v756h166v-756z" />
    <glyph glyph-name=".notdef" horiz-adv-x="512" 
d="M278 117h-56v67h56v-67zM271 234h-46l-2 17q0 56 13 81q15 28 46 59q31 29 40.5 46t9.5 37q0 36 -22.5 60.5t-53.5 24.5q-71 0 -82 -95l-50 8q7 69 43 103t92 34q54 0 89 -36t35 -95q0 -34 -13 -60t-50 -60q-37 -33 -43 -52q-6 -20 -6 -72zM50 50h412v617h-412v-617z
M0 718h512v-718h-512v718z" />
    <glyph glyph-name=".null" horiz-adv-x="500" 
 />
    <glyph glyph-name=".null" horiz-adv-x="500" 
 />
    <glyph glyph-name="nonmarkingreturn" horiz-adv-x="333" 
 />
    <glyph glyph-name="CR" unicode="&#xd;" horiz-adv-x="500" 
 />
    <glyph glyph-name="space" unicode=" " horiz-adv-x="250" 
 />
    <glyph glyph-name="exclam" unicode="!" horiz-adv-x="357" 
d="M262 237h-168v471h168v-471zM276 85q0 -40 -28.5 -67.5t-69.5 -27.5q-39 0 -68 27.5t-29 66.5t28.5 67t68.5 28q41 0 69.5 -27.5t28.5 -66.5z" />
    <glyph glyph-name="quotedbl" unicode="&#x22;" horiz-adv-x="498" 
d="M411 437h-130v271h130v-271zM217 437h-131v271h131v-271z" />
    <glyph glyph-name="numbersign" unicode="#" horiz-adv-x="603" 
d="M557 404h-99l-14 -100h85v-104h-98l-30 -200h-110l29 200h-79l-29 -200h-110l29 200h-85v104h99l15 100h-85v104h98l29 200h111l-29 -200h78l29 200h110l-28 -200h84v-104zM348 404h-79l-13 -100h78z" />
    <glyph glyph-name="dollar" unicode="$" horiz-adv-x="646" 
d="M360 786v-68q134 -4 224 -76q-49 -56 -97 -109q-24 24 -59.5 38.5t-67.5 15.5v-160q49 -15 80.5 -28t69.5 -38t57.5 -63t19.5 -89q0 -103 -67.5 -159.5t-163.5 -59.5v-73h-74v73q-68 2 -133.5 25.5t-113.5 66.5q71 74 105 110q27 -29 68 -48.5t74 -20.5v175
q-50 13 -84 27.5t-67 38t-50 59.5t-17 84q0 92 68.5 149t154.5 61v69h73zM287 444v145q-29 -3 -49.5 -21.5t-20.5 -49.5q0 -56 70 -74zM356 280v-158q34 1 53.5 22t19.5 56q0 57 -73 80z" />
    <glyph glyph-name="percent" unicode="%" horiz-adv-x="911" 
d="M889 177q0 -79 -55.5 -134t-134.5 -55t-134.5 55t-55.5 134t55.5 134t134.5 55t134.5 -55t55.5 -134zM777 177q0 32 -23 55t-55 23t-55 -23t-23 -55t23 -54.5t55 -22.5t55 22.5t23 54.5zM409 531q0 -78 -55.5 -133.5t-134.5 -55.5t-134.5 55.5t-55.5 133.5q0 79 55.5 134
t134.5 55t134.5 -55t55.5 -134zM297 531q0 32 -23 55t-55 23t-55 -23t-23 -55t23 -54.5t55 -22.5t55 22.5t23 54.5zM713 695l-417 -729l-89 44l413 730z" />
    <glyph glyph-name="ampersand" unicode="&#x26;" horiz-adv-x="781" 
d="M780 0h-207l-67 69q-78 -83 -207 -83q-105 0 -179.5 54.5t-74.5 156.5q0 131 148 196q-73 71 -73 154q0 89 66 134.5t155 45.5t152.5 -46t63.5 -134q0 -114 -142 -185l89 -91l71 109h182l-153 -205zM410 542q0 28 -18.5 46.5t-48.5 18.5q-29 0 -48.5 -18.5t-19.5 -46.5
q0 -48 53 -92q82 33 82 92zM409 169l-125 130q-75 -30 -75 -95q0 -40 29 -64.5t67 -24.5q64 0 104 54z" />
    <glyph glyph-name="quotesingle" unicode="'" horiz-adv-x="303" 
d="M216 437h-130v271h130v-271z" />
    <glyph glyph-name="parenleft" unicode="(" horiz-adv-x="342" 
d="M288 -111l-112 -55q-147 203 -147 454t147 454l112 -55q-130 -178 -130 -399t130 -399z" />
    <glyph glyph-name="parenright" unicode=")" horiz-adv-x="342" 
d="M313 288q0 -251 -147 -454l-112 55q130 178 130 399t-130 399l112 55q147 -203 147 -454z" />
    <glyph glyph-name="asterisk" unicode="*" horiz-adv-x="489" 
d="M461 518l-128 -40l81 -107l-90 -63l-81 109l-79 -105l-88 63l81 104l-129 43l35 100l127 -44v130h110v-130l127 40z" />
    <glyph glyph-name="plus" unicode="+" horiz-adv-x="666" 
d="M611 240h-212v-209h-130v209h-213v126h212v209h130v-209h213v-126z" />
    <glyph glyph-name="comma" unicode="," 
d="M252 160l-97 -284h-135l75 284h157z" />
    <glyph glyph-name="hyphen" unicode="-" horiz-adv-x="326" 
d="M290 197h-254v130h254v-130z" />
    <glyph glyph-name="period" unicode="." 
d="M251 88q0 -41 -29.5 -69.5t-70.5 -28.5q-42 0 -72 28t-30 69t30 70t72 29q41 0 70.5 -28.5t29.5 -69.5z" />
    <glyph glyph-name="slash" unicode="/" horiz-adv-x="415" 
d="M415 723l-309 -775l-113 37l309 777z" />
    <glyph glyph-name="zero" unicode="0" horiz-adv-x="646" 
d="M600 356q0 -78 -15.5 -144t-47 -118.5t-86 -82.5t-127.5 -30q-96 0 -160.5 53t-91 134.5t-26.5 187.5q0 78 15.5 143t47.5 117t87 81.5t128 29.5t127.5 -29.5t86 -81.5t47 -117t15.5 -143zM428 356q0 39 -4 74.5t-14.5 72.5t-32.5 59.5t-53 22.5t-53.5 -22.5t-33 -59.5
t-15 -72.5t-4.5 -74.5t4.5 -75t15 -73.5t32.5 -60t54 -22.5q31 0 53 22.5t32.5 60t14.5 73t4 75.5z" />
    <glyph glyph-name="one" unicode="1" horiz-adv-x="646" 
d="M451 0h-168v520l-132 -102l-87 119l233 171h154v-708z" />
    <glyph glyph-name="two" unicode="2" horiz-adv-x="646" 
d="M580 0h-512v140l276 250q58 55 58 109q0 38 -24 61.5t-64 23.5q-41 0 -68 -29.5t-32 -77.5l-161 22q12 105 88 166.5t182 61.5t181 -56t75 -161q0 -68 -31.5 -116t-92.5 -102l-164 -146h289v-146z" />
    <glyph glyph-name="three" unicode="3" horiz-adv-x="646" 
d="M583 206q0 -74 -40.5 -126.5t-99.5 -75.5t-127 -23q-103 0 -180 47t-104 141l156 41q10 -37 42 -62.5t78 -25.5q41 0 72 22t31 68q0 50 -41.5 71.5t-102.5 21.5h-45v123h49q124 0 124 84q0 36 -26 57t-63 21q-36 0 -62.5 -21.5t-34.5 -57.5l-156 36q25 86 98 133t166 47
q102 0 175.5 -52t73.5 -148q0 -57 -33 -98.5t-86 -55.5v-3q60 -14 98 -59.5t38 -104.5z" />
    <glyph glyph-name="four" unicode="4" horiz-adv-x="646" 
d="M612 138h-97v-138h-157v138h-333v141l288 429h201v-434h98v-136zM359 274v262h-3l-168 -262h171z" />
    <glyph glyph-name="five" unicode="5" horiz-adv-x="646" 
d="M582 234q0 -122 -80 -187.5t-193 -65.5q-98 0 -171 48.5t-98 131.5l153 47q11 -38 42.5 -61.5t71.5 -23.5q45 0 75.5 27t30.5 76q0 58 -42 83t-103 25q-87 0 -173 -31l17 405h434v-144h-285l-6 -112q29 7 71 7q112 0 184 -58.5t72 -166.5z" />
    <glyph glyph-name="six" unicode="6" horiz-adv-x="646" 
d="M601 238q0 -117 -80 -187t-199 -70t-199 69.5t-80 183.5q0 101 79 219l171 255h203l-174 -242l-3 -5q21 8 50 8q96 0 164 -65t68 -166zM433 234q0 48 -30.5 79.5t-79.5 31.5t-80.5 -31.5t-31.5 -80.5q0 -47 31 -79.5t80 -32.5t80 31.5t31 81.5z" />
    <glyph glyph-name="seven" unicode="7" horiz-adv-x="646" 
d="M577 574l-271 -574h-195l287 564h-335v144h514v-134z" />
    <glyph glyph-name="eight" unicode="8" horiz-adv-x="646" 
d="M589 202q0 -106 -77 -163.5t-189 -57.5q-113 0 -189.5 57t-76.5 163q0 62 36 107t91 62v2q-48 18 -78 57.5t-30 95.5q0 94 71.5 148t175.5 54t175.5 -52.5t71.5 -146.5q0 -57 -29.5 -98t-78.5 -57v-3q55 -15 91 -61t36 -107zM408 516q0 34 -25 57.5t-60 23.5
q-37 0 -60.5 -23t-23.5 -58t23 -59.5t61 -24.5q36 0 60.5 25t24.5 59zM421 208q0 41 -28 68.5t-70 27.5q-43 0 -71 -27.5t-28 -68.5q0 -42 27.5 -68t71.5 -26t71 25.5t27 68.5z" />
    <glyph glyph-name="nine" unicode="9" horiz-adv-x="646" 
d="M602 474q0 -101 -79 -219l-171 -255h-203l176 244l2 3q-22 -8 -50 -8q-96 0 -164.5 65t-68.5 166q0 117 80 187t199 70t199 -69.5t80 -183.5zM434 476q0 47 -30.5 80t-79.5 33q-50 0 -81 -32t-31 -82q0 -48 30.5 -79.5t79.5 -31.5q50 0 81 31t31 81z" />
    <glyph glyph-name="colon" unicode=":" horiz-adv-x="332" 
d="M264 410q0 -39 -29 -67.5t-68 -28.5q-40 0 -69.5 27.5t-29.5 66.5q0 40 29 68t70 28q39 0 68 -27.5t29 -66.5zM264 89q0 -39 -29 -67t-68 -28q-40 0 -69.5 27.5t-29.5 66.5q0 40 29 68t70 28q39 0 68 -28t29 -67z" />
    <glyph glyph-name="semicolon" unicode=";" horiz-adv-x="332" 
d="M264 410q0 -40 -28.5 -67.5t-68.5 -27.5t-69 27.5t-29 66.5q0 40 28.5 68t69.5 28q39 0 68 -28t29 -67zM265 160l-97 -284h-138l75 284h160z" />
    <glyph glyph-name="less" unicode="&#x3c;" horiz-adv-x="666" 
d="M587 37l-508 214v103l508 214v-136l-306 -131l306 -127v-137z" />
    <glyph glyph-name="equal" unicode="=" horiz-adv-x="666" 
d="M598 335h-530v123h530v-123zM598 150h-530v123h530v-123z" />
    <glyph glyph-name="greater" unicode="&#x3e;" horiz-adv-x="666" 
d="M587 251l-508 -214v137l306 127l-306 131v136l508 -214v-103z" />
    <glyph glyph-name="question" unicode="?" horiz-adv-x="546" 
d="M527 527q0 -61 -26 -98.5t-86 -83.5q-33 -26 -43.5 -44t-10.5 -49v-26h-156v38q0 49 18 80.5t61 69.5l33 31q41 36 41 71q0 32 -19.5 51t-53.5 19q-39 0 -61.5 -27t-24.5 -66l-159 17q11 105 80.5 161t170.5 56q98 0 167 -51t69 -149zM381 85q0 -40 -28 -67.5t-69 -27.5
q-40 0 -69 27.5t-29 66.5t29 67t69 28t68.5 -27.5t28.5 -66.5z" />
    <glyph glyph-name="at" unicode="@" horiz-adv-x="800" 
d="M774 401q0 -112 -57.5 -176.5t-147.5 -64.5q-39 0 -65 17.5t-30 46.5h-4q-15 -26 -46 -45t-73 -19q-67 0 -105.5 47t-38.5 122q0 89 54 157t138 68q37 0 62.5 -15.5t32.5 -38.5h1l7 34h108l-31 -157q-13 -59 -13 -83q0 -36 29 -36q32 0 54.5 36.5t22.5 102.5
q0 114 -71 176t-188 62q-121 0 -197.5 -80t-76.5 -202q0 -126 80 -201.5t207 -75.5q136 0 230 86l63 -70q-113 -110 -304 -110q-170 0 -278 104t-108 267q0 158 112.5 265.5t272.5 107.5q97 0 177 -35.5t131.5 -111t51.5 -178.5zM465 379q0 78 -56 78q-36 0 -59.5 -40.5
t-23.5 -87.5q0 -70 55 -70q40 0 62 38t22 82z" />
    <glyph glyph-name="A" unicode="A" horiz-adv-x="729" 
d="M743 0h-190l-55 139h-274l-52 -139h-186l297 708h166zM451 276l-88 243l-90 -243h178z" />
    <glyph glyph-name="B" unicode="B" horiz-adv-x="665" 
d="M625 206q0 -55 -22.5 -96.5t-62 -64.5t-86 -34t-99.5 -11h-282v708h282q45 0 84.5 -8.5t76.5 -28t58.5 -57t21.5 -88.5q0 -57 -31 -96t-85 -57v-2q64 -11 104.5 -54.5t40.5 -110.5zM431 503q0 69 -109 69h-84v-146h92q48 0 74.5 20t26.5 57zM454 222q0 78 -121 78h-95
v-162h96q120 0 120 84z" />
    <glyph glyph-name="C" unicode="C" horiz-adv-x="696" 
d="M696 98q-101 -117 -275 -117q-165 0 -273 104.5t-108 269.5q0 167 109.5 269.5t274.5 102.5q77 0 149.5 -27.5t115.5 -76.5l-116 -116q-23 32 -61.5 48.5t-81.5 16.5q-89 0 -146.5 -61.5t-57.5 -155.5q0 -96 56 -156.5t145 -60.5q99 0 150 72z" />
    <glyph glyph-name="D" unicode="D" horiz-adv-x="774" 
d="M734 356q0 -90 -34 -160t-91.5 -112t-126.5 -63t-145 -21h-264v708h256q63 0 119.5 -10.5t109.5 -36.5t91.5 -65t61.5 -100.5t23 -139.5zM556 356q0 57 -19 98.5t-52.5 64.5t-73 33t-86.5 10h-85v-414h81q103 0 169 49t66 159z" />
    <glyph glyph-name="E" unicode="E" horiz-adv-x="607" 
d="M567 0h-494v708h476v-145h-311v-133h294v-137h-294v-147h329v-146z" />
    <glyph glyph-name="F" unicode="F" horiz-adv-x="576" 
d="M539 562h-297v-146h274v-141h-274v-275h-169v708h466v-146z" />
    <glyph glyph-name="G" unicode="G" horiz-adv-x="769" 
d="M702 43q-117 -61 -273 -61q-171 0 -280 103.5t-109 269.5q0 167 109.5 269.5t274.5 102.5q82 0 155 -25.5t118 -68.5l-108 -123q-57 66 -159 66q-90 0 -149 -63t-59 -158q0 -100 57 -161.5t159 -61.5q63 0 107 19v129h-135v138h292v-375z" />
    <glyph glyph-name="H" unicode="H" horiz-adv-x="764" 
d="M691 0h-171v296h-276v-296h-171v708h171v-268h276v268h171v-708z" />
    <glyph glyph-name="I" unicode="I" horiz-adv-x="318" 
d="M245 0h-172v708h172v-708z" />
    <glyph glyph-name="J" unicode="J" horiz-adv-x="529" 
d="M460 242q0 -37 -5.5 -70.5t-21 -69.5t-40.5 -62t-67.5 -42.5t-98.5 -16.5q-87 0 -148.5 46t-81.5 120l151 51q7 -28 25.5 -45t45.5 -17q39 0 54 27t15 78v467h172v-466z" />
    <glyph glyph-name="K" unicode="K" horiz-adv-x="711" 
d="M729 0h-223l-263 326h-2v-326h-168v708h168v-288h3l253 288h214l-305 -326z" />
    <glyph glyph-name="L" unicode="L" horiz-adv-x="526" 
d="M519 0h-446v708h172v-559h274v-149z" />
    <glyph glyph-name="M" unicode="M" horiz-adv-x="955" 
d="M882 0h-167l4 501h-3l-184 -501h-120l-179 501h-3l4 -501h-161v708h243l161 -454h4l154 454h247v-708z" />
    <glyph glyph-name="N" unicode="N" horiz-adv-x="790" 
d="M717 0h-194l-285 463h-3l4 -463h-166v708h195l284 -462h3l-4 462h166v-708z" />
    <glyph glyph-name="O" unicode="O" horiz-adv-x="851" 
d="M811 357q0 -167 -109 -271.5t-277 -104.5q-167 0 -276 104.5t-109 271.5q0 168 108.5 269t276.5 101q169 0 277.5 -101t108.5 -269zM628 357q0 94 -57 155t-146 61t-145.5 -61t-56.5 -155q0 -96 56.5 -158t145.5 -62t146 62t57 158z" />
    <glyph glyph-name="P" unicode="P" horiz-adv-x="640" 
d="M610 490q0 -78 -40.5 -130t-101 -72.5t-139.5 -20.5h-85v-267h-171v708h260q126 0 201.5 -51.5t75.5 -166.5zM439 489q0 81 -120 81h-75v-167h72q123 0 123 86z" />
    <glyph glyph-name="Q" unicode="Q" horiz-adv-x="857" 
d="M845 0h-431q-172 0 -275 96t-103 267q0 160 109 262t275 102t273.5 -101t107.5 -260q0 -75 -31 -136t-74 -94v-3l149 3v-136zM620 361q0 93 -56 152t-144 59q-86 0 -143 -59.5t-57 -151.5q0 -95 55.5 -155t143.5 -60q87 0 144 60t57 155z" />
    <glyph glyph-name="R" unicode="R" horiz-adv-x="663" 
d="M652 0h-200l-153 281h-58v-281h-168v708h270q54 0 100 -11t86 -35t62.5 -67t22.5 -101q0 -70 -39 -120t-108 -71zM445 491q0 79 -114 79h-91v-165h81q124 0 124 86z" />
    <glyph glyph-name="S" unicode="S" horiz-adv-x="591" 
d="M556 639l-109 -115q-21 27 -56.5 44t-69.5 17q-40 0 -69.5 -16.5t-29.5 -54.5q0 -17 7 -29.5t23.5 -22t32.5 -16t46 -15.5q39 -13 61 -21t56.5 -26.5t53.5 -38.5t34 -53.5t15 -73.5q0 -115 -78.5 -175.5t-192.5 -60.5q-77 0 -148 27t-117 75l112 114q26 -33 68.5 -54
t84.5 -21q43 0 70.5 18.5t27.5 58.5q0 16 -7.5 28.5t-16.5 21t-32 18.5t-39 15.5t-52 17.5q-39 13 -67 27t-56 37t-43 58t-15 81q0 56 24 100.5t64 70t87.5 38.5t98.5 13q62 0 124.5 -22.5t107.5 -64.5z" />
    <glyph glyph-name="T" unicode="T" horiz-adv-x="581" 
d="M576 562h-200v-562h-171v562h-200v146h571v-146z" />
    <glyph glyph-name="U" unicode="U" horiz-adv-x="738" 
d="M673 267q0 -128 -83.5 -207t-221.5 -79t-220 78.5t-82 207.5v441h170v-427q0 -63 33 -104.5t100 -41.5q68 0 100.5 41.5t32.5 104.5v427h171v-441z" />
    <glyph glyph-name="V" unicode="V" horiz-adv-x="682" 
d="M697 708l-273 -708h-171l-268 708h192l164 -502h4l163 502h189z" />
    <glyph glyph-name="W" unicode="W" horiz-adv-x="1025" 
d="M1025 708l-202 -708h-169l-140 479h-3l-140 -479h-170l-201 708h184l112 -471h3l126 471h178l127 -471h3l114 471h178z" />
    <glyph glyph-name="X" unicode="X" horiz-adv-x="703" 
d="M711 0h-211l-155 250l-149 -250h-204l248 374l-228 334h206l132 -220l130 220h199l-224 -334z" />
    <glyph glyph-name="Y" unicode="Y" horiz-adv-x="669" 
d="M689 708l-272 -408v-300h-171v300l-266 408h207l151 -262l151 262h200z" />
    <glyph glyph-name="Z" unicode="Z" horiz-adv-x="635" 
d="M597 0h-558v148l337 415h-329v145h543v-137l-345 -423h352v-148z" />
    <glyph glyph-name="bracketleft" unicode="[" horiz-adv-x="342" 
d="M269 -156h-216v888h216v-102h-89v-684h89v-102z" />
    <glyph glyph-name="backslash" unicode="\" horiz-adv-x="415" 
d="M422 -15l-113 -37l-308 775l113 39z" />
    <glyph glyph-name="bracketright" unicode="]" horiz-adv-x="342" 
d="M289 -156h-216v102h89v684h-89v102h216v-888z" />
    <glyph glyph-name="asciicircum" unicode="^" horiz-adv-x="690" 
d="M616 343h-148l-124 213l-123 -213h-148l213 365h118z" />
    <glyph glyph-name="underscore" unicode="_" horiz-adv-x="500" 
d="M500 -164h-500v89h500v-89z" />
    <glyph glyph-name="grave" unicode="`" 
d="M231 572h-124l-146 144h166z" />
    <glyph glyph-name="a" unicode="a" horiz-adv-x="566" 
d="M358 200v17h-21q-153 0 -153 -68q0 -26 21 -38.5t50 -12.5q49 0 76 27.5t27 74.5zM140 341l-83 89q89 84 222 84q123 0 176 -62.5t53 -200.5v-251h-150v53h-3q-18 -30 -57 -47.5t-84 -17.5q-44 0 -82.5 13.5t-68.5 50.5t-30 92q0 168 320 168v8q0 35 -25 53.5t-65 18.5
q-68 0 -123 -51z" />
    <glyph glyph-name="b" unicode="b" horiz-adv-x="659" 
d="M619 251q0 -110 -64.5 -187.5t-172.5 -77.5q-50 0 -94.5 21t-68.5 58h-2v-65h-151v756h164v-311h2q57 67 152 67q105 0 170 -76.5t65 -184.5zM461 251q0 52 -31.5 89.5t-86.5 37.5q-53 0 -86.5 -39t-33.5 -89q0 -51 33.5 -89.5t86.5 -38.5q55 0 86.5 38t31.5 91z" />
    <glyph glyph-name="c" unicode="c" horiz-adv-x="503" 
d="M502 447l-95 -110q-13 18 -37.5 29t-49.5 11q-51 0 -83 -37.5t-32 -90.5t32 -90t85 -37q58 0 89 37l91 -111q-66 -64 -184 -64q-121 0 -200 72t-79 193q0 119 79.5 192t198.5 73q53 0 104.5 -18.5t80.5 -48.5z" />
    <glyph glyph-name="d" unicode="d" horiz-adv-x="658" 
d="M592 0h-151v65h-2q-24 -37 -68.5 -58t-94.5 -21q-108 0 -172.5 77.5t-64.5 187.5q0 108 65 184.5t170 76.5q95 0 152 -67h2v311h164v-756zM435 250q0 50 -33.5 89t-86.5 39q-55 0 -86.5 -37.5t-31.5 -89.5q0 -53 31.5 -91t86.5 -38q53 0 86.5 38.5t33.5 89.5z" />
    <glyph glyph-name="e" unicode="e" horiz-adv-x="596" 
d="M196 306h211q0 41 -25.5 68t-72.5 27q-46 0 -78 -28t-35 -67zM558 243q0 -27 -1 -39h-361q4 -40 39 -67t80 -27q72 0 110 52l114 -72q-73 -106 -226 -106q-117 0 -195.5 70.5t-78.5 192.5q0 120 76.5 193.5t192.5 73.5q112 0 181 -72.5t69 -198.5z" />
    <glyph glyph-name="f" unicode="f" horiz-adv-x="364" 
d="M384 765l-11 -130q-21 7 -45 7q-73 0 -73 -94v-50h111v-123h-111v-375h-164v375h-91v123h91v48q0 229 214 229q48 0 79 -10z" />
    <glyph glyph-name="g" unicode="g" horiz-adv-x="658" 
d="M592 47q0 -142 -78 -214.5t-215 -72.5q-67 0 -137 20.5t-119 57.5l82 117q72 -63 165 -63q70 0 105.5 37.5t35.5 101.5v30h-3q-51 -66 -151 -66q-109 0 -173.5 74t-64.5 182t64.5 184.5t172.5 76.5q107 0 159 -78h2v64h155v-451zM436 252q0 53 -33.5 89.5t-87.5 36.5
t-85.5 -36t-31.5 -90q0 -52 32 -89.5t85 -37.5q55 0 88 37t33 90z" />
    <glyph glyph-name="h" unicode="h" horiz-adv-x="617" 
d="M557 0h-165v270q0 105 -73 105q-41 0 -65 -30t-24 -76v-269h-164v756h164v-321h2q18 32 56 54.5t87 22.5q94 0 138 -59.5t44 -144.5v-308z" />
    <glyph glyph-name="i" unicode="i" horiz-adv-x="296" 
d="M242 657q0 -38 -27.5 -64t-66.5 -26t-66.5 26.5t-27.5 63.5q0 36 27.5 63t66.5 27t66.5 -26.5t27.5 -63.5zM230 0h-164v498h164v-498z" />
    <glyph glyph-name="j" unicode="j" horiz-adv-x="299" 
d="M245 657q0 -38 -27.5 -64t-66.5 -26t-66.5 26.5t-27.5 63.5q0 36 27.5 63t66.5 27t66.5 -26.5t27.5 -63.5zM233 -13q0 -50 -9 -88t-30 -71t-61.5 -50.5t-98.5 -17.5q-42 0 -71 8l11 137q15 -5 35 -5q34 0 47 22.5t13 64.5v511h164v-511z" />
    <glyph glyph-name="k" unicode="k" horiz-adv-x="595" 
d="M399 273l200 -273h-203l-163 239h-3v-239h-165v756h165v-460h3l159 202h199z" />
    <glyph glyph-name="l" unicode="l" horiz-adv-x="298" 
d="M232 0h-166v756h166v-756z" />
    <glyph glyph-name="m" unicode="m" horiz-adv-x="924" 
d="M864 0h-164v272q0 105 -71 105q-40 0 -61.5 -31.5t-21.5 -76.5v-269h-164v284q0 93 -71 93q-38 0 -60 -30.5t-22 -76.5v-270h-165v498h159v-69h2q19 35 58 59t91 24q106 0 150 -85q54 85 159 85q64 0 106.5 -32.5t58.5 -76.5t16 -95v-308z" />
    <glyph glyph-name="n" unicode="n" horiz-adv-x="616" 
d="M556 0h-165v272q0 105 -74 105q-42 0 -65 -31t-23 -76v-270h-165v498h159v-69h2q18 35 58.5 59t90.5 24q93 0 137.5 -59.5t44.5 -144.5v-308z" />
    <glyph glyph-name="o" unicode="o" horiz-adv-x="632" 
d="M592 251q0 -119 -80 -193t-197 -74q-116 0 -196 74t-80 193t80 191t196 72q117 0 197 -72t80 -191zM434 251q0 51 -32 89t-87 38t-86 -37.5t-31 -89.5t31.5 -90.5t86.5 -38.5t86.5 38.5t31.5 90.5z" />
    <glyph glyph-name="p" unicode="p" horiz-adv-x="657" 
d="M618 251q0 -110 -64.5 -187.5t-172.5 -77.5q-46 0 -87 18.5t-64 50.5h-2v-295h-164v738h156v-61h3q24 33 65.5 54t93.5 21q105 0 170.5 -76.5t65.5 -184.5zM459 251q0 52 -31 89.5t-86 37.5q-53 0 -86.5 -39t-33.5 -89q0 -51 33.5 -89.5t86.5 -38.5q55 0 86 38t31 91z
" />
    <glyph glyph-name="q" unicode="q" horiz-adv-x="657" 
d="M592 -240h-163v295h-2q-24 -32 -64.5 -50.5t-86.5 -18.5q-109 0 -173 77.5t-64 187.5q0 108 65 184.5t170 76.5q52 0 94 -21t66 -54h3v61h155v-738zM435 250q0 50 -33.5 89t-86.5 39q-55 0 -86.5 -37.5t-31.5 -89.5q0 -53 31.5 -91t86.5 -38q53 0 86.5 38.5t33.5 89.5z
" />
    <glyph glyph-name="r" unicode="r" horiz-adv-x="396" 
d="M394 508l-7 -144q-19 5 -42 5q-59 0 -88 -36.5t-29 -76.5v-256h-164v498h158v-72h2q19 39 55 62.5t80 23.5q24 0 35 -4z" />
    <glyph glyph-name="s" unicode="s" horiz-adv-x="472" 
d="M447 444l-90 -93q-47 45 -104 45q-26 0 -44 -10t-18 -30t19 -29t72 -21q159 -36 159 -152q0 -87 -62.5 -128.5t-150.5 -41.5q-62 0 -120.5 20t-96.5 57l92 97q51 -56 122 -56q24 0 41.5 10.5t17.5 32.5t-21.5 33t-77.5 24q-145 34 -145 145q0 82 63 124.5t144 42.5
q125 0 200 -70z" />
    <glyph glyph-name="t" unicode="t" horiz-adv-x="372" 
d="M359 375h-117v-190q0 -36 14 -53t48 -17q29 0 48 8l2 -120q-41 -15 -95 -15q-95 0 -136 46t-41 131v210h-80v123h79v131h161v-131h117v-123z" />
    <glyph glyph-name="u" unicode="u" horiz-adv-x="614" 
d="M550 0h-158v69h-2q-18 -35 -59 -59t-91 -24q-93 0 -137 59.5t-44 144.5v308h165v-270q0 -106 74 -106q41 0 64.5 31t23.5 76v269h164v-498z" />
    <glyph glyph-name="v" unicode="v" horiz-adv-x="567" 
d="M568 498l-196 -498h-177l-196 498h181l105 -323h3l105 323h175z" />
    <glyph glyph-name="w" unicode="w" horiz-adv-x="871" 
d="M871 498l-173 -498h-165l-98 310h-2l-96 -310h-165l-172 498h177l86 -315h3l89 315h165l92 -315h2l87 315h170z" />
    <glyph glyph-name="x" unicode="x" horiz-adv-x="594" 
d="M597 0h-193l-107 153l-110 -153h-190l199 261l-180 237h191l93 -133l94 133h185l-179 -237z" />
    <glyph glyph-name="y" unicode="y" horiz-adv-x="567" 
d="M568 498l-223 -573q-32 -84 -81 -124.5t-138 -40.5q-46 0 -90 11l18 138q29 -9 53 -9q36 0 53.5 15.5t30.5 51.5l16 41l-208 490h182l111 -320h3l99 320h174z" />
    <glyph glyph-name="z" unicode="z" horiz-adv-x="512" 
d="M478 0h-444v128l234 244h-225v126h425v-123l-241 -248h251v-127z" />
    <glyph glyph-name="braceleft" unicode="{" horiz-adv-x="342" 
d="M292 -156h-82q-62 0 -99.5 40.5t-37.5 107.5v167q0 74 -67 74v110q67 0 67 70v171q0 67 37.5 107.5t99.5 40.5h82v-105h-47q-46 0 -46 -60v-167q0 -52 -30.5 -79.5t-62.5 -31.5v-2q33 -3 63 -30t30 -85v-163q0 -60 46 -60h47v-105z" />
    <glyph glyph-name="bar" unicode="|" horiz-adv-x="241" 
d="M186 -250h-130l-1 1000h131v-1000z" />
    <glyph glyph-name="braceright" unicode="}" horiz-adv-x="342" 
d="M336 233q-67 0 -67 -74v-167q0 -67 -37.5 -107.5t-99.5 -40.5h-82v105h47q46 0 46 60v163q0 58 30 85t63 30v2q-32 4 -62.5 31.5t-30.5 79.5v167q0 60 -46 60h-47v105h82q62 0 99.5 -40.5t37.5 -107.5v-171q0 -70 67 -70v-110z" />
    <glyph glyph-name="asciitilde" unicode="~" horiz-adv-x="666" 
d="M593 287v-2q-27 -46 -59 -73t-80 -27q-52 0 -112 38q-61 38 -107 38q-50 0 -84 -70l-66 104q51 99 137 99q58 0 120 -37q69 -40 99 -40q25 0 44.5 18.5t42.5 52.5z" />
    <glyph glyph-name="uni00A0" unicode="&#xa0;" horiz-adv-x="250" 
 />
    <glyph glyph-name="exclamdown" unicode="&#xa1;" horiz-adv-x="357" 
d="M276 423q0 -39 -28.5 -66.5t-69.5 -27.5q-40 0 -68.5 28t-28.5 67t29 66.5t68 27.5q41 0 69.5 -27.5t28.5 -67.5zM262 -200h-168v471h168v-471z" />
    <glyph glyph-name="cent" unicode="&#xa2;" horiz-adv-x="646" 
d="M550 51q-56 -56 -160 -65v-65h-76v65q-105 12 -169 84.5t-64 179.5q0 106 63.5 176.5t169.5 85.5v64h76v-64q106 -7 159 -63l-83 -104q-31 33 -76 39v-270q46 4 79 39zM314 116v266q-44 -10 -68 -46.5t-24 -86.5q0 -48 24.5 -84.5t67.5 -48.5z" />
    <glyph glyph-name="sterling" unicode="&#xa3;" horiz-adv-x="646" 
d="M625 658l-96 -110q-35 38 -92 38q-56 0 -80.5 -35.5t-24.5 -83.5v-51h156v-115h-156v-160h259v-141h-519v141h95v160h-95v115h95v61q0 43 15 85.5t44.5 80t81.5 61t119 23.5q122 0 198 -69z" />
    <glyph glyph-name="currency" unicode="&#xa4;" horiz-adv-x="950" 
d="M713 459q42 -65 42 -150q0 -90 -45 -155l93 -93l-84 -84l-97 96q-64 -39 -146 -39q-78 0 -147 41l-99 -98l-84 84l96 96q-42 62 -42 152q0 83 39 147l-93 93l85 84l95 -94q68 41 150 41q83 0 150 -39l92 92l85 -84zM476 441q-55 0 -90.5 -38.5t-35.5 -93.5
q0 -57 35.5 -95.5t90.5 -38.5q56 0 91.5 38.5t35.5 95.5q0 54 -36 93t-91 39z" />
    <glyph glyph-name="yen" unicode="&#xa5;" horiz-adv-x="646" 
d="M637 708l-179 -292h124v-103h-179v-65h179v-103h-179v-145h-158v145h-178v103h178v65h-178v103h127l-182 292h185l132 -260l129 260h179z" />
    <glyph glyph-name="brokenbar" unicode="&#xa6;" horiz-adv-x="241" 
d="M186 313h-131v362h131v-362zM186 -175h-131v362h131v-362z" />
    <glyph glyph-name="section" unicode="&#xa7;" horiz-adv-x="607" 
d="M562 279q0 -39 -20.5 -72.5t-54.5 -52.5q50 -35 50 -110q0 -49 -22 -87.5t-58.5 -60.5t-78 -33t-85.5 -11q-75 0 -145 31.5t-108 89.5l122 87q21 -36 59 -54.5t75 -18.5q28 0 50.5 13.5t22.5 37.5q0 31 -26.5 47t-104.5 43q-88 30 -132 66t-44 104q0 89 86 138
q-53 39 -53 113q0 58 37 100t87.5 59.5t105.5 17.5q74 0 134 -26.5t94 -76.5l-116 -88q-18 27 -47 43.5t-58 16.5q-28 0 -49.5 -12.5t-21.5 -36.5q0 -25 26.5 -42.5t90.5 -39.5q89 -33 136.5 -74t47.5 -111zM414 263q0 27 -20 43.5t-58 32.5l-86 35q-41 -17 -41 -53
q0 -19 13 -33.5t26.5 -21t40.5 -17.5l94 -37q31 14 31 51z" />
    <glyph glyph-name="dieresis" unicode="&#xa8;" 
d="M342 658q0 -34 -24.5 -58t-58.5 -24q-35 0 -59 24t-24 58q0 33 24 57t59 24q34 0 58.5 -23.5t24.5 -57.5zM125 658q0 -34 -24.5 -58t-59.5 -24q-34 0 -58.5 24t-24.5 58q0 33 24.5 57t58.5 24q35 0 59.5 -23.5t24.5 -57.5z" />
    <glyph glyph-name="copyright" unicode="&#xa9;" horiz-adv-x="800" 
d="M780 353q0 -156 -111 -265.5t-268 -109.5q-158 0 -269.5 109.5t-111.5 265.5q0 157 111.5 267t269.5 110q157 0 268 -110t111 -267zM720 353q0 133 -93.5 227t-225.5 94q-133 0 -227 -94t-94 -227q0 -132 93 -225.5t226 -93.5q132 0 226.5 93.5t94.5 225.5zM585 510
l-77 -70q-31 39 -90 39q-53 0 -83.5 -37.5t-30.5 -88.5q0 -52 32 -90t88 -38q57 0 88 36l72 -76q-60 -63 -165 -63q-101 0 -169 61.5t-68 168.5q0 104 68.5 166.5t168.5 62.5q50 0 94.5 -19t71.5 -52z" />
    <glyph glyph-name="ordfeminine" unicode="&#xaa;" horiz-adv-x="384" 
d="M236 431v27h-1q-22 -34 -84 -34q-43 0 -74.5 22.5t-31.5 65.5q0 98 186 98v4q0 35 -50 35q-40 0 -68 -28l-54 55q50 47 131 47q139 0 139 -128v-164h-93zM234 541v12h-12q-80 0 -80 -35q0 -13 11.5 -20t25.5 -7q26 0 40.5 14t14.5 36z" />
    <glyph glyph-name="guillemotleft" unicode="&#xab;" horiz-adv-x="543" 
d="M509 85l-97 -63l-161 232l161 232l97 -63l-115 -169zM284 85l-98 -63l-161 232l161 232l97 -63l-115 -169z" />
    <glyph glyph-name="logicalnot" unicode="&#xac;" horiz-adv-x="666" 
d="M606 145h-130v183h-425v123h555v-306z" />
    <glyph glyph-name="uni00AD" unicode="&#xad;" horiz-adv-x="326" 
d="M290 197h-254v130h254v-130z" />
    <glyph glyph-name="registered" unicode="&#xae;" horiz-adv-x="600" 
d="M279 521h26q12 0 20 6.5t8 16.5q0 8 -8.5 13t-19.5 5h-26v-41zM439 365h-100l-44 94h-16v-94h-88v266h114q50 0 85.5 -20t35.5 -66q0 -55 -48 -74zM72 492q0 94 67 160.5t162 66.5q94 0 160.5 -66.5t66.5 -160.5t-66.5 -159.5t-160.5 -65.5q-95 0 -162 65.5t-67 159.5z
M108 492q0 -79 56.5 -135.5t136.5 -56.5q79 0 135 56.5t56 135.5q0 80 -56 136t-135 56q-80 0 -136.5 -56t-56.5 -136z" />
    <glyph glyph-name="macron" unicode="&#xaf;" 
d="M318 601h-336v86h336v-86z" />
    <glyph glyph-name="degree" unicode="&#xb0;" horiz-adv-x="416" 
d="M376 558q0 -70 -49 -119t-119 -49t-119 49t-49 119t48.5 118.5t119.5 48.5t119.5 -48.5t48.5 -118.5zM296 558q0 36 -25.5 62t-62.5 26t-62.5 -26t-25.5 -62q0 -37 25.5 -62.5t62.5 -25.5t62.5 25.5t25.5 62.5z" />
    <glyph glyph-name="plusminus" unicode="&#xb1;" horiz-adv-x="666" 
d="M616 331h-212v-132h-130v132h-213v127h213v132h130v-132h212v-127zM616 31h-555v127h555v-127z" />
    <glyph glyph-name="twosuperior" unicode="&#xb2;" horiz-adv-x="420" 
d="M374 445h-319v92l170 156q29 26 29 56q0 18 -12 29t-33 11q-22 0 -37 -17t-17 -44l-110 14q7 69 54.5 108.5t114.5 39.5t113.5 -34t46.5 -100q0 -30 -12 -56t-25.5 -41t-38.5 -37l-87 -77h163v-100z" />
    <glyph glyph-name="threesuperior" unicode="&#xb3;" horiz-adv-x="420" 
d="M379 573q0 -67 -49 -102t-115 -35q-63 0 -110.5 30t-65.5 92l105 28q16 -53 64 -53q23 0 39.5 11t16.5 35q0 47 -78 47h-33v84h36q65 0 65 47q0 17 -13 27.5t-33 10.5q-18 0 -32.5 -13t-18.5 -35l-105 25q16 56 61.5 87t102.5 31q64 0 108.5 -31t44.5 -90q0 -67 -57 -96
q32 -11 49.5 -37.5t17.5 -62.5z" />
    <glyph glyph-name="acute" unicode="&#xb4;" 
d="M339 716l-146 -144h-124l104 144h166z" />
    <glyph glyph-name="mu" unicode="&#xb5;" horiz-adv-x="663" 
d="M626 121l2 -120q-36 -13 -85 -13q-96 0 -111 81h-2q-13 -32 -46 -57.5t-75 -25.5q-55 0 -77 27h-2v-253h-166v738h166v-268q0 -108 74 -108q41 0 64.5 31t23.5 78v267h166v-339q0 -23 9 -33t29 -10q15 0 30 5z" />
    <glyph glyph-name="paragraph" unicode="&#xb6;" horiz-adv-x="618" 
d="M555 -129h-116v737h-85v-737h-116v464q-98 2 -156 52t-58 131q0 190 244 190h287v-837z" />
    <glyph glyph-name="periodcentered" unicode="&#xb7;" 
d="M251 291q0 -41 -29.5 -69.5t-70.5 -28.5q-42 0 -72 28t-30 69t30 70t72 29q41 0 70.5 -28.5t29.5 -69.5z" />
    <glyph glyph-name="cedilla" unicode="&#xb8;" 
d="M283 -142q0 -52 -44.5 -75t-102.5 -23q-67 0 -119 25l27 60q40 -19 84 -19q50 0 50 33q0 29 -47 29q-22 0 -40 -6l-31 29l67 89h82l-47 -60q7 1 18 1q103 0 103 -83z" />
    <glyph glyph-name="onesuperior" unicode="&#xb9;" horiz-adv-x="420" 
d="M298 445h-117v306l-74 -58l-60 81l145 107h106v-436z" />
    <glyph glyph-name="ordmasculine" unicode="&#xba;" horiz-adv-x="384" 
d="M348 575q0 -67 -44.5 -109t-111.5 -42q-66 0 -110.5 42t-44.5 109q0 66 44.5 107.5t110.5 41.5q67 0 111.5 -41.5t44.5 -107.5zM253 575q0 26 -17 44.5t-44 18.5t-43 -18.5t-16 -44.5q0 -27 16 -45.5t43 -18.5q28 0 44.5 18.5t16.5 45.5z" />
    <glyph glyph-name="guillemotright" unicode="&#xbb;" horiz-adv-x="543" 
d="M519 253l-162 -231l-97 63l115 168l-115 170l97 63zM293 253l-161 -231l-97 63l115 168l-116 170l98 63z" />
    <glyph glyph-name="onequarter" unicode="&#xbc;" horiz-adv-x="940" 
d="M882 83h-58v-83h-106v83h-200v93l175 260h131v-259h58v-94zM718 177v134h-1l-88 -134h89zM701 699l-388 -729l-87 39l384 730zM297 272h-117v306l-74 -58l-60 81l145 107h106v-436z" />
    <glyph glyph-name="onehalf" unicode="&#xbd;" horiz-adv-x="940" 
d="M894 0h-319v92l170 156q29 26 29 55q0 18 -12 29.5t-32 11.5q-23 0 -38 -16.5t-17 -44.5l-110 14q7 68 55 108t114 40t113 -34.5t47 -100.5q0 -42 -19.5 -71.5t-56.5 -62.5l-87 -76h163v-100zM701 699l-388 -729l-87 39l384 730zM297 272h-117v306l-74 -58l-60 81
l145 107h106v-436z" />
    <glyph glyph-name="threequarters" unicode="&#xbe;" horiz-adv-x="940" 
d="M882 83h-58v-83h-106v83h-200v93l175 260h131v-259h58v-94zM718 177v134h-1l-88 -134h89zM701 699l-388 -729l-87 39l384 730zM379 404q0 -67 -49 -102t-115 -35q-63 0 -110.5 30t-65.5 92l105 28q16 -53 64 -53q23 0 39.5 11t16.5 35q0 47 -78 47h-33v84h36q65 0 65 46
q0 17 -13 27.5t-33 10.5q-18 0 -32.5 -13t-18.5 -35l-105 25q16 56 61.5 87t102.5 31q64 0 108.5 -31t44.5 -90q0 -67 -57 -95q32 -11 49.5 -37.5t17.5 -62.5z" />
    <glyph glyph-name="questiondown" unicode="&#xbf;" horiz-adv-x="546" 
d="M361 424q0 -39 -29 -67t-69 -28t-69 27.5t-29 66.5q0 40 28.5 67.5t69.5 27.5q40 0 69 -27.5t29 -66.5zM507 -2q-12 -105 -81.5 -160.5t-170.5 -55.5q-97 0 -166.5 51t-69.5 148q0 61 26.5 99t86.5 84q32 25 43 43t11 49v26h156v-37q0 -49 -18 -80.5t-61 -70.5l-34 -30
q-41 -37 -41 -71q0 -32 20 -51.5t54 -19.5q39 0 61.5 27.5t23.5 66.5z" />
    <glyph glyph-name="Agrave" unicode="&#xc0;" horiz-adv-x="729" 
d="M743 0h-190l-55 139h-274l-52 -139h-186l297 708h166zM451 276l-88 243l-90 -243h178zM439 764h-124l-146 144h166z" />
    <glyph glyph-name="Aacute" unicode="&#xc1;" horiz-adv-x="729" 
d="M743 0h-190l-55 139h-274l-52 -139h-186l297 708h166zM451 276l-88 243l-90 -243h178zM564 908l-146 -144h-124l104 144h166z" />
    <glyph glyph-name="Acircumflex" unicode="&#xc2;" horiz-adv-x="729" 
d="M743 0h-190l-55 139h-274l-52 -139h-186l297 708h166zM451 276l-88 243l-90 -243h178zM564 764h-130l-68 81l-68 -81h-128l124 144h148z" />
    <glyph glyph-name="Atilde" unicode="&#xc3;" horiz-adv-x="729" 
d="M743 0h-190l-55 139h-274l-52 -139h-186l297 708h166zM451 276l-88 243l-90 -243h178zM551 900q-7 -58 -34.5 -95t-78.5 -37q-36 0 -81 21q-39 20 -63 20q-31 0 -42 -40h-72q17 130 113 130q37 0 80 -20t65 -20q32 0 42 41h71z" />
    <glyph glyph-name="Adieresis" unicode="&#xc4;" horiz-adv-x="729" 
d="M743 0h-190l-55 139h-274l-52 -139h-186l297 708h166zM451 276l-88 243l-90 -243h178zM558 850q0 -34 -24.5 -58t-58.5 -24q-35 0 -59 24t-24 58q0 33 24 57t59 24q34 0 58.5 -23.5t24.5 -57.5zM341 850q0 -34 -24.5 -58t-59.5 -24q-34 0 -58.5 24t-24.5 58q0 33 24.5 57
t58.5 24q35 0 59.5 -23.5t24.5 -57.5z" />
    <glyph glyph-name="Aring" unicode="&#xc5;" horiz-adv-x="729" 
d="M743 0h-190l-55 139h-274l-52 -139h-186l297 708h166zM451 276l-88 243l-90 -243h178zM476 856q0 -46 -31.5 -76.5t-77.5 -30.5q-45 0 -77 30.5t-32 75.5q0 46 31.5 77t77.5 31q45 0 77 -31t32 -76zM426 856q0 25 -17 41.5t-42 16.5t-42 -17t-17 -42q0 -24 17 -40.5
t42 -16.5t42 16.5t17 41.5z" />
    <glyph glyph-name="AE" unicode="&#xc6;" horiz-adv-x="1033" 
d="M993 0h-479v153h-231l-88 -153h-199l414 708h565v-145h-298v-133h281v-137h-281v-147h316v-146zM514 291v272h-10l-153 -272h163z" />
    <glyph glyph-name="Ccedilla" unicode="&#xc7;" horiz-adv-x="696" 
d="M531 -142q0 -52 -44.5 -75t-102.5 -23q-67 0 -119 25l27 60q40 -19 84 -19q50 0 50 33q0 29 -47 29q-22 0 -40 -6l-31 29l55 74q-143 18 -233 119t-90 251q0 167 109.5 269.5t274.5 102.5q77 0 149.5 -27.5t115.5 -76.5l-116 -116q-23 32 -61.5 48.5t-81.5 16.5
q-89 0 -146.5 -61.5t-57.5 -155.5q0 -96 56 -156.5t145 -60.5q99 0 150 72l119 -112q-93 -109 -254 -116l-32 -42q7 1 18 1q103 0 103 -83z" />
    <glyph glyph-name="Egrave" unicode="&#xc8;" horiz-adv-x="607" 
d="M567 0h-494v708h476v-145h-311v-133h294v-137h-294v-147h329v-146zM406 764h-124l-146 144h166z" />
    <glyph glyph-name="Eacute" unicode="&#xc9;" horiz-adv-x="607" 
d="M567 0h-494v708h476v-145h-311v-133h294v-137h-294v-147h329v-146zM503 908l-146 -144h-124l104 144h166z" />
    <glyph glyph-name="Ecircumflex" unicode="&#xca;" horiz-adv-x="607" 
d="M567 0h-494v708h476v-145h-311v-133h294v-137h-294v-147h329v-146zM512 764h-130l-68 81l-68 -81h-128l124 144h148z" />
    <glyph glyph-name="Edieresis" unicode="&#xcb;" horiz-adv-x="607" 
d="M567 0h-494v708h476v-145h-311v-133h294v-137h-294v-147h329v-146zM507 850q0 -34 -24.5 -58t-58.5 -24q-35 0 -59 24t-24 58q0 33 24 57t59 24q34 0 58.5 -23.5t24.5 -57.5zM290 850q0 -34 -24.5 -58t-59.5 -24q-34 0 -58.5 24t-24.5 58q0 33 24.5 57t58.5 24
q35 0 59.5 -23.5t24.5 -57.5z" />
    <glyph glyph-name="Igrave" unicode="&#xcc;" horiz-adv-x="318" 
d="M245 0h-172v708h172v-708zM245 764h-124l-146 144h166z" />
    <glyph glyph-name="Iacute" unicode="&#xcd;" horiz-adv-x="318" 
d="M245 0h-172v708h172v-708zM343 908l-146 -144h-124l104 144h166z" />
    <glyph glyph-name="Icircumflex" unicode="&#xce;" horiz-adv-x="318" 
d="M245 0h-172v708h172v-708zM355 764h-130l-68 81l-68 -81h-128l124 144h148z" />
    <glyph glyph-name="Idieresis" unicode="&#xcf;" horiz-adv-x="318" 
d="M245 0h-172v708h172v-708zM351 850q0 -34 -24.5 -58t-58.5 -24q-35 0 -59 24t-24 58q0 33 24 57t59 24q34 0 58.5 -23.5t24.5 -57.5zM134 850q0 -34 -24.5 -58t-59.5 -24q-34 0 -58.5 24t-24.5 58q0 33 24.5 57t58.5 24q35 0 59.5 -23.5t24.5 -57.5z" />
    <glyph glyph-name="Eth" unicode="&#xd0;" horiz-adv-x="774" 
d="M732 356q0 -88 -34 -158.5t-90 -112t-123 -63.5t-139 -22h-272v309h-61v107h61v292h273q78 0 145.5 -20t122 -61t86 -110.5t31.5 -160.5zM557 356q0 101 -61 152t-165 51h-90v-143h181v-107h-181v-159h74q111 0 176.5 50.5t65.5 155.5z" />
    <glyph glyph-name="Ntilde" unicode="&#xd1;" horiz-adv-x="790" 
d="M717 0h-194l-285 463h-3l4 -463h-166v708h195l284 -462h3l-4 462h166v-708zM584 900q-7 -58 -34.5 -95t-78.5 -37q-35 0 -81 21q-39 20 -63 20q-31 0 -42 -40h-72q17 130 113 130q37 0 80 -20t65 -20q32 0 42 41h71z" />
    <glyph glyph-name="Ograve" unicode="&#xd2;" horiz-adv-x="851" 
d="M811 357q0 -167 -109 -271.5t-277 -104.5q-167 0 -276 104.5t-109 271.5q0 168 108.5 269t276.5 101q169 0 277.5 -101t108.5 -269zM628 357q0 94 -57 155t-146 61t-145.5 -61t-56.5 -155q0 -96 56.5 -158t145.5 -62t146 62t57 158zM527 764h-124l-146 144h166z" />
    <glyph glyph-name="Oacute" unicode="&#xd3;" horiz-adv-x="851" 
d="M811 357q0 -167 -109 -271.5t-277 -104.5q-167 0 -276 104.5t-109 271.5q0 168 108.5 269t276.5 101q169 0 277.5 -101t108.5 -269zM628 357q0 94 -57 155t-146 61t-145.5 -61t-56.5 -155q0 -96 56.5 -158t145.5 -62t146 62t57 158zM605 908l-146 -144h-124l104 144h166z
" />
    <glyph glyph-name="Ocircumflex" unicode="&#xd4;" horiz-adv-x="851" 
d="M811 357q0 -167 -109 -271.5t-277 -104.5q-167 0 -276 104.5t-109 271.5q0 168 108.5 269t276.5 101q169 0 277.5 -101t108.5 -269zM628 357q0 94 -57 155t-146 61t-145.5 -61t-56.5 -155q0 -96 56.5 -158t145.5 -62t146 62t57 158zM623 764h-130l-68 81l-68 -81h-128
l124 144h148z" />
    <glyph glyph-name="Otilde" unicode="&#xd5;" horiz-adv-x="851" 
d="M811 357q0 -167 -109 -271.5t-277 -104.5q-167 0 -276 104.5t-109 271.5q0 168 108.5 269t276.5 101q169 0 277.5 -101t108.5 -269zM628 357q0 94 -57 155t-146 61t-145.5 -61t-56.5 -155q0 -96 56.5 -158t145.5 -62t146 62t57 158zM612 900q-7 -58 -34.5 -95t-78.5 -37
q-35 0 -81 21q-39 20 -63 20q-31 0 -42 -40h-72q17 130 113 130q37 0 80 -20t65 -20q32 0 42 41h71z" />
    <glyph glyph-name="Odieresis" unicode="&#xd6;" horiz-adv-x="851" 
d="M811 357q0 -167 -109 -271.5t-277 -104.5q-167 0 -276 104.5t-109 271.5q0 168 108.5 269t276.5 101q169 0 277.5 -101t108.5 -269zM628 357q0 94 -57 155t-146 61t-145.5 -61t-56.5 -155q0 -96 56.5 -158t145.5 -62t146 62t57 158zM618 850q0 -34 -24.5 -58t-58.5 -24
q-35 0 -59 24t-24 58q0 33 24 57t59 24q34 0 58.5 -23.5t24.5 -57.5zM401 850q0 -34 -24.5 -58t-59.5 -24q-34 0 -58.5 24t-24.5 58q0 33 24.5 57t58.5 24q35 0 59.5 -23.5t24.5 -57.5z" />
    <glyph glyph-name="multiply" unicode="&#xd7;" horiz-adv-x="666" 
d="M604 130l-94 -93l-177 173l-176 -173l-93 89l177 175l-178 174l94 91l177 -173l174 172l91 -87l-174 -173z" />
    <glyph glyph-name="Oslash" unicode="&#xd8;" horiz-adv-x="851" 
d="M40 356q0 168 108.5 269t276.5 101q126 0 219 -58q14 16 43.5 48.5t43.5 48.5l67 -59q-17 -17 -46.5 -49.5t-39.5 -43.5q99 -101 99 -257q0 -166 -109.5 -269.5t-277.5 -104.5h-5q-135 0 -224 69l-89 -95q-48 41 -67 57l89 97q-88 94 -88 246zM635 356q0 80 -38 130
l-292 -318q46 -37 119 -37q95 0 153 64t58 161zM214 355q0 -73 31 -120l290 315q-44 29 -110 29q-96 0 -153.5 -64t-57.5 -160z" />
    <glyph glyph-name="Ugrave" unicode="&#xd9;" horiz-adv-x="738" 
d="M673 267q0 -128 -83.5 -207t-221.5 -79t-220 78.5t-82 207.5v441h170v-427q0 -63 33 -104.5t100 -41.5q68 0 100.5 41.5t32.5 104.5v427h171v-441zM470 764h-124l-146 144h166z" />
    <glyph glyph-name="Uacute" unicode="&#xda;" horiz-adv-x="738" 
d="M673 267q0 -128 -83.5 -207t-221.5 -79t-220 78.5t-82 207.5v441h170v-427q0 -63 33 -104.5t100 -41.5q68 0 100.5 41.5t32.5 104.5v427h171v-441zM543 908l-146 -144h-124l104 144h166z" />
    <glyph glyph-name="Ucircumflex" unicode="&#xdb;" horiz-adv-x="738" 
d="M673 267q0 -128 -83.5 -207t-221.5 -79t-220 78.5t-82 207.5v441h170v-427q0 -63 33 -104.5t100 -41.5q68 0 100.5 41.5t32.5 104.5v427h171v-441zM567 764h-130l-68 81l-68 -81h-128l124 144h148z" />
    <glyph glyph-name="Udieresis" unicode="&#xdc;" horiz-adv-x="738" 
d="M673 267q0 -128 -83.5 -207t-221.5 -79t-220 78.5t-82 207.5v441h170v-427q0 -63 33 -104.5t100 -41.5q68 0 100.5 41.5t32.5 104.5v427h171v-441zM562 850q0 -34 -24.5 -58t-58.5 -24q-35 0 -59 24t-24 58q0 33 24 57t59 24q34 0 58.5 -23.5t24.5 -57.5zM345 850
q0 -34 -24.5 -58t-59.5 -24q-34 0 -58.5 24t-24.5 58q0 33 24.5 57t58.5 24q35 0 59.5 -23.5t24.5 -57.5z" />
    <glyph glyph-name="Yacute" unicode="&#xdd;" horiz-adv-x="669" 
d="M689 708l-272 -408v-300h-171v300l-266 408h207l151 -262l151 262h200zM543 908l-146 -144h-124l104 144h166z" />
    <glyph glyph-name="Thorn" unicode="&#xde;" horiz-adv-x="640" 
d="M610 369q0 -78 -40.5 -130t-101 -72.5t-139.5 -20.5h-85v-146h-171v708h171v-121h89q126 0 201.5 -51.5t75.5 -166.5zM439 368q0 82 -120 82h-75v-168h72q123 0 123 86z" />
    <glyph glyph-name="germandbls" unicode="&#xdf;" horiz-adv-x="667" 
d="M277 140q36 -13 73 -13q113 0 113 103q0 57 -38 85.5t-97 28.5h-21v129h22q12 0 24.5 3t27.5 10.5t24.5 25t9.5 42.5q0 34 -22.5 57.5t-61.5 23.5q-55 0 -79 -39.5t-24 -95.5v-500h-164v501q0 120 69 193.5t205 73.5q103 0 172.5 -54.5t69.5 -145.5q0 -54 -29.5 -95
t-74.5 -55v-1q70 -14 111.5 -66t41.5 -129q0 -109 -69.5 -172t-186.5 -63q-47 0 -96 12v141z" />
    <glyph glyph-name="agrave" unicode="&#xe0;" horiz-adv-x="566" 
d="M358 200v17h-21q-153 0 -153 -68q0 -26 21 -38.5t50 -12.5q49 0 76 27.5t27 74.5zM140 341l-83 89q89 84 222 84q123 0 176 -62.5t53 -200.5v-251h-150v53h-3q-18 -30 -57 -47.5t-84 -17.5q-44 0 -82.5 13.5t-68.5 50.5t-30 92q0 168 320 168v8q0 35 -25 53.5t-65 18.5
q-68 0 -123 -51zM382 572h-124l-146 144h166z" />
    <glyph glyph-name="aacute" unicode="&#xe1;" horiz-adv-x="566" 
d="M358 200v17h-21q-153 0 -153 -68q0 -26 21 -38.5t50 -12.5q49 0 76 27.5t27 74.5zM140 341l-83 89q89 84 222 84q123 0 176 -62.5t53 -200.5v-251h-150v53h-3q-18 -30 -57 -47.5t-84 -17.5q-44 0 -82.5 13.5t-68.5 50.5t-30 92q0 168 320 168v8q0 35 -25 53.5t-65 18.5
q-68 0 -123 -51zM458 716l-146 -144h-124l104 144h166z" />
    <glyph glyph-name="acircumflex" unicode="&#xe2;" horiz-adv-x="566" 
d="M358 200v17h-21q-153 0 -153 -68q0 -26 21 -38.5t50 -12.5q49 0 76 27.5t27 74.5zM140 341l-83 89q89 84 222 84q123 0 176 -62.5t53 -200.5v-251h-150v53h-3q-18 -30 -57 -47.5t-84 -17.5q-44 0 -82.5 13.5t-68.5 50.5t-30 92q0 168 320 168v8q0 35 -25 53.5t-65 18.5
q-68 0 -123 -51zM482 572h-130l-68 81l-68 -81h-128l124 144h148z" />
    <glyph glyph-name="atilde" unicode="&#xe3;" horiz-adv-x="566" 
d="M358 200v17h-21q-153 0 -153 -68q0 -26 21 -38.5t50 -12.5q49 0 76 27.5t27 74.5zM140 341l-83 89q89 84 222 84q123 0 176 -62.5t53 -200.5v-251h-150v53h-3q-18 -30 -57 -47.5t-84 -17.5q-44 0 -82.5 13.5t-68.5 50.5t-30 92q0 168 320 168v8q0 35 -25 53.5t-65 18.5
q-68 0 -123 -51zM473 708q-7 -58 -34.5 -95t-78.5 -37q-36 0 -81 21q-39 20 -63 20q-31 0 -42 -40h-72q17 130 113 130q37 0 80 -20t65 -20q32 0 42 41h71z" />
    <glyph glyph-name="adieresis" unicode="&#xe4;" horiz-adv-x="566" 
d="M358 200v17h-21q-153 0 -153 -68q0 -26 21 -38.5t50 -12.5q49 0 76 27.5t27 74.5zM140 341l-83 89q89 84 222 84q123 0 176 -62.5t53 -200.5v-251h-150v53h-3q-18 -30 -57 -47.5t-84 -17.5q-44 0 -82.5 13.5t-68.5 50.5t-30 92q0 168 320 168v8q0 35 -25 53.5t-65 18.5
q-68 0 -123 -51zM477 658q0 -34 -24.5 -58t-58.5 -24q-35 0 -59 24t-24 58q0 33 24 57t59 24q34 0 58.5 -23.5t24.5 -57.5zM260 658q0 -34 -24.5 -58t-59.5 -24q-34 0 -58.5 24t-24.5 58q0 33 24.5 57t58.5 24q35 0 59.5 -23.5t24.5 -57.5z" />
    <glyph glyph-name="aring" unicode="&#xe5;" horiz-adv-x="566" 
d="M358 200v17h-21q-153 0 -153 -68q0 -26 21 -38.5t50 -12.5q49 0 76 27.5t27 74.5zM140 341l-83 89q89 84 222 84q123 0 176 -62.5t53 -200.5v-251h-150v53h-3q-18 -30 -57 -47.5t-84 -17.5q-44 0 -82.5 13.5t-68.5 50.5t-30 92q0 168 320 168v8q0 35 -25 53.5t-65 18.5
q-68 0 -123 -51zM396 664q0 -46 -31.5 -76.5t-77.5 -30.5q-45 0 -77 30.5t-32 75.5q0 46 31.5 77t77.5 31q45 0 77 -31t32 -76zM346 664q0 25 -17 41.5t-42 16.5t-42 -17t-17 -42q0 -24 17 -40.5t42 -16.5t42 16.5t17 41.5z" />
    <glyph glyph-name="ae" unicode="&#xe6;" horiz-adv-x="899" 
d="M358 191v16h-21q-77 0 -115 -12t-38 -46q0 -26 21 -38.5t50 -12.5q49 0 76 25t27 68zM498 306h211q0 41 -25.5 68t-72.5 27q-46 0 -78 -28t-35 -67zM727 162l113 -72q-72 -106 -226 -106q-59 0 -108.5 23.5t-78.5 66.5q-53 -86 -202 -86q-75 0 -133.5 39t-58.5 117
q0 50 26 83.5t74.5 49.5t99.5 22t120 6v7q0 80 -89 80q-69 0 -124 -51l-82 89q87 84 221 84q111 0 161 -73q63 73 171 73q111 0 180.5 -73t69.5 -198q0 -15 -2 -39h-360q4 -41 38.5 -67.5t79.5 -26.5q74 0 110 52z" />
    <glyph glyph-name="ccedilla" unicode="&#xe7;" horiz-adv-x="503" 
d="M430 -142q0 -52 -44.5 -75t-102.5 -23q-67 0 -119 25l27 60q40 -19 84 -19q50 0 50 33q0 29 -47 29q-22 0 -40 -6l-31 29l58 77q-101 15 -163.5 84.5t-62.5 176.5q0 119 79.5 192t198.5 73q53 0 104.5 -18.5t80.5 -48.5l-95 -110q-13 18 -37.5 29t-49.5 11
q-51 0 -83 -37.5t-32 -90.5t32 -90t85 -37q58 0 89 37l91 -111q-57 -55 -158 -63l-35 -45q7 1 18 1q103 0 103 -83z" />
    <glyph glyph-name="egrave" unicode="&#xe8;" horiz-adv-x="596" 
d="M196 306h211q0 41 -25.5 68t-72.5 27q-46 0 -78 -28t-35 -67zM558 243q0 -27 -1 -39h-361q4 -40 39 -67t80 -27q72 0 110 52l114 -72q-73 -106 -226 -106q-117 0 -195.5 70.5t-78.5 192.5q0 120 76.5 193.5t192.5 73.5q112 0 181 -72.5t69 -198.5zM402 572h-124l-146 144
h166z" />
    <glyph glyph-name="eacute" unicode="&#xe9;" horiz-adv-x="596" 
d="M196 306h211q0 41 -25.5 68t-72.5 27q-46 0 -78 -28t-35 -67zM558 243q0 -27 -1 -39h-361q4 -40 39 -67t80 -27q72 0 110 52l114 -72q-73 -106 -226 -106q-117 0 -195.5 70.5t-78.5 192.5q0 120 76.5 193.5t192.5 73.5q112 0 181 -72.5t69 -198.5zM477 716l-146 -144
h-124l104 144h166z" />
    <glyph glyph-name="ecircumflex" unicode="&#xea;" horiz-adv-x="596" 
d="M196 306h211q0 41 -25.5 68t-72.5 27q-46 0 -78 -28t-35 -67zM558 243q0 -27 -1 -39h-361q4 -40 39 -67t80 -27q72 0 110 52l114 -72q-73 -106 -226 -106q-117 0 -195.5 70.5t-78.5 192.5q0 120 76.5 193.5t192.5 73.5q112 0 181 -72.5t69 -198.5zM511 572h-130l-68 81
l-68 -81h-128l124 144h148z" />
    <glyph glyph-name="edieresis" unicode="&#xeb;" horiz-adv-x="596" 
d="M196 306h211q0 41 -25.5 68t-72.5 27q-46 0 -78 -28t-35 -67zM558 243q0 -27 -1 -39h-361q4 -40 39 -67t80 -27q72 0 110 52l114 -72q-73 -106 -226 -106q-117 0 -195.5 70.5t-78.5 192.5q0 120 76.5 193.5t192.5 73.5q112 0 181 -72.5t69 -198.5zM505 658
q0 -34 -24.5 -58t-58.5 -24q-35 0 -59 24t-24 58q0 33 24 57t59 24q34 0 58.5 -23.5t24.5 -57.5zM288 658q0 -34 -24.5 -58t-59.5 -24q-34 0 -58.5 24t-24.5 58q0 33 24.5 57t58.5 24q35 0 59.5 -23.5t24.5 -57.5z" />
    <glyph glyph-name="igrave" unicode="&#xec;" horiz-adv-x="296" 
d="M230 0h-164v498h164v-498zM228 572h-124l-146 144h166z" />
    <glyph glyph-name="iacute" unicode="&#xed;" horiz-adv-x="296" 
d="M230 0h-164v498h164v-498zM337 716l-146 -144h-124l104 144h166z" />
    <glyph glyph-name="icircumflex" unicode="&#xee;" horiz-adv-x="296" 
d="M230 0h-164v498h164v-498zM348 572h-130l-68 81l-68 -81h-128l124 144h148z" />
    <glyph glyph-name="idieresis" unicode="&#xef;" horiz-adv-x="296" 
d="M230 0h-164v498h164v-498zM342 658q0 -34 -24.5 -58t-58.5 -24q-35 0 -59 24t-24 58q0 33 24 57t59 24q34 0 58.5 -23.5t24.5 -57.5zM125 658q0 -34 -24.5 -58t-59.5 -24q-34 0 -58.5 24t-24.5 58q0 33 24.5 57t58.5 24q35 0 59.5 -23.5t24.5 -57.5z" />
    <glyph glyph-name="eth" unicode="&#xf0;" horiz-adv-x="632" 
d="M593 282q0 -137 -76 -217.5t-202 -80.5q-117 0 -196.5 73.5t-79.5 192.5q0 117 76 188.5t188 71.5q49 0 82 -25l2 1q-51 75 -98 114l-108 -48l-80 70l109 47q-25 25 -75 59l127 71q34 -25 86 -72l113 50l87 -71l-121 -52q166 -180 166 -372zM435 250q0 51 -32.5 89
t-87.5 38t-86.5 -38t-31.5 -89q0 -52 32 -90t87 -38t87 38t32 90z" />
    <glyph glyph-name="ntilde" unicode="&#xf1;" horiz-adv-x="616" 
d="M556 0h-165v272q0 105 -74 105q-42 0 -65 -31t-23 -76v-270h-165v498h159v-69h2q18 35 58.5 59t90.5 24q93 0 137.5 -59.5t44.5 -144.5v-308zM497 708q-7 -58 -34.5 -95t-78.5 -37q-36 0 -81 21q-39 20 -63 20q-31 0 -42 -40h-72q17 130 113 130q37 0 80 -20t65 -20
q32 0 42 41h71z" />
    <glyph glyph-name="ograve" unicode="&#xf2;" horiz-adv-x="632" 
d="M592 251q0 -119 -80 -193t-197 -74q-116 0 -196 74t-80 193t80 191t196 72q117 0 197 -72t80 -191zM434 251q0 51 -32 89t-87 38t-86 -37.5t-31 -89.5t31.5 -90.5t86.5 -38.5t86.5 38.5t31.5 90.5zM397 572h-124l-146 144h166z" />
    <glyph glyph-name="oacute" unicode="&#xf3;" horiz-adv-x="632" 
d="M592 251q0 -119 -80 -193t-197 -74q-116 0 -196 74t-80 193t80 191t196 72q117 0 197 -72t80 -191zM434 251q0 51 -32 89t-87 38t-86 -37.5t-31 -89.5t31.5 -90.5t86.5 -38.5t86.5 38.5t31.5 90.5zM500 716l-146 -144h-124l104 144h166z" />
    <glyph glyph-name="ocircumflex" unicode="&#xf4;" horiz-adv-x="632" 
d="M592 251q0 -119 -80 -193t-197 -74q-116 0 -196 74t-80 193t80 191t196 72q117 0 197 -72t80 -191zM434 251q0 51 -32 89t-87 38t-86 -37.5t-31 -89.5t31.5 -90.5t86.5 -38.5t86.5 38.5t31.5 90.5zM507 576h-126l-66 79l-66 -79h-125l121 140h144z" />
    <glyph glyph-name="otilde" unicode="&#xf5;" horiz-adv-x="632" 
d="M592 251q0 -119 -80 -193t-197 -74q-116 0 -196 74t-80 193t80 191t196 72q117 0 197 -72t80 -191zM434 251q0 51 -32 89t-87 38t-86 -37.5t-31 -89.5t31.5 -90.5t86.5 -38.5t86.5 38.5t31.5 90.5zM501 708q-7 -58 -34.5 -95t-78.5 -37q-36 0 -81 21q-39 20 -63 20
q-31 0 -42 -40h-72q17 130 113 130q37 0 80 -20t65 -20q32 0 42 41h71z" />
    <glyph glyph-name="odieresis" unicode="&#xf6;" horiz-adv-x="632" 
d="M592 251q0 -119 -80 -193t-197 -74q-116 0 -196 74t-80 193t80 191t196 72q117 0 197 -72t80 -191zM434 251q0 51 -32 89t-87 38t-86 -37.5t-31 -89.5t31.5 -90.5t86.5 -38.5t86.5 38.5t31.5 90.5zM507 658q0 -34 -24.5 -58t-58.5 -24q-35 0 -59 24t-24 58q0 33 24 57
t59 24q34 0 58.5 -23.5t24.5 -57.5zM290 658q0 -34 -24.5 -58t-59.5 -24q-34 0 -58.5 24t-24.5 58q0 33 24.5 57t58.5 24q35 0 59.5 -23.5t24.5 -57.5z" />
    <glyph glyph-name="divide" unicode="&#xf7;" horiz-adv-x="666" 
d="M246 489q0 34 26 59t61 25t60.5 -25t25.5 -59q0 -35 -25.5 -60t-60.5 -25t-61 25t-26 60zM246 117q0 34 26 59t61 25t60.5 -25t25.5 -59q0 -35 -25.5 -60t-60.5 -25t-61 25.5t-26 59.5zM586 240h-507v127h507v-127z" />
    <glyph glyph-name="oslash" unicode="&#xf8;" horiz-adv-x="632" 
d="M607 480l-70 -69q55 -64 55 -161q0 -118 -80 -192t-197 -74q-93 0 -157 47l-75 -74l-59 58l72 71q-57 65 -57 164q0 118 79.5 191.5t196.5 73.5q94 0 160 -49l72 72zM372 365q-24 19 -59 19q-56 0 -88.5 -38.5t-32.5 -91.5q0 -37 14 -57zM436 248q0 36 -13 58l-167 -168
q22 -20 61 -20q56 0 87.5 38.5t31.5 91.5z" />
    <glyph glyph-name="ugrave" unicode="&#xf9;" horiz-adv-x="614" 
d="M550 0h-158v69h-2q-18 -35 -59 -59t-91 -24q-93 0 -137 59.5t-44 144.5v308h165v-270q0 -106 74 -106q41 0 64.5 31t23.5 76v269h164v-498zM408 572h-124l-146 144h166z" />
    <glyph glyph-name="uacute" unicode="&#xfa;" horiz-adv-x="614" 
d="M550 0h-158v69h-2q-18 -35 -59 -59t-91 -24q-93 0 -137 59.5t-44 144.5v308h165v-270q0 -106 74 -106q41 0 64.5 31t23.5 76v269h164v-498zM489 716l-146 -144h-124l104 144h166z" />
    <glyph glyph-name="ucircumflex" unicode="&#xfb;" horiz-adv-x="614" 
d="M550 0h-158v69h-2q-18 -35 -59 -59t-91 -24q-93 0 -137 59.5t-44 144.5v308h165v-270q0 -106 74 -106q41 0 64.5 31t23.5 76v269h164v-498zM505 572h-130l-68 81l-68 -81h-128l124 144h148z" />
    <glyph glyph-name="udieresis" unicode="&#xfc;" horiz-adv-x="614" 
d="M550 0h-158v69h-2q-18 -35 -59 -59t-91 -24q-93 0 -137 59.5t-44 144.5v308h165v-270q0 -106 74 -106q41 0 64.5 31t23.5 76v269h164v-498zM499 658q0 -34 -24.5 -58t-58.5 -24q-35 0 -59 24t-24 58q0 33 24 57t59 24q34 0 58.5 -23.5t24.5 -57.5zM282 658
q0 -34 -24.5 -58t-59.5 -24q-34 0 -58.5 24t-24.5 58q0 33 24.5 57t58.5 24q35 0 59.5 -23.5t24.5 -57.5z" />
    <glyph glyph-name="yacute" unicode="&#xfd;" horiz-adv-x="567" 
d="M568 498l-223 -573q-32 -84 -81 -124.5t-138 -40.5q-46 0 -90 11l18 138q29 -9 53 -9q36 0 53.5 15.5t30.5 51.5l16 41l-208 490h182l111 -320h3l99 320h174zM488 716l-146 -144h-124l104 144h166z" />
    <glyph glyph-name="thorn" unicode="&#xfe;" horiz-adv-x="659" 
d="M619 251q0 -110 -64 -187.5t-173 -77.5q-46 0 -87.5 19t-63.5 51h-2v-296h-163v996h163v-311h3q57 67 152 67q105 0 170 -76.5t65 -184.5zM461 251q0 52 -31.5 89.5t-86.5 37.5q-53 0 -86.5 -39t-33.5 -89q0 -51 33.5 -89.5t86.5 -38.5q55 0 86.5 38t31.5 91z" />
    <glyph glyph-name="ydieresis" unicode="&#xff;" horiz-adv-x="567" 
d="M568 498l-223 -573q-32 -84 -81 -124.5t-138 -40.5q-46 0 -90 11l18 138q29 -9 53 -9q36 0 53.5 15.5t30.5 51.5l16 41l-208 490h182l111 -320h3l99 320h174zM485 658q0 -34 -24.5 -58t-58.5 -24q-35 0 -59 24t-24 58q0 33 24 57t59 24q34 0 58.5 -23.5t24.5 -57.5z
M268 658q0 -34 -24.5 -58t-59.5 -24q-34 0 -58.5 24t-24.5 58q0 33 24.5 57t58.5 24q35 0 59.5 -23.5t24.5 -57.5z" />
    <glyph glyph-name="Amacron" unicode="&#x100;" horiz-adv-x="729" 
d="M743 0h-190l-55 139h-274l-52 -139h-186l297 708h166zM451 276l-88 243l-90 -243h178zM532 793h-336v86h336v-86z" />
    <glyph glyph-name="amacron" unicode="&#x101;" horiz-adv-x="566" 
d="M358 200v17h-21q-153 0 -153 -68q0 -26 21 -38.5t50 -12.5q49 0 76 27.5t27 74.5zM140 341l-83 89q89 84 222 84q123 0 176 -62.5t53 -200.5v-251h-150v53h-3q-18 -30 -57 -47.5t-84 -17.5q-44 0 -82.5 13.5t-68.5 50.5t-30 92q0 168 320 168v8q0 35 -25 53.5t-65 18.5
q-68 0 -123 -51zM454 601h-336v86h336v-86z" />
    <glyph glyph-name="Abreve" unicode="&#x102;" horiz-adv-x="729" 
d="M743 0h-190l-55 139h-274l-52 -139h-186l297 708h166zM451 276l-88 243l-90 -243h178zM537 908q-6 -74 -53 -109t-122 -35q-74 0 -121 35t-52 109h84q9 -55 90 -55q39 0 61.5 11.5t28.5 43.5h84z" />
    <glyph glyph-name="abreve" unicode="&#x103;" horiz-adv-x="566" 
d="M358 200v17h-21q-153 0 -153 -68q0 -26 21 -38.5t50 -12.5q49 0 76 27.5t27 74.5zM140 341l-83 89q89 84 222 84q123 0 176 -62.5t53 -200.5v-251h-150v53h-3q-18 -30 -57 -47.5t-84 -17.5q-44 0 -82.5 13.5t-68.5 50.5t-30 92q0 168 320 168v8q0 35 -25 53.5t-65 18.5
q-68 0 -123 -51zM460 716q-6 -74 -53 -109t-122 -35q-74 0 -121 35t-52 109h84q6 -29 32 -44q23 -11 58 -11q39 0 61.5 11.5t28.5 43.5h84z" />
    <glyph glyph-name="Aogonek" unicode="&#x104;" horiz-adv-x="729" 
d="M680 -196q-54 -40 -115 -40q-46 0 -79.5 23t-33.5 68q0 71 102 145h-1l-55 139h-274l-52 -139h-186l297 708h166l294 -708h-97q-90 -72 -90 -118q0 -16 10.5 -26t26.5 -10q27 0 55 20zM451 276l-88 243l-90 -243h178z" />
    <glyph glyph-name="aogonek" unicode="&#x105;" horiz-adv-x="566" 
d="M480 -196q-54 -40 -115 -40q-46 0 -79.5 23t-33.5 68q0 40 31.5 78.5t74.5 68.5v51h-3q-18 -30 -57 -47.5t-84 -17.5q-44 0 -82.5 13.5t-68.5 50.5t-30 92q0 168 320 168v8q0 35 -25 53.5t-65 18.5q-68 0 -123 -51l-83 89q89 84 222 84q123 0 176 -62.5t53 -200.5v-251
h-62q-90 -72 -90 -118q0 -16 10.5 -26t26.5 -10q27 0 55 20zM358 200v17h-21q-153 0 -153 -68q0 -26 21 -38.5t50 -12.5q49 0 76 27.5t27 74.5z" />
    <glyph glyph-name="Cacute" unicode="&#x106;" horiz-adv-x="696" 
d="M696 98q-101 -117 -275 -117q-165 0 -273 104.5t-108 269.5q0 167 109.5 269.5t274.5 102.5q77 0 149.5 -27.5t115.5 -76.5l-116 -116q-23 32 -61.5 48.5t-81.5 16.5q-89 0 -146.5 -61.5t-57.5 -155.5q0 -96 56 -156.5t145 -60.5q99 0 150 72zM599 908l-146 -144h-124
l104 144h166z" />
    <glyph glyph-name="cacute" unicode="&#x107;" horiz-adv-x="503" 
d="M502 447l-95 -110q-13 18 -37.5 29t-49.5 11q-51 0 -83 -37.5t-32 -90.5t32 -90t85 -37q58 0 89 37l91 -111q-66 -64 -184 -64q-121 0 -200 72t-79 193q0 119 79.5 192t198.5 73q53 0 104.5 -18.5t80.5 -48.5zM503 716l-146 -144h-124l104 144h166z" />
    <glyph glyph-name="Ccircumflex" unicode="&#x108;" horiz-adv-x="696" 
d="M696 98q-101 -117 -275 -117q-165 0 -273 104.5t-108 269.5q0 167 109.5 269.5t274.5 102.5q77 0 149.5 -27.5t115.5 -76.5l-116 -116q-23 32 -61.5 48.5t-81.5 16.5q-89 0 -146.5 -61.5t-57.5 -155.5q0 -96 56 -156.5t145 -60.5q99 0 150 72zM625 764h-130l-68 81
l-68 -81h-128l124 144h148z" />
    <glyph glyph-name="ccircumflex" unicode="&#x109;" horiz-adv-x="503" 
d="M502 447l-95 -110q-13 18 -37.5 29t-49.5 11q-51 0 -83 -37.5t-32 -90.5t32 -90t85 -37q58 0 89 37l91 -111q-66 -64 -184 -64q-121 0 -200 72t-79 193q0 119 79.5 192t198.5 73q53 0 104.5 -18.5t80.5 -48.5zM516 572h-130l-68 81l-68 -81h-128l124 144h148z" />
    <glyph glyph-name="Cdotaccent" unicode="&#x10a;" horiz-adv-x="696" 
d="M696 98q-101 -117 -275 -117q-165 0 -273 104.5t-108 269.5q0 167 109.5 269.5t274.5 102.5q77 0 149.5 -27.5t115.5 -76.5l-116 -116q-23 32 -61.5 48.5t-81.5 16.5q-89 0 -146.5 -61.5t-57.5 -155.5q0 -96 56 -156.5t145 -60.5q99 0 150 72zM515 849q0 -36 -26 -60.5
t-64 -24.5q-37 0 -63 25t-26 60t26 60.5t63 25.5q38 0 64 -25t26 -61z" />
    <glyph glyph-name="cdotaccent" unicode="&#x10b;" horiz-adv-x="503" 
d="M502 447l-95 -110q-13 18 -37.5 29t-49.5 11q-51 0 -83 -37.5t-32 -90.5t32 -90t85 -37q58 0 89 37l91 -111q-66 -64 -184 -64q-121 0 -200 72t-79 193q0 119 79.5 192t198.5 73q53 0 104.5 -18.5t80.5 -48.5zM410 657q0 -36 -26 -60.5t-64 -24.5q-37 0 -63 25t-26 60
t26 60.5t63 25.5q38 0 64 -25t26 -61z" />
    <glyph glyph-name="Ccaron" unicode="&#x10c;" horiz-adv-x="696" 
d="M696 98q-101 -117 -275 -117q-165 0 -273 104.5t-108 269.5q0 167 109.5 269.5t274.5 102.5q77 0 149.5 -27.5t115.5 -76.5l-116 -116q-23 32 -61.5 48.5t-81.5 16.5q-89 0 -146.5 -61.5t-57.5 -155.5q0 -96 56 -156.5t145 -60.5q99 0 150 72zM624 908l-123 -144h-147
l-124 144h130l68 -81l68 81h128z" />
    <glyph glyph-name="ccaron" unicode="&#x10d;" horiz-adv-x="503" 
d="M502 447l-95 -110q-13 18 -37.5 29t-49.5 11q-51 0 -83 -37.5t-32 -90.5t32 -90t85 -37q58 0 89 37l91 -111q-66 -64 -184 -64q-121 0 -200 72t-79 193q0 119 79.5 192t198.5 73q53 0 104.5 -18.5t80.5 -48.5zM514 716l-123 -144h-147l-124 144h130l68 -81l68 81h128z
" />
    <glyph glyph-name="Dcaron" unicode="&#x10e;" horiz-adv-x="774" 
d="M734 356q0 -90 -34 -160t-91.5 -112t-126.5 -63t-145 -21h-264v708h256q63 0 119.5 -10.5t109.5 -36.5t91.5 -65t61.5 -100.5t23 -139.5zM556 356q0 57 -19 98.5t-52.5 64.5t-73 33t-86.5 10h-85v-414h81q103 0 169 49t66 159zM554 908l-123 -144h-147l-124 144h130
l68 -81l68 81h128z" />
    <glyph glyph-name="dcaron" unicode="&#x10f;" horiz-adv-x="791" 
d="M592 0h-151v65h-2q-24 -37 -68.5 -58t-94.5 -21q-108 0 -172.5 77.5t-64.5 187.5q0 108 65 184.5t170 76.5q95 0 152 -67h2v311h164v-756zM435 250q0 50 -33.5 89t-86.5 39q-55 0 -86.5 -37.5t-31.5 -89.5q0 -53 31.5 -91t86.5 -38q53 0 86.5 38.5t33.5 89.5zM832 708
l-86 -195h-126l67 195h145z" />
    <glyph glyph-name="Dcroat" unicode="&#x110;" horiz-adv-x="774" 
d="M732 356q0 -88 -34 -158.5t-90 -112t-123 -63.5t-139 -22h-272v309h-61v107h61v292h273q78 0 145.5 -20t122 -61t86 -110.5t31.5 -160.5zM557 356q0 101 -61 152t-165 51h-90v-143h181v-107h-181v-159h74q111 0 176.5 50.5t65.5 155.5z" />
    <glyph glyph-name="dcroat" unicode="&#x111;" horiz-adv-x="658" 
d="M592 0h-151v65h-2q-24 -37 -68.5 -58t-94.5 -21q-108 0 -172.5 77.5t-64.5 187.5q0 108 65 184.5t170 76.5q95 0 152 -67h2v125h-149v89h149v97h164v-97h46v-89h-46v-570zM435 250q0 50 -33.5 89t-86.5 39q-55 0 -86.5 -37.5t-31.5 -89.5q0 -53 31.5 -91t86.5 -38
q53 0 86.5 38.5t33.5 89.5z" />
    <glyph glyph-name="Emacron" unicode="&#x112;" horiz-adv-x="607" 
d="M567 0h-494v708h476v-145h-311v-133h294v-137h-294v-147h329v-146zM478 793h-336v86h336v-86z" />
    <glyph glyph-name="emacron" unicode="&#x113;" horiz-adv-x="596" 
d="M196 306h211q0 41 -25.5 68t-72.5 27q-46 0 -78 -28t-35 -67zM558 243q0 -27 -1 -39h-361q4 -40 39 -67t80 -27q72 0 110 52l114 -72q-73 -106 -226 -106q-117 0 -195.5 70.5t-78.5 192.5q0 120 76.5 193.5t192.5 73.5q112 0 181 -72.5t69 -198.5zM480 601h-336v86h336
v-86z" />
    <glyph glyph-name="Ebreve" unicode="&#x114;" horiz-adv-x="607" 
d="M567 0h-494v708h476v-145h-311v-133h294v-137h-294v-147h329v-146zM484 908q-6 -74 -53 -109t-122 -35q-74 0 -121 35t-52 109h84q9 -55 90 -55q39 0 61.5 11.5t28.5 43.5h84z" />
    <glyph glyph-name="ebreve" unicode="&#x115;" horiz-adv-x="596" 
d="M196 306h211q0 41 -25.5 68t-72.5 27q-46 0 -78 -28t-35 -67zM558 243q0 -27 -1 -39h-361q4 -40 39 -67t80 -27q72 0 110 52l114 -72q-73 -106 -226 -106q-117 0 -195.5 70.5t-78.5 192.5q0 120 76.5 193.5t192.5 73.5q112 0 181 -72.5t69 -198.5zM486 716
q-6 -74 -53 -109t-122 -35q-74 0 -121 35t-52 109h84q6 -29 32 -44q23 -11 58 -11q39 0 61.5 11.5t28.5 43.5h84z" />
    <glyph glyph-name="Edotaccent" unicode="&#x116;" horiz-adv-x="607" 
d="M567 0h-494v708h476v-145h-311v-133h294v-137h-294v-147h329v-146zM400 849q0 -36 -26 -60.5t-64 -24.5q-37 0 -63 25t-26 60t26 60.5t63 25.5q38 0 64 -25t26 -61z" />
    <glyph glyph-name="edotaccent" unicode="&#x117;" horiz-adv-x="596" 
d="M196 306h211q0 41 -25.5 68t-72.5 27q-46 0 -78 -28t-35 -67zM558 243q0 -27 -1 -39h-361q4 -40 39 -67t80 -27q72 0 110 52l114 -72q-73 -106 -226 -106q-117 0 -195.5 70.5t-78.5 192.5q0 120 76.5 193.5t192.5 73.5q112 0 181 -72.5t69 -198.5zM401 657
q0 -36 -26 -60.5t-64 -24.5q-37 0 -63 25t-26 60t26 60.5t63 25.5q38 0 64 -25t26 -61z" />
    <glyph glyph-name="Eogonek" unicode="&#x118;" horiz-adv-x="607" 
d="M584 -196q-54 -40 -115 -40q-46 0 -79.5 23t-33.5 68q0 71 102 145h-385v708h476v-145h-311v-133h294v-137h-294v-147h329v-146h-17q-90 -72 -90 -118q0 -16 10.5 -26t26.5 -10q27 0 55 20z" />
    <glyph glyph-name="eogonek" unicode="&#x119;" horiz-adv-x="596" 
d="M434 -196q-54 -40 -115 -40q-46 0 -79.5 23t-33.5 68q0 62 82 130q-108 7 -178.5 77t-70.5 185q0 120 76.5 193.5t192.5 73.5q112 0 181 -72.5t69 -198.5q0 -27 -1 -39h-361q4 -40 39 -67t80 -27q72 0 110 52l114 -72q-51 -76 -149 -97q-80 -68 -80 -111q0 -16 10.5 -26
t26.5 -10q27 0 55 20zM196 306h211q0 41 -25.5 68t-72.5 27q-46 0 -78 -28t-35 -67z" />
    <glyph glyph-name="Ecaron" unicode="&#x11a;" horiz-adv-x="607" 
d="M567 0h-494v708h476v-145h-311v-133h294v-137h-294v-147h329v-146zM508 908l-123 -144h-147l-124 144h130l68 -81l68 81h128z" />
    <glyph glyph-name="ecaron" unicode="&#x11b;" horiz-adv-x="596" 
d="M196 306h211q0 41 -25.5 68t-72.5 27q-46 0 -78 -28t-35 -67zM558 243q0 -27 -1 -39h-361q4 -40 39 -67t80 -27q72 0 110 52l114 -72q-73 -106 -226 -106q-117 0 -195.5 70.5t-78.5 192.5q0 120 76.5 193.5t192.5 73.5q112 0 181 -72.5t69 -198.5zM509 716l-123 -144
h-147l-124 144h130l68 -81l68 81h128z" />
    <glyph glyph-name="Gcircumflex" unicode="&#x11c;" horiz-adv-x="769" 
d="M702 43q-117 -61 -273 -61q-171 0 -280 103.5t-109 269.5q0 167 109.5 269.5t274.5 102.5q82 0 155 -25.5t118 -68.5l-108 -123q-57 66 -159 66q-90 0 -149 -63t-59 -158q0 -100 57 -161.5t159 -61.5q63 0 107 19v129h-135v138h292v-375zM629 764h-130l-68 81l-68 -81
h-128l124 144h148z" />
    <glyph glyph-name="gcircumflex" unicode="&#x11d;" horiz-adv-x="658" 
d="M592 47q0 -142 -78 -214.5t-215 -72.5q-67 0 -137 20.5t-119 57.5l82 117q72 -63 165 -63q70 0 105.5 37.5t35.5 101.5v30h-3q-51 -66 -151 -66q-109 0 -173.5 74t-64.5 182t64.5 184.5t172.5 76.5q107 0 159 -78h2v64h155v-451zM436 252q0 53 -33.5 89.5t-87.5 36.5
t-85.5 -36t-31.5 -90q0 -52 32 -89.5t85 -37.5q55 0 88 37t33 90zM517 572h-130l-68 81l-68 -81h-128l124 144h148z" />
    <glyph glyph-name="Gbreve" unicode="&#x11e;" horiz-adv-x="769" 
d="M702 43q-117 -61 -273 -61q-171 0 -280 103.5t-109 269.5q0 167 109.5 269.5t274.5 102.5q82 0 155 -25.5t118 -68.5l-108 -123q-57 66 -159 66q-90 0 -149 -63t-59 -158q0 -100 57 -161.5t159 -61.5q63 0 107 19v129h-135v138h292v-375zM610 908q-6 -74 -53 -109
t-122 -35q-74 0 -121 35t-52 109h84q9 -55 90 -55q39 0 61.5 11.5t28.5 43.5h84z" />
    <glyph glyph-name="gbreve" unicode="&#x11f;" horiz-adv-x="658" 
d="M592 47q0 -142 -78 -214.5t-215 -72.5q-67 0 -137 20.5t-119 57.5l82 117q72 -63 165 -63q70 0 105.5 37.5t35.5 101.5v30h-3q-51 -66 -151 -66q-109 0 -173.5 74t-64.5 182t64.5 184.5t172.5 76.5q107 0 159 -78h2v64h155v-451zM436 252q0 53 -33.5 89.5t-87.5 36.5
t-85.5 -36t-31.5 -90q0 -52 32 -89.5t85 -37.5q55 0 88 37t33 90zM499 716q-6 -74 -53 -109t-122 -35q-74 0 -121 35t-52 109h84q6 -29 32 -44q23 -11 58 -11q39 0 61.5 11.5t28.5 43.5h84z" />
    <glyph glyph-name="Gdotaccent" unicode="&#x120;" horiz-adv-x="769" 
d="M702 43q-117 -61 -273 -61q-171 0 -280 103.5t-109 269.5q0 167 109.5 269.5t274.5 102.5q82 0 155 -25.5t118 -68.5l-108 -123q-57 66 -159 66q-90 0 -149 -63t-59 -158q0 -100 57 -161.5t159 -61.5q63 0 107 19v129h-135v138h292v-375zM521 849q0 -36 -26 -60.5
t-64 -24.5q-37 0 -63 25t-26 60t26 60.5t63 25.5q38 0 64 -25t26 -61z" />
    <glyph glyph-name="gdotaccent" unicode="&#x121;" horiz-adv-x="658" 
d="M592 47q0 -142 -78 -214.5t-215 -72.5q-67 0 -137 20.5t-119 57.5l82 117q72 -63 165 -63q70 0 105.5 37.5t35.5 101.5v30h-3q-51 -66 -151 -66q-109 0 -173.5 74t-64.5 182t64.5 184.5t172.5 76.5q107 0 159 -78h2v64h155v-451zM436 252q0 53 -33.5 89.5t-87.5 36.5
t-85.5 -36t-31.5 -90q0 -52 32 -89.5t85 -37.5q55 0 88 37t33 90zM411 657q0 -36 -26 -60.5t-64 -24.5q-37 0 -63 25t-26 60t26 60.5t63 25.5q38 0 64 -25t26 -61z" />
    <glyph glyph-name="Gcommaaccent" unicode="&#x122;" horiz-adv-x="769" 
d="M702 43q-117 -61 -273 -61q-171 0 -280 103.5t-109 269.5q0 167 109.5 269.5t274.5 102.5q82 0 155 -25.5t118 -68.5l-108 -123q-57 66 -159 66q-90 0 -149 -63t-59 -158q0 -100 57 -161.5t159 -61.5q63 0 107 19v129h-135v138h292v-375zM506 -45l-86 -195h-126l67 195
h145z" />
    <glyph glyph-name="gcommaaccent" unicode="&#x123;" horiz-adv-x="658" 
d="M592 47q0 -142 -78 -214.5t-215 -72.5q-67 0 -137 20.5t-119 57.5l82 117q72 -63 165 -63q70 0 105.5 37.5t35.5 101.5v30h-3q-51 -66 -151 -66q-109 0 -173.5 74t-64.5 182t64.5 184.5t172.5 76.5q107 0 159 -78h2v64h155v-451zM436 252q0 53 -33.5 89.5t-87.5 36.5
t-85.5 -36t-31.5 -90q0 -52 32 -89.5t85 -37.5q55 0 88 37t33 90zM247 572l86 195h126l-67 -195h-145z" />
    <glyph glyph-name="Hcircumflex" unicode="&#x124;" horiz-adv-x="764" 
d="M691 0h-171v296h-276v-296h-171v708h171v-268h276v268h171v-708zM582 764h-130l-68 81l-68 -81h-128l124 144h148z" />
    <glyph glyph-name="hcircumflex" unicode="&#x125;" horiz-adv-x="617" 
d="M557 0h-165v270q0 105 -73 105q-41 0 -65 -30t-24 -76v-269h-164v756h164v-321h2q18 32 56 54.5t87 22.5q94 0 138 -59.5t44 -144.5v-308zM512 796h-130l-68 81l-68 -81h-128l124 144h148z" />
    <glyph glyph-name="Hbar" unicode="&#x126;" horiz-adv-x="764" 
d="M691 0h-171v296h-276v-296h-171v708h171v-119h276v119h171v-708zM244 440h276v60h-276v-60z" />
    <glyph glyph-name="hbar" unicode="&#x127;" horiz-adv-x="617" 
d="M557 0h-165v270q0 105 -73 105q-41 0 -65 -30t-24 -76v-269h-164v570h-46v89h46v97h164v-97h149v-89h-149v-135h2q18 32 56 54.5t87 22.5q94 0 138 -59.5t44 -144.5v-308z" />
    <glyph glyph-name="Itilde" unicode="&#x128;" horiz-adv-x="318" 
d="M245 0h-172v708h172v-708zM345 900q-7 -58 -34.5 -95t-78.5 -37q-36 0 -81 21q-39 20 -63 20q-31 0 -42 -40h-72q17 130 113 130q37 0 80 -20t65 -20q32 0 42 41h71z" />
    <glyph glyph-name="itilde" unicode="&#x129;" horiz-adv-x="296" 
d="M230 0h-164v498h164v-498zM335 708q-7 -58 -34.5 -95t-78.5 -37q-36 0 -81 21q-39 20 -63 20q-31 0 -42 -40h-72q17 130 113 130q37 0 80 -20t65 -20q32 0 42 41h71z" />
    <glyph glyph-name="Imacron" unicode="&#x12a;" horiz-adv-x="318" 
d="M245 0h-172v708h172v-708zM326 793h-336v86h336v-86z" />
    <glyph glyph-name="imacron" unicode="&#x12b;" horiz-adv-x="296" 
d="M230 0h-164v498h164v-498zM318 601h-336v86h336v-86z" />
    <glyph glyph-name="Ibreve" unicode="&#x12c;" horiz-adv-x="318" 
d="M245 0h-172v708h172v-708zM333 908q-6 -74 -53 -109t-122 -35q-74 0 -121 35t-52 109h84q9 -55 90 -55q39 0 61.5 11.5t28.5 43.5h84z" />
    <glyph glyph-name="ibreve" unicode="&#x12d;" horiz-adv-x="296" 
d="M230 0h-164v498h164v-498zM322 716q-6 -74 -53 -109t-122 -35q-74 0 -121 35t-52 109h84q6 -29 32 -44q23 -11 58 -11q39 0 61.5 11.5t28.5 43.5h84z" />
    <glyph glyph-name="Iogonek" unicode="&#x12e;" horiz-adv-x="318" 
d="M268 -196q-54 -40 -115 -40q-46 0 -79.5 23t-33.5 68q0 71 102 145h-69v708h172v-708h-11q-90 -72 -90 -118q0 -16 10.5 -26t26.5 -10q27 0 55 20z" />
    <glyph glyph-name="iogonek" unicode="&#x12f;" horiz-adv-x="296" 
d="M249 -196q-54 -40 -115 -40q-46 0 -79.5 23t-33.5 68q0 71 102 145h-57v498h164v-498h-15q-90 -72 -90 -118q0 -16 10.5 -26t26.5 -10q27 0 55 20zM242 657q0 -38 -27.5 -64t-66.5 -26t-66.5 26.5t-27.5 63.5q0 36 27.5 63t66.5 27t66.5 -26.5t27.5 -63.5z" />
    <glyph glyph-name="Idotaccent" unicode="&#x130;" horiz-adv-x="318" 
d="M245 0h-172v708h172v-708zM249 849q0 -36 -26 -60.5t-64 -24.5q-37 0 -63 25t-26 60t26 60.5t63 25.5q38 0 64 -25t26 -61z" />
    <glyph glyph-name="dotlessi" unicode="&#x131;" horiz-adv-x="296" 
d="M230 0h-164v498h164v-498z" />
    <glyph glyph-name="IJ" unicode="&#x132;" horiz-adv-x="837" 
d="M245 0h-172v708h172v-708zM768 242q0 -37 -5.5 -70.5t-21 -69.5t-40.5 -62t-67.5 -42.5t-98.5 -16.5q-87 0 -148.5 46t-81.5 120l151 51q7 -28 25.5 -45t45.5 -17q39 0 54 27t15 78v467h172v-466z" />
    <glyph glyph-name="ij" unicode="&#x133;" horiz-adv-x="589" 
d="M242 657q0 -38 -27.5 -64t-66.5 -26t-66.5 26.5t-27.5 63.5q0 36 27.5 63t66.5 27t66.5 -26.5t27.5 -63.5zM230 0h-164v498h164v-498zM535 657q0 -38 -27.5 -64t-66.5 -26t-66.5 26.5t-27.5 63.5q0 36 27.5 63t66.5 27t66.5 -26.5t27.5 -63.5zM523 -13q0 -50 -9 -88
t-30 -71t-61.5 -50.5t-98.5 -17.5q-42 0 -71 8l11 137q15 -5 35 -5q34 0 47 22.5t13 64.5v511h164v-511z" />
    <glyph glyph-name="Jcircumflex" unicode="&#x134;" horiz-adv-x="529" 
d="M460 242q0 -37 -5.5 -70.5t-21 -69.5t-40.5 -62t-67.5 -42.5t-98.5 -16.5q-87 0 -148.5 46t-81.5 120l151 51q7 -28 25.5 -45t45.5 -17q39 0 54 27t15 78v467h172v-466zM570 764h-130l-68 81l-68 -81h-128l124 144h148z" />
    <glyph glyph-name="jcircumflex" unicode="&#x135;" horiz-adv-x="299" 
d="M233 -13q0 -50 -9 -88t-30 -71t-61.5 -50.5t-98.5 -17.5q-42 0 -71 8l11 137q15 -5 35 -5q34 0 47 22.5t13 64.5v511h164v-511zM346 572h-130l-68 81l-68 -81h-128l124 144h148z" />
    <glyph glyph-name="Kcommaaccent" unicode="&#x136;" horiz-adv-x="711" 
d="M729 0h-223l-263 326h-2v-326h-168v708h168v-288h3l253 288h214l-305 -326zM443 -45l-86 -195h-126l67 195h145z" />
    <glyph glyph-name="kcommaaccent" unicode="&#x137;" horiz-adv-x="595" 
d="M399 273l200 -273h-203l-163 239h-3v-239h-165v756h165v-460h3l159 202h199zM385 -45l-86 -195h-126l67 195h145z" />
    <glyph glyph-name="kgreenlandic" unicode="&#x138;" horiz-adv-x="595" 
d="M399 273l200 -273h-203l-163 239h-3v-239h-165v498h165v-202h3l159 202h199z" />
    <glyph glyph-name="Lacute" unicode="&#x139;" horiz-adv-x="526" 
d="M519 0h-446v708h172v-559h274v-149zM365 908l-146 -144h-124l104 144h166z" />
    <glyph glyph-name="lacute" unicode="&#x13a;" horiz-adv-x="298" 
d="M232 0h-166v756h166v-756zM336 936l-146 -144h-124l104 144h166z" />
    <glyph glyph-name="Lcommaaccent" unicode="&#x13b;" horiz-adv-x="526" 
d="M519 0h-446v708h172v-559h274v-149zM366 -45l-86 -195h-126l67 195h145z" />
    <glyph glyph-name="lcommaaccent" unicode="&#x13c;" horiz-adv-x="298" 
d="M232 0h-166v756h166v-756zM223 -45l-86 -195h-126l67 195h145z" />
    <glyph glyph-name="Lcaron" unicode="&#x13d;" horiz-adv-x="526" 
d="M519 0h-446v708h172v-559h274v-149zM486 708l-86 -195h-126l67 195h145z" />
    <glyph glyph-name="lcaron" unicode="&#x13e;" horiz-adv-x="432" 
d="M232 0h-166v756h166v-756zM473 708l-86 -195h-126l67 195h145z" />
    <glyph glyph-name="Ldot" unicode="&#x13f;" horiz-adv-x="526" 
d="M519 0h-446v708h172v-559h274v-149zM478 437q0 -36 -26 -60.5t-64 -24.5q-37 0 -63 25t-26 60t26 60.5t63 25.5q38 0 64 -25t26 -61z" />
    <glyph glyph-name="ldot" unicode="&#x140;" horiz-adv-x="448" 
d="M232 0h-166v756h166v-756zM448 467q0 -36 -26 -60.5t-64 -24.5q-37 0 -63 25t-26 60t26 60.5t63 25.5q38 0 64 -25t26 -61z" />
    <glyph glyph-name="Lslash" unicode="&#x141;" horiz-adv-x="526" 
d="M519 0h-446v177l-64 -56v142l64 56v389h172v-262l191 167v-141l-191 -167v-156h274v-149z" />
    <glyph glyph-name="lslash" unicode="&#x142;" horiz-adv-x="298" 
d="M290 454l-58 -56v-398h-166v267l-58 -56v143l58 57v345h166v-217l58 57v-142z" />
    <glyph glyph-name="Nacute" unicode="&#x143;" horiz-adv-x="790" 
d="M717 0h-194l-285 463h-3l4 -463h-166v708h195l284 -462h3l-4 462h166v-708zM588 908l-146 -144h-124l104 144h166z" />
    <glyph glyph-name="nacute" unicode="&#x144;" horiz-adv-x="616" 
d="M556 0h-165v272q0 105 -74 105q-42 0 -65 -31t-23 -76v-270h-165v498h159v-69h2q18 35 58.5 59t90.5 24q93 0 137.5 -59.5t44.5 -144.5v-308zM484 716l-146 -144h-124l104 144h166z" />
    <glyph glyph-name="Ncommaaccent" unicode="&#x145;" horiz-adv-x="790" 
d="M717 0h-194l-285 463h-3l4 -463h-166v708h195l284 -462h3l-4 462h166v-708zM465 -45l-86 -195h-126l67 195h145z" />
    <glyph glyph-name="ncommaaccent" unicode="&#x146;" horiz-adv-x="616" 
d="M556 0h-165v272q0 105 -74 105q-42 0 -65 -31t-23 -76v-270h-165v498h159v-69h2q18 35 58.5 59t90.5 24q93 0 137.5 -59.5t44.5 -144.5v-308zM379 -45l-86 -195h-126l67 195h145z" />
    <glyph glyph-name="Ncaron" unicode="&#x147;" horiz-adv-x="790" 
d="M717 0h-194l-285 463h-3l4 -463h-166v708h195l284 -462h3l-4 462h166v-708zM595 908l-123 -144h-147l-124 144h130l68 -81l68 81h128z" />
    <glyph glyph-name="ncaron" unicode="&#x148;" horiz-adv-x="616" 
d="M556 0h-165v272q0 105 -74 105q-42 0 -65 -31t-23 -76v-270h-165v498h159v-69h2q18 35 58.5 59t90.5 24q93 0 137.5 -59.5t44.5 -144.5v-308zM507 716l-123 -144h-147l-124 144h130l68 -81l68 81h128z" />
    <glyph glyph-name="Eng" unicode="&#x14a;" horiz-adv-x="790" 
d="M717 -13q0 -50 -9 -88t-30 -71t-61.5 -50.5t-98.5 -17.5q-42 0 -71 8l11 137q15 -5 35 -5q34 0 47 22.5t13 64.5v5l-315 471h-3l4 -463h-166v708h195l284 -433h3l-4 433h166v-721z" />
    <glyph glyph-name="eng" unicode="&#x14b;" horiz-adv-x="616" 
d="M556 -13q0 -50 -9 -88t-30 -71t-61.5 -50.5t-98.5 -17.5q-42 0 -71 8l11 137q15 -5 35 -5q34 0 46.5 22.5t12.5 64.5v285q0 105 -74 105q-42 0 -65 -31t-23 -76v-270h-165v498h159v-69h2q18 35 58.5 59t90.5 24q93 0 137.5 -59.5t44.5 -144.5v-321z" />
    <glyph glyph-name="Omacron" unicode="&#x14c;" horiz-adv-x="851" 
d="M811 357q0 -167 -109 -271.5t-277 -104.5q-167 0 -276 104.5t-109 271.5q0 168 108.5 269t276.5 101q169 0 277.5 -101t108.5 -269zM628 357q0 94 -57 155t-146 61t-145.5 -61t-56.5 -155q0 -96 56.5 -158t145.5 -62t146 62t57 158zM591 793h-336v86h336v-86z" />
    <glyph glyph-name="omacron" unicode="&#x14d;" horiz-adv-x="632" 
d="M592 251q0 -119 -80 -193t-197 -74q-116 0 -196 74t-80 193t80 191t196 72q117 0 197 -72t80 -191zM434 251q0 51 -32 89t-87 38t-86 -37.5t-31 -89.5t31.5 -90.5t86.5 -38.5t86.5 38.5t31.5 90.5zM483 601h-336v86h336v-86z" />
    <glyph glyph-name="Obreve" unicode="&#x14e;" horiz-adv-x="851" 
d="M811 357q0 -167 -109 -271.5t-277 -104.5q-167 0 -276 104.5t-109 271.5q0 168 108.5 269t276.5 101q169 0 277.5 -101t108.5 -269zM628 357q0 94 -57 155t-146 61t-145.5 -61t-56.5 -155q0 -96 56.5 -158t145.5 -62t146 62t57 158zM598 908q-6 -74 -53 -109t-122 -35
q-74 0 -121 35t-52 109h84q9 -55 90 -55q39 0 61.5 11.5t28.5 43.5h84z" />
    <glyph glyph-name="obreve" unicode="&#x14f;" horiz-adv-x="632" 
d="M592 251q0 -119 -80 -193t-197 -74q-116 0 -196 74t-80 193t80 191t196 72q117 0 197 -72t80 -191zM434 251q0 51 -32 89t-87 38t-86 -37.5t-31 -89.5t31.5 -90.5t86.5 -38.5t86.5 38.5t31.5 90.5zM488 716q-6 -74 -53 -109t-122 -35q-74 0 -121 35t-52 109h84
q6 -29 32 -44q23 -11 58 -11q39 0 61.5 11.5t28.5 43.5h84z" />
    <glyph glyph-name="Ohungarumlaut" unicode="&#x150;" horiz-adv-x="851" 
d="M811 357q0 -167 -109 -271.5t-277 -104.5q-167 0 -276 104.5t-109 271.5q0 168 108.5 269t276.5 101q169 0 277.5 -101t108.5 -269zM628 357q0 94 -57 155t-146 61t-145.5 -61t-56.5 -155q0 -96 56.5 -158t145.5 -62t146 62t57 158zM735 908l-146 -144h-124l104 144h166z
M515 908l-146 -144h-124l104 144h166z" />
    <glyph glyph-name="ohungarumlaut" unicode="&#x151;" horiz-adv-x="632" 
d="M592 251q0 -119 -80 -193t-197 -74q-116 0 -196 74t-80 193t80 191t196 72q117 0 197 -72t80 -191zM434 251q0 51 -32 89t-87 38t-86 -37.5t-31 -89.5t31.5 -90.5t86.5 -38.5t86.5 38.5t31.5 90.5zM633 716l-146 -144h-124l104 144h166zM413 716l-146 -144h-124l104 144
h166z" />
    <glyph glyph-name="OE" unicode="&#x152;" horiz-adv-x="1019" 
d="M979 0h-537q-62 0 -119 12t-109 39t-90.5 67.5t-61 101t-22.5 135.5q0 93 34 163.5t92.5 110.5t127.5 59.5t148 19.5h520v-145h-298v-133h281v-137h-281v-147h315v-146zM501 146v417h-46q-48 0 -87.5 -10t-73.5 -33t-53 -66t-19 -102q0 -105 66 -155.5t163 -50.5h50z" />
    <glyph glyph-name="oe" unicode="&#x153;" horiz-adv-x="973" 
d="M198 251q0 -52 31 -90.5t86 -38.5t86.5 38.5t31.5 90.5q0 51 -31.5 89t-86.5 38t-86 -38t-31 -89zM573 306h211q0 41 -25.5 68t-72.5 27q-46 0 -78 -28t-35 -67zM802 162l113 -72q-72 -106 -225 -106q-62 0 -112.5 22.5t-78.5 60.5q-65 -83 -186 -83q-116 0 -195 73.5
t-79 193.5q0 119 79 191t195 72q59 0 108.5 -24t78.5 -63q73 87 187 87q111 0 179.5 -73t68.5 -198q0 -27 -1 -39h-361q5 -41 39.5 -67.5t79.5 -26.5q72 0 110 52z" />
    <glyph glyph-name="Racute" unicode="&#x154;" horiz-adv-x="663" 
d="M652 0h-200l-153 281h-58v-281h-168v708h270q54 0 100 -11t86 -35t62.5 -67t22.5 -101q0 -70 -39 -120t-108 -71zM445 491q0 79 -114 79h-91v-165h81q124 0 124 86zM496 908l-146 -144h-124l104 144h166z" />
    <glyph glyph-name="racute" unicode="&#x155;" horiz-adv-x="396" 
d="M394 508l-7 -144q-19 5 -42 5q-59 0 -88 -36.5t-29 -76.5v-256h-164v498h158v-72h2q19 39 55 62.5t80 23.5q24 0 35 -4zM377 716l-146 -144h-124l104 144h166z" />
    <glyph glyph-name="Rcommaaccent" unicode="&#x156;" horiz-adv-x="663" 
d="M652 0h-200l-153 281h-58v-281h-168v708h270q54 0 100 -11t86 -35t62.5 -67t22.5 -101q0 -70 -39 -120t-108 -71zM445 491q0 79 -114 79h-91v-165h81q124 0 124 86zM413 -45l-86 -195h-126l67 195h145z" />
    <glyph glyph-name="rcommaaccent" unicode="&#x157;" horiz-adv-x="396" 
d="M394 508l-7 -144q-19 5 -42 5q-59 0 -88 -36.5t-29 -76.5v-256h-164v498h158v-72h2q19 39 55 62.5t80 23.5q24 0 35 -4zM224 -46l-86 -195h-126l67 195h145z" />
    <glyph glyph-name="Rcaron" unicode="&#x158;" horiz-adv-x="663" 
d="M652 0h-200l-153 281h-58v-281h-168v708h270q54 0 100 -11t86 -35t62.5 -67t22.5 -101q0 -70 -39 -120t-108 -71zM445 491q0 79 -114 79h-91v-165h81q124 0 124 86zM517 908l-123 -144h-147l-124 144h130l68 -81l68 81h128z" />
    <glyph glyph-name="rcaron" unicode="&#x159;" horiz-adv-x="396" 
d="M394 508l-7 -144q-19 5 -42 5q-59 0 -88 -36.5t-29 -76.5v-256h-164v498h158v-72h2q19 39 55 62.5t80 23.5q24 0 35 -4zM425 716l-123 -144h-147l-124 144h130l68 -81l68 81h128z" />
    <glyph glyph-name="Sacute" unicode="&#x15a;" horiz-adv-x="591" 
d="M556 639l-109 -115q-21 27 -56.5 44t-69.5 17q-40 0 -69.5 -16.5t-29.5 -54.5q0 -17 7 -29.5t23.5 -22t32.5 -16t46 -15.5q39 -13 61 -21t56.5 -26.5t53.5 -38.5t34 -53.5t15 -73.5q0 -115 -78.5 -175.5t-192.5 -60.5q-77 0 -148 27t-117 75l112 114q26 -33 68.5 -54
t84.5 -21q43 0 70.5 18.5t27.5 58.5q0 16 -7.5 28.5t-16.5 21t-32 18.5t-39 15.5t-52 17.5q-39 13 -67 27t-56 37t-43 58t-15 81q0 56 24 100.5t64 70t87.5 38.5t98.5 13q62 0 124.5 -22.5t107.5 -64.5zM487 908l-146 -144h-124l104 144h166z" />
    <glyph glyph-name="sacute" unicode="&#x15b;" horiz-adv-x="472" 
d="M447 444l-90 -93q-47 45 -104 45q-26 0 -44 -10t-18 -30t19 -29t72 -21q159 -36 159 -152q0 -87 -62.5 -128.5t-150.5 -41.5q-62 0 -120.5 20t-96.5 57l92 97q51 -56 122 -56q24 0 41.5 10.5t17.5 32.5t-21.5 33t-77.5 24q-145 34 -145 145q0 82 63 124.5t144 42.5
q125 0 200 -70zM424 716l-146 -144h-124l104 144h166z" />
    <glyph glyph-name="Scircumflex" unicode="&#x15c;" horiz-adv-x="591" 
d="M556 639l-109 -115q-21 27 -56.5 44t-69.5 17q-40 0 -69.5 -16.5t-29.5 -54.5q0 -17 7 -29.5t23.5 -22t32.5 -16t46 -15.5q39 -13 61 -21t56.5 -26.5t53.5 -38.5t34 -53.5t15 -73.5q0 -115 -78.5 -175.5t-192.5 -60.5q-77 0 -148 27t-117 75l112 114q26 -33 68.5 -54
t84.5 -21q43 0 70.5 18.5t27.5 58.5q0 16 -7.5 28.5t-16.5 21t-32 18.5t-39 15.5t-52 17.5q-39 13 -67 27t-56 37t-43 58t-15 81q0 56 24 100.5t64 70t87.5 38.5t98.5 13q62 0 124.5 -22.5t107.5 -64.5zM518 764h-130l-68 81l-68 -81h-128l124 144h148z" />
    <glyph glyph-name="scircumflex" unicode="&#x15d;" horiz-adv-x="472" 
d="M447 444l-90 -93q-47 45 -104 45q-26 0 -44 -10t-18 -30t19 -29t72 -21q159 -36 159 -152q0 -87 -62.5 -128.5t-150.5 -41.5q-62 0 -120.5 20t-96.5 57l92 97q51 -56 122 -56q24 0 41.5 10.5t17.5 32.5t-21.5 33t-77.5 24q-145 34 -145 145q0 82 63 124.5t144 42.5
q125 0 200 -70zM445 572h-130l-68 81l-68 -81h-128l124 144h148z" />
    <glyph glyph-name="Scedilla" unicode="&#x15e;" horiz-adv-x="591" 
d="M417 -142q0 -52 -44.5 -75t-102.5 -23q-67 0 -119 25l27 60q40 -19 84 -19q50 0 50 33q0 29 -47 29q-22 0 -40 -6l-31 29l54 72q-150 12 -233 101l112 114q26 -33 68.5 -54t84.5 -21q43 0 70.5 18.5t27.5 58.5q0 16 -7.5 28.5t-16.5 21t-32 18.5t-39 15.5t-52 17.5
q-39 13 -67 27t-56 37t-43 58t-15 81q0 56 24 100.5t64 70t87.5 38.5t98.5 13q62 0 124.5 -22.5t107.5 -64.5l-109 -115q-21 27 -56.5 44t-69.5 17q-40 0 -69.5 -16.5t-29.5 -54.5q0 -17 7 -29.5t23.5 -22t32.5 -16t46 -15.5q39 -13 61 -21t56.5 -26.5t53.5 -38.5t34 -53.5
t15 -73.5q0 -102 -62 -161t-158 -71l-35 -46q7 1 18 1q103 0 103 -83z" />
    <glyph glyph-name="scedilla" unicode="&#x15f;" horiz-adv-x="472" 
d="M363 -142q0 -52 -44.5 -75t-102.5 -23q-67 0 -119 25l27 60q40 -19 84 -19q50 0 50 33q0 29 -47 29q-22 0 -40 -6l-31 29l56 75q-119 10 -185 75l92 97q51 -56 122 -56q24 0 41.5 10.5t17.5 32.5t-21.5 33t-77.5 24q-145 34 -145 145q0 82 63 125t144 43q124 0 200 -71
l-90 -93q-47 45 -104 45q-26 0 -44 -10t-18 -30t19 -29t72 -21q159 -36 159 -152q0 -74 -46 -115t-116 -51l-37 -48q7 1 18 1q103 0 103 -83z" />
    <glyph glyph-name="Scaron" unicode="&#x160;" horiz-adv-x="591" 
d="M556 639l-109 -115q-21 27 -56.5 44t-69.5 17q-40 0 -69.5 -16.5t-29.5 -54.5q0 -17 7 -29.5t23.5 -22t32.5 -16t46 -15.5q39 -13 61 -21t56.5 -26.5t53.5 -38.5t34 -53.5t15 -73.5q0 -115 -78.5 -175.5t-192.5 -60.5q-77 0 -148 27t-117 75l112 114q26 -33 68.5 -54
t84.5 -21q43 0 70.5 18.5t27.5 58.5q0 16 -7.5 28.5t-16.5 21t-32 18.5t-39 15.5t-52 17.5q-39 13 -67 27t-56 37t-43 58t-15 81q0 56 24 100.5t64 70t87.5 38.5t98.5 13q62 0 124.5 -22.5t107.5 -64.5zM520 908l-123 -144h-147l-124 144h130l68 -81l68 81h128z" />
    <glyph glyph-name="scaron" unicode="&#x161;" horiz-adv-x="472" 
d="M447 444l-90 -93q-47 45 -104 45q-26 0 -44 -10t-18 -30t19 -29t72 -21q159 -36 159 -152q0 -87 -62.5 -128.5t-150.5 -41.5q-62 0 -120.5 20t-96.5 57l92 97q51 -56 122 -56q24 0 41.5 10.5t17.5 32.5t-21.5 33t-77.5 24q-145 34 -145 145q0 82 63 124.5t144 42.5
q125 0 200 -70zM444 716l-123 -144h-147l-124 144h130l68 -81l68 81h128z" />
    <glyph glyph-name="uni0162" unicode="&#x162;" horiz-adv-x="581" 
d="M576 562h-200v-562h-171v562h-200v146h571v-146zM365 -45l-86 -195h-126l67 195h145z" />
    <glyph glyph-name="uni0163" unicode="&#x163;" horiz-adv-x="372" 
d="M359 375h-117v-190q0 -36 14 -53t48 -17q29 0 48 8l2 -120q-41 -15 -95 -15q-95 0 -136 46t-41 131v210h-80v123h79v131h161v-131h117v-123zM288 -45l-86 -195h-126l67 195h145z" />
    <glyph glyph-name="Tcaron" unicode="&#x164;" horiz-adv-x="581" 
d="M576 562h-200v-562h-171v562h-200v146h571v-146zM488 908l-123 -144h-147l-124 144h130l68 -81l68 81h128z" />
    <glyph glyph-name="tcaron" unicode="&#x165;" horiz-adv-x="432" 
d="M359 375h-117v-190q0 -36 14 -53t48 -17q29 0 48 8l2 -120q-41 -15 -95 -15q-95 0 -136 46t-41 131v210h-80v123h79v131h161v-131h117v-123zM482 731l-86 -195h-126l67 195h145z" />
    <glyph glyph-name="Tbar" unicode="&#x166;" horiz-adv-x="581" 
d="M576 562h-200v-85h136v-89h-136v-388h-171v388h-131v89h131v85h-200v146h571v-146z" />
    <glyph glyph-name="tbar" unicode="&#x167;" horiz-adv-x="372" 
d="M339 215h-97v-30q0 -36 14 -53t48 -17q29 0 48 8l2 -120q-41 -15 -95 -15q-95 0 -136 46t-41 131v50h-71v89h71v71h-80v123h79v131h161v-131h117v-123h-117v-71h97v-89z" />
    <glyph glyph-name="Utilde" unicode="&#x168;" horiz-adv-x="738" 
d="M673 267q0 -128 -83.5 -207t-221.5 -79t-220 78.5t-82 207.5v441h170v-427q0 -63 33 -104.5t100 -41.5q68 0 100.5 41.5t32.5 104.5v427h171v-441zM559 900q-7 -58 -34.5 -95t-78.5 -37q-36 0 -81 21q-39 20 -63 20q-31 0 -42 -40h-72q17 130 113 130q37 0 80 -20t65 -20
q32 0 42 41h71z" />
    <glyph glyph-name="utilde" unicode="&#x169;" horiz-adv-x="614" 
d="M550 0h-158v69h-2q-18 -35 -59 -59t-91 -24q-93 0 -137 59.5t-44 144.5v308h165v-270q0 -106 74 -106q41 0 64.5 31t23.5 76v269h164v-498zM491 708q-7 -58 -34.5 -95t-78.5 -37q-36 0 -81 21q-39 20 -63 20q-31 0 -42 -40h-72q17 130 113 130q37 0 80 -20t65 -20
q32 0 42 41h71z" />
    <glyph glyph-name="Umacron" unicode="&#x16a;" horiz-adv-x="738" 
d="M673 267q0 -128 -83.5 -207t-221.5 -79t-220 78.5t-82 207.5v441h170v-427q0 -63 33 -104.5t100 -41.5q68 0 100.5 41.5t32.5 104.5v427h171v-441zM542 793h-336v86h336v-86z" />
    <glyph glyph-name="umacron" unicode="&#x16b;" horiz-adv-x="614" 
d="M550 0h-158v69h-2q-18 -35 -59 -59t-91 -24q-93 0 -137 59.5t-44 144.5v308h165v-270q0 -106 74 -106q41 0 64.5 31t23.5 76v269h164v-498zM472 601h-336v86h336v-86z" />
    <glyph glyph-name="Ubreve" unicode="&#x16c;" horiz-adv-x="738" 
d="M673 267q0 -128 -83.5 -207t-221.5 -79t-220 78.5t-82 207.5v441h170v-427q0 -63 33 -104.5t100 -41.5q68 0 100.5 41.5t32.5 104.5v427h171v-441zM544 908q-6 -74 -53 -109t-122 -35q-74 0 -121 35t-52 109h84q9 -55 90 -55q39 0 61.5 11.5t28.5 43.5h84z" />
    <glyph glyph-name="ubreve" unicode="&#x16d;" horiz-adv-x="614" 
d="M550 0h-158v69h-2q-18 -35 -59 -59t-91 -24q-93 0 -137 59.5t-44 144.5v308h165v-270q0 -106 74 -106q41 0 64.5 31t23.5 76v269h164v-498zM479 716q-6 -74 -53 -109t-122 -35q-74 0 -121 35t-52 109h84q6 -29 32 -44q23 -11 58 -11q39 0 61.5 11.5t28.5 43.5h84z" />
    <glyph glyph-name="Uring" unicode="&#x16e;" horiz-adv-x="738" 
d="M673 267q0 -128 -83.5 -207t-221.5 -79t-220 78.5t-82 207.5v441h170v-427q0 -63 33 -104.5t100 -41.5q68 0 100.5 41.5t32.5 104.5v427h171v-441zM483 856q0 -46 -31.5 -76.5t-77.5 -30.5q-45 0 -77 30.5t-32 75.5q0 46 31.5 77t77.5 31q45 0 77 -31t32 -76zM433 856
q0 25 -17 41.5t-42 16.5t-42 -17t-17 -42q0 -24 17 -40.5t42 -16.5t42 16.5t17 41.5z" />
    <glyph glyph-name="uring" unicode="&#x16f;" horiz-adv-x="614" 
d="M550 0h-158v69h-2q-18 -35 -59 -59t-91 -24q-93 0 -137 59.5t-44 144.5v308h165v-270q0 -106 74 -106q41 0 64.5 31t23.5 76v269h164v-498zM414 664q0 -46 -31.5 -76.5t-77.5 -30.5q-45 0 -77 30.5t-32 75.5q0 46 31.5 77t77.5 31q45 0 77 -31t32 -76zM364 664
q0 25 -17 41.5t-42 16.5t-42 -17t-17 -42q0 -24 17 -40.5t42 -16.5t42 16.5t17 41.5z" />
    <glyph glyph-name="Uhungarumlaut" unicode="&#x170;" horiz-adv-x="738" 
d="M673 267q0 -128 -83.5 -207t-221.5 -79t-220 78.5t-82 207.5v441h170v-427q0 -63 33 -104.5t100 -41.5q68 0 100.5 41.5t32.5 104.5v427h171v-441zM686 908l-146 -144h-124l104 144h166zM466 908l-146 -144h-124l104 144h166z" />
    <glyph glyph-name="uhungarumlaut" unicode="&#x171;" horiz-adv-x="614" 
d="M550 0h-158v69h-2q-18 -35 -59 -59t-91 -24q-93 0 -137 59.5t-44 144.5v308h165v-270q0 -106 74 -106q41 0 64.5 31t23.5 76v269h164v-498zM622 716l-146 -144h-124l104 144h166zM402 716l-146 -144h-124l104 144h166z" />
    <glyph glyph-name="Uogonek" unicode="&#x172;" horiz-adv-x="738" 
d="M483 -196q-54 -40 -115 -40q-46 0 -79.5 23t-33.5 68q0 62 80 128q-125 10 -197 86.5t-72 197.5v441h170v-427q0 -63 33 -104.5t100 -41.5q68 0 100.5 41.5t32.5 104.5v427h171v-441q0 -112 -65 -187.5t-176 -93.5q-73 -64 -73 -104q0 -16 10.5 -26t26.5 -10q27 0 55 20z
" />
    <glyph glyph-name="uogonek" unicode="&#x173;" horiz-adv-x="614" 
d="M518 -196q-54 -40 -115 -40q-46 0 -79.5 23t-33.5 68q0 71 102 145v69h-2q-18 -35 -59 -59t-91 -24q-93 0 -137 59.5t-44 144.5v308h165v-270q0 -106 74 -106q41 0 64.5 31t23.5 76v269h164v-498h-66q-90 -72 -90 -118q0 -16 10.5 -26t26.5 -10q27 0 55 20z" />
    <glyph glyph-name="Wcircumflex" unicode="&#x174;" horiz-adv-x="1025" 
d="M1025 708l-202 -708h-169l-140 479h-3l-140 -479h-170l-201 708h184l112 -471h3l126 471h178l127 -471h3l114 471h178zM712 764h-130l-68 81l-68 -81h-128l124 144h148z" />
    <glyph glyph-name="wcircumflex" unicode="&#x175;" horiz-adv-x="871" 
d="M871 498l-173 -498h-165l-98 310h-2l-96 -310h-165l-172 498h177l86 -315h3l89 315h165l92 -315h2l87 315h170zM635 572h-130l-68 81l-68 -81h-128l124 144h148z" />
    <glyph glyph-name="Ycircumflex" unicode="&#x176;" horiz-adv-x="669" 
d="M689 708l-272 -408v-300h-171v300l-266 408h207l151 -262l151 262h200zM535 764h-130l-68 81l-68 -81h-128l124 144h148z" />
    <glyph glyph-name="ycircumflex" unicode="&#x177;" horiz-adv-x="567" 
d="M568 498l-223 -573q-32 -84 -81 -124.5t-138 -40.5q-46 0 -90 11l18 138q29 -9 53 -9q36 0 53.5 15.5t30.5 51.5l16 41l-208 490h182l111 -320h3l99 320h174zM489 572h-130l-68 81l-68 -81h-128l124 144h148z" />
    <glyph glyph-name="Ydieresis" unicode="&#x178;" horiz-adv-x="669" 
d="M689 708l-272 -408v-300h-171v300l-266 408h207l151 -262l151 262h200zM530 850q0 -34 -24.5 -58t-58.5 -24q-35 0 -59 24t-24 58q0 33 24 57t59 24q34 0 58.5 -23.5t24.5 -57.5zM313 850q0 -34 -24.5 -58t-59.5 -24q-34 0 -58.5 24t-24.5 58q0 33 24.5 57t58.5 24
q35 0 59.5 -23.5t24.5 -57.5z" />
    <glyph glyph-name="Zacute" unicode="&#x179;" horiz-adv-x="635" 
d="M597 0h-558v148l337 415h-329v145h543v-137l-345 -423h352v-148zM517 908l-146 -144h-124l104 144h166z" />
    <glyph glyph-name="zacute" unicode="&#x17a;" horiz-adv-x="512" 
d="M478 0h-444v128l234 244h-225v126h425v-123l-241 -248h251v-127zM443 716l-146 -144h-124l104 144h166z" />
    <glyph glyph-name="Zdotaccent" unicode="&#x17b;" horiz-adv-x="635" 
d="M597 0h-558v148l337 415h-329v145h543v-137l-345 -423h352v-148zM418 849q0 -36 -26 -60.5t-64 -24.5q-37 0 -63 25t-26 60t26 60.5t63 25.5q38 0 64 -25t26 -61z" />
    <glyph glyph-name="zdotaccent" unicode="&#x17c;" horiz-adv-x="512" 
d="M478 0h-444v128l234 244h-225v126h425v-123l-241 -248h251v-127zM349 657q0 -36 -26 -60.5t-64 -24.5q-37 0 -63 25t-26 60t26 60.5t63 25.5q38 0 64 -25t26 -61z" />
    <glyph glyph-name="Zcaron" unicode="&#x17d;" horiz-adv-x="635" 
d="M597 0h-558v148l337 415h-329v145h543v-137l-345 -423h352v-148zM516 908l-123 -144h-147l-124 144h130l68 -81l68 81h128z" />
    <glyph glyph-name="zcaron" unicode="&#x17e;" horiz-adv-x="512" 
d="M478 0h-444v128l234 244h-225v126h425v-123l-241 -248h251v-127zM459 716l-123 -144h-147l-124 144h130l68 -81l68 81h128z" />
    <glyph glyph-name="florin" unicode="&#x192;" horiz-adv-x="646" 
d="M528 436v-113h-148l-55 -274q-37 -188 -205 -188q-68 0 -122 28l58 120q23 -16 50 -16q31 0 46.5 22.5t23.5 66.5l49 241h-114v113h134l16 78q10 45 22 77.5t35 65t61 49.5t90 17q79 0 137 -34l-60 -121q-30 18 -57 18q-33 0 -48.5 -22t-24.5 -63l-14 -65h126z" />
    <glyph glyph-name="Scommaaccent" unicode="&#x218;" horiz-adv-x="591" 
d="M556 639l-109 -115q-21 27 -56.5 44t-69.5 17q-40 0 -69.5 -16.5t-29.5 -54.5q0 -17 7 -29.5t23.5 -22t32.5 -16t46 -15.5q39 -13 61 -21t56.5 -26.5t53.5 -38.5t34 -53.5t15 -73.5q0 -115 -78.5 -175.5t-192.5 -60.5q-77 0 -148 27t-117 75l112 114q26 -33 68.5 -54
t84.5 -21q43 0 70.5 18.5t27.5 58.5q0 16 -7.5 28.5t-16.5 21t-32 18.5t-39 15.5t-52 17.5q-39 13 -67 27t-56 37t-43 58t-15 81q0 56 24 100.5t64 70t87.5 38.5t98.5 13q62 0 124.5 -22.5t107.5 -64.5zM364 -45l-86 -195h-126l67 195h145z" />
    <glyph glyph-name="scommaaccent" unicode="&#x219;" horiz-adv-x="472" 
d="M447 444l-90 -93q-47 45 -104 45q-26 0 -44 -10t-18 -30t19 -29t72 -21q159 -36 159 -152q0 -87 -62.5 -128.5t-150.5 -41.5q-62 0 -120.5 20t-96.5 57l92 97q51 -56 122 -56q24 0 41.5 10.5t17.5 32.5t-21.5 33t-77.5 24q-145 34 -145 145q0 82 63 124.5t144 42.5
q125 0 200 -70zM304 -45l-86 -195h-126l67 195h145z" />
    <glyph glyph-name="uni021A" unicode="&#x21a;" horiz-adv-x="581" 
d="M576 562h-200v-562h-171v562h-200v146h571v-146zM365 -45l-86 -195h-126l67 195h145z" />
    <glyph glyph-name="uni021B" unicode="&#x21b;" horiz-adv-x="372" 
d="M359 375h-117v-190q0 -36 14 -53t48 -17q29 0 48 8l2 -120q-41 -15 -95 -15q-95 0 -136 46t-41 131v210h-80v123h79v131h161v-131h117v-123zM288 -45l-86 -195h-126l67 195h145z" />
    <glyph glyph-name="dotlessj" unicode="&#x237;" horiz-adv-x="299" 
d="M233 -13q0 -50 -9 -88t-30 -71t-61.5 -50.5t-98.5 -17.5q-42 0 -71 8l11 137q15 -5 35 -5q34 0 47 22.5t13 64.5v511h164v-511z" />
    <glyph glyph-name="circumflex" unicode="&#x2c6;" 
d="M347 572h-130l-68 81l-68 -81h-128l124 144h148z" />
    <glyph glyph-name="caron" unicode="&#x2c7;" 
d="M347 716l-123 -144h-147l-124 144h130l68 -81l68 81h128z" />
    <glyph glyph-name="uni02C9" unicode="&#x2c9;" 
d="M318 793h-336v86h336v-86z" />
    <glyph glyph-name="breve" unicode="&#x2d8;" 
d="M324 716q-6 -74 -53 -109t-122 -35q-74 0 -121 35t-52 109h84q6 -29 32 -44q23 -11 58 -11q39 0 61.5 11.5t28.5 43.5h84z" />
    <glyph glyph-name="dotaccent" unicode="&#x2d9;" 
d="M240 657q0 -36 -26 -60.5t-64 -24.5q-37 0 -63 25t-26 60t26 60.5t63 25.5q38 0 64 -25t26 -61z" />
    <glyph glyph-name="ring" unicode="&#x2da;" 
d="M259 664q0 -46 -31.5 -76.5t-77.5 -30.5q-45 0 -77 30.5t-32 75.5q0 46 31.5 77t77.5 31q45 0 77 -31t32 -76zM209 664q0 25 -17 41.5t-42 16.5t-42 -17t-17 -42q0 -24 17 -40.5t42 -16.5t42 16.5t17 41.5z" />
    <glyph glyph-name="ogonek" unicode="&#x2db;" 
d="M240 -196q-54 -40 -115 -40q-46 0 -79.5 23t-33.5 68q0 73 108 149h91q-95 -75 -95 -122q0 -16 10.5 -26t26.5 -10q27 0 55 20z" />
    <glyph glyph-name="tilde" unicode="&#x2dc;" 
d="M335 708q-7 -58 -34.5 -95t-78.5 -37q-36 0 -81 21q-39 20 -63 20q-31 0 -42 -40h-72q17 130 113 130q37 0 80 -20t65 -20q32 0 42 41h71z" />
    <glyph glyph-name="hungarumlaut" unicode="&#x2dd;" 
d="M456 716l-146 -144h-124l104 144h166zM236 716l-146 -144h-124l104 144h166z" />
    <glyph glyph-name="uni0394" unicode="&#x394;" horiz-adv-x="735" 
d="M707 0h-680v102l258 606h166l256 -602v-106zM504 148l-139 371l-142 -371h281z" />
    <glyph glyph-name="uni03A9" unicode="&#x3a9;" horiz-adv-x="760" 
d="M706 0h-287v219q57 16 90 65.5t33 114.5q0 81 -45.5 127.5t-116.5 46.5t-116.5 -47t-45.5 -127q0 -72 36.5 -119.5t86.5 -60.5v-219h-287v144h157v11q-76 28 -121 97t-45 164q0 145 96 228t237 83q146 0 241.5 -83.5t95.5 -227.5q0 -92 -43.5 -161.5t-122.5 -99.5v-11
h157v-144z" />
    <glyph glyph-name="uni03BC" unicode="&#x3bc;" horiz-adv-x="663" 
d="M626 121l2 -120q-36 -13 -85 -13q-96 0 -111 81h-2q-13 -32 -46 -57.5t-75 -25.5q-55 0 -77 27h-2v-253h-166v738h166v-268q0 -108 74 -108q41 0 64.5 31t23.5 78v267h166v-339q0 -23 9 -33t29 -10q15 0 30 5z" />
    <glyph glyph-name="pi" unicode="&#x3c0;" horiz-adv-x="711" 
d="M644 1q-37 -13 -97 -13q-69 0 -102 34t-33 111v236h-125l-45 -369h-157l52 369h-107v129h646v-129h-113v-214q0 -40 41 -40q14 0 38 6z" />
    <glyph glyph-name="uni0400" unicode="&#x400;" horiz-adv-x="607" 
d="M73 0v708h476v-145h-311v-133h294v-137h-294v-147h329v-146h-494zM400 764h-124l-146 144h166z" />
    <glyph glyph-name="uni0401" unicode="&#x401;" horiz-adv-x="607" 
d="M73 0v708h476v-145h-311v-133h294v-137h-294v-147h329v-146h-494zM499 850q0 -34 -24.5 -58t-58.5 -24q-35 0 -59 24t-24 58q0 33 24 57t59 24q34 0 58.5 -23.5t24.5 -57.5zM282 850q0 -34 -24.5 -58t-59.5 -24q-34 0 -58.5 24t-24.5 58q0 33 24.5 57t58.5 24
q35 0 59.5 -23.5t24.5 -57.5z" />
    <glyph glyph-name="uni0402" unicode="&#x402;" horiz-adv-x="820" 
d="M544 -10q-56 0 -106 10l15 129q23 -7 52 -7q111 0 111 83q0 89 -130 89q-69 0 -110 -19v-275h-171v563h-200v145h570v-145h-199v-161q79 22 160 22q122 0 187.5 -58t65.5 -165q0 -106 -69.5 -158.5t-175.5 -52.5z" />
    <glyph glyph-name="uni0403" unicode="&#x403;" horiz-adv-x="523" 
d="M463 908l-146 -144h-124l104 144h166zM73 0v708h445v-146h-274v-562h-171z" />
    <glyph glyph-name="uni0404" unicode="&#x404;" horiz-adv-x="696" 
d="M419 -19q-162 0 -270.5 105t-108.5 268q0 164 108.5 268.5t270.5 104.5q80 0 151.5 -28t115.5 -76l-108 -121q-50 71 -161 71q-69 0 -120 -41t-65 -103h261v-136h-263q10 -68 62 -113t124 -45q116 0 171 76l104 -115q-44 -52 -114 -83.5t-158 -31.5z" />
    <glyph glyph-name="uni0405" unicode="&#x405;" horiz-adv-x="591" 
d="M280 -18q-77 0 -148 27t-117 75l112 114q26 -33 68.5 -54t84.5 -21q43 0 70.5 18.5t27.5 58.5q0 16 -7.5 28.5t-16.5 21t-32 18.5t-39 15.5t-52 17.5q-39 13 -67 27t-56 37t-43 58t-15 81q0 56 24 100.5t64 70t87.5 38.5t98.5 13q62 0 124.5 -22.5t107.5 -64.5l-109 -115
q-21 27 -56.5 44t-69.5 17q-40 0 -69.5 -16.5t-29.5 -54.5q0 -17 7 -29.5t23.5 -22t32.5 -16t46 -15.5q39 -13 61 -21t56.5 -26.5t53.5 -38.5t34 -53.5t15 -73.5q0 -115 -78.5 -175.5t-192.5 -60.5z" />
    <glyph glyph-name="uni0406" unicode="&#x406;" horiz-adv-x="318" 
d="M73 0v708h172v-708h-172z" />
    <glyph glyph-name="uni0407" unicode="&#x407;" horiz-adv-x="318" 
d="M73 0v708h172v-708h-172zM351 850q0 -34 -24.5 -58t-58.5 -24q-35 0 -59 24t-24 58q0 33 24 57t59 24q34 0 58.5 -23.5t24.5 -57.5zM134 850q0 -34 -24.5 -58t-59.5 -24q-34 0 -58.5 24t-24.5 58q0 33 24.5 57t58.5 24q35 0 59.5 -23.5t24.5 -57.5z" />
    <glyph glyph-name="uni0408" unicode="&#x408;" horiz-adv-x="529" 
d="M227 -19q-87 0 -148.5 46t-81.5 120l151 51q7 -28 25.5 -45t45.5 -17q39 0 54 27t15 78v467h172v-466q0 -37 -5.5 -70.5t-21 -69.5t-40.5 -62t-67.5 -42.5t-98.5 -16.5z" />
    <glyph glyph-name="uni0409" unicode="&#x409;" horiz-adv-x="1122" 
d="M105 -7q-61 0 -98 11l14 142q20 -7 42 -7q41 0 66.5 25t41 97.5t15.5 196.5v250h540v-260h90q79 0 138.5 -20.5t98.5 -72t39 -130.5q0 -112 -77.5 -168.5t-197.5 -56.5h-262v563h-205v-98q0 -255 -58 -363.5t-187 -108.5zM726 136h78q54 0 86.5 22.5t32.5 67.5
q0 89 -119 89h-78v-179z" />
    <glyph glyph-name="uni040A" unicode="&#x40a;" horiz-adv-x="1091" 
d="M73 0v708h171v-267h276v267h171v-267h103q57 0 103.5 -12t84 -37t58.5 -68.5t21 -101.5q0 -111 -75 -166.5t-191 -55.5h-275v302h-276v-302h-171zM691 137h84q115 0 115 87q0 86 -115 86h-84v-173z" />
    <glyph glyph-name="uni040B" unicode="&#x40b;" horiz-adv-x="833" 
d="M205 0v563h-200v145h570v-145h-199v-161q79 22 159 22q121 0 178 -49.5t57 -157.5v-217h-171v174q0 60 -25.5 85t-85.5 25q-73 0 -112 -18v-266h-171z" />
    <glyph glyph-name="uni040C" unicode="&#x40c;" horiz-adv-x="711" 
d="M550 908l-146 -144h-124l104 144h166zM73 0v708h168v-288h3l253 288h214l-305 -326l323 -382h-223l-263 326h-2v-326h-168z" />
    <glyph glyph-name="uni040D" unicode="&#x40d;" horiz-adv-x="771" 
d="M73 0v708h169v-466h4l272 466h180v-708h-169v455h-3l-270 -455h-183zM446 764h-124l-146 144h166z" />
    <glyph glyph-name="uni040E" unicode="&#x40e;" horiz-adv-x="681" 
d="M167 -12q-67 0 -113 12l21 141q35 -11 64 -11q43 0 65 21.5t48 72.5l3 6l-270 478h197l166 -323l156 323h192l-265 -504q-24 -45 -39 -71t-39.5 -58t-48.5 -48t-59 -27.5t-78 -11.5zM347 764q-71 0 -117.5 35t-57.5 105l85 17q4 -31 28 -49t62 -18q37 0 61 18t28 49
l86 -17q-12 -70 -58 -105t-117 -35z" />
    <glyph glyph-name="uni040F" unicode="&#x40f;" horiz-adv-x="760" 
d="M305 -151v151h-232v708h171v-562h272v562h171v-708h-232v-151h-150z" />
    <glyph glyph-name="uni0410" unicode="&#x410;" horiz-adv-x="729" 
d="M-14 0l297 708h166l294 -708h-190l-55 139h-274l-52 -139h-186zM273 276h178l-88 243z" />
    <glyph glyph-name="uni0411" unicode="&#x411;" horiz-adv-x="662" 
d="M73 0v708h498v-139h-327v-134h110q119 0 193.5 -52.5t74.5 -164.5q0 -109 -75.5 -163.5t-191.5 -54.5h-282zM244 136h92q114 0 114 83t-114 83h-92v-166z" />
    <glyph glyph-name="uni0412" unicode="&#x412;" horiz-adv-x="665" 
d="M73 0v708h282q45 0 84.5 -8.5t76.5 -28t58.5 -57t21.5 -88.5q0 -57 -31 -96t-85 -57v-2q64 -11 104.5 -54.5t40.5 -110.5q0 -55 -22.5 -96.5t-62 -64.5t-86 -34t-99.5 -11h-282zM238 138h96q120 0 120 84q0 78 -121 78h-95v-162zM238 426h92q48 0 74.5 20t26.5 57
q0 69 -109 69h-84v-146z" />
    <glyph glyph-name="uni0413" unicode="&#x413;" horiz-adv-x="523" 
d="M73 0v708h445v-146h-274v-562h-171z" />
    <glyph glyph-name="uni0414" unicode="&#x414;" horiz-adv-x="804" 
d="M12 -151v297h62q96 119 96 382v180h536v-562h78v-297h-150v151h-472v-151h-150zM259 146h276v417h-200v-57q0 -241 -76 -360z" />
    <glyph glyph-name="uni0415" unicode="&#x415;" horiz-adv-x="607" 
d="M73 0v708h476v-145h-311v-133h294v-137h-294v-147h329v-146h-494z" />
    <glyph glyph-name="uni0416" unicode="&#x416;" horiz-adv-x="1050" 
d="M-18 0l288 385l-272 323h205l235 -296h1v296h170v-296h2l235 296h206l-274 -323l290 -385h-215l-241 332h-2v-332h-171v332h-1l-243 -332h-213z" />
    <glyph glyph-name="uni0417" unicode="&#x417;" horiz-adv-x="611" 
d="M302 -19q-184 0 -288 106l102 111q59 -75 160 -75q49 0 84 25t35 67q0 89 -141 89h-57v123h61q121 0 121 83q0 35 -31 55.5t-70 20.5q-89 0 -143 -62l-99 105q96 98 257 98q117 0 187 -51t70 -140q0 -62 -33 -105t-84 -57v-3q62 -17 100 -60.5t38 -111.5
q0 -69 -41 -120.5t-101 -74.5t-127 -23z" />
    <glyph glyph-name="uni0418" unicode="&#x418;" horiz-adv-x="771" 
d="M73 0v708h169v-466h4l272 466h180v-708h-169v455h-3l-270 -455h-183z" />
    <glyph glyph-name="uni0419" unicode="&#x419;" horiz-adv-x="771" 
d="M73 0v708h169v-466h4l272 466h180v-708h-169v455h-3l-270 -455h-183zM379 764q-71 0 -117.5 35t-57.5 105l85 17q4 -31 28 -49t62 -18q37 0 61 18t28 49l86 -17q-12 -70 -58 -105t-117 -35z" />
    <glyph glyph-name="uni041A" unicode="&#x41a;" horiz-adv-x="711" 
d="M73 0v708h168v-288h3l253 288h214l-305 -326l323 -382h-223l-263 326h-2v-326h-168z" />
    <glyph glyph-name="uni041B" unicode="&#x41b;" horiz-adv-x="799" 
d="M105 -7q-61 0 -98 11l14 142q20 -7 42 -7q41 0 66.5 25t41 97.5t15.5 196.5v250h540v-708h-171v563h-205v-98q0 -255 -58 -363.5t-187 -108.5z" />
    <glyph glyph-name="uni041C" unicode="&#x41c;" horiz-adv-x="955" 
d="M73 0v708h243l161 -454h4l154 454h247v-708h-167l4 501h-3l-184 -501h-120l-179 501h-3l4 -501h-161z" />
    <glyph glyph-name="uni041D" unicode="&#x41d;" horiz-adv-x="764" 
d="M73 0v708h171v-268h276v268h171v-708h-171v296h-276v-296h-171z" />
    <glyph glyph-name="uni041E" unicode="&#x41e;" horiz-adv-x="851" 
d="M425 -19q-167 0 -276 104.5t-109 271.5q0 168 108.5 269t276.5 101q169 0 277.5 -101t108.5 -269q0 -167 -109 -271.5t-277 -104.5zM425 137q89 0 146 62t57 158q0 94 -57 155t-146 61t-145.5 -61t-56.5 -155q0 -96 56.5 -158t145.5 -62z" />
    <glyph glyph-name="uni041F" unicode="&#x41f;" horiz-adv-x="760" 
d="M73 0v708h614v-708h-171v563h-272v-563h-171z" />
    <glyph glyph-name="uni0420" unicode="&#x420;" horiz-adv-x="640" 
d="M73 0v708h260q126 0 201.5 -51.5t75.5 -166.5q0 -78 -40.5 -130t-101 -72.5t-139.5 -20.5h-85v-267h-171zM244 403h72q123 0 123 86q0 81 -120 81h-75v-167z" />
    <glyph glyph-name="uni0421" unicode="&#x421;" horiz-adv-x="696" 
d="M421 -19q-165 0 -273 104.5t-108 269.5q0 167 109.5 269.5t274.5 102.5q77 0 149.5 -27.5t115.5 -76.5l-116 -116q-23 32 -61.5 48.5t-81.5 16.5q-89 0 -146.5 -61.5t-57.5 -155.5q0 -96 56 -156.5t145 -60.5q99 0 150 72l119 -112q-101 -117 -275 -117z" />
    <glyph glyph-name="uni0422" unicode="&#x422;" horiz-adv-x="581" 
d="M205 0v562h-200v146h571v-146h-200v-562h-171z" />
    <glyph glyph-name="uni0423" unicode="&#x423;" horiz-adv-x="681" 
d="M167 -12q-67 0 -113 12l21 141q35 -11 64 -11q43 0 65 21.5t48 72.5l3 6l-270 478h197l166 -323l156 323h192l-265 -504q-24 -45 -39 -71t-39.5 -58t-48.5 -48t-59 -27.5t-78 -11.5z" />
    <glyph glyph-name="uni0424" unicode="&#x424;" horiz-adv-x="906" 
d="M367 -19v86q-146 2 -239 84t-93 214q0 139 88 216t244 82v64h171v-64q156 -5 244.5 -82t88.5 -216q0 -131 -93 -213.5t-240 -84.5v-86h-171zM367 212v306q-81 -7 -119 -47.5t-38 -106.5q0 -135 157 -152zM538 212q157 17 157 152q0 66 -38 106.5t-119 47.5v-306z" />
    <glyph glyph-name="uni0425" unicode="&#x425;" horiz-adv-x="703" 
d="M-8 0l248 374l-228 334h206l132 -220l130 220h199l-224 -334l256 -374h-211l-155 250l-149 -250h-204z" />
    <glyph glyph-name="uni0426" unicode="&#x426;" horiz-adv-x="784" 
d="M614 -151v151h-541v708h171v-562h272v562h171v-562h77v-297h-150z" />
    <glyph glyph-name="uni0427" unicode="&#x427;" horiz-adv-x="702" 
d="M458 0v262q-79 -22 -158 -22q-121 0 -178.5 49.5t-57.5 157.5v261h169v-218q0 -60 26.5 -85t87.5 -25q73 0 111 18v310h171v-708h-171z" />
    <glyph glyph-name="uni0428" unicode="&#x428;" horiz-adv-x="1105" 
d="M73 0v708h171v-562h223v562h171v-562h223v562h171v-708h-959z" />
    <glyph glyph-name="uni0429" unicode="&#x429;" horiz-adv-x="1129" 
d="M959 -151v151h-886v708h171v-562h223v562h171v-562h223v562h171v-562h77v-297h-150z" />
    <glyph glyph-name="uni042A" unicode="&#x42a;" horiz-adv-x="722" 
d="M152 0v563h-147v145h318v-260h90q79 0 138.5 -20.5t98.5 -72t39 -130.5q0 -112 -77.5 -168.5t-197.5 -56.5h-262zM323 136h78q54 0 86.5 22.5t32.5 67.5q0 89 -119 89h-78v-179z" />
    <glyph glyph-name="uni042B" unicode="&#x42b;" horiz-adv-x="936" 
d="M73 0v708h171v-260h90q122 0 199 -54t77 -169q0 -113 -78 -169t-197 -56h-262zM244 136h77q119 0 119 90q0 89 -119 89h-77v-179zM693 0v708h170v-708h-170z" />
    <glyph glyph-name="uni042C" unicode="&#x42c;" horiz-adv-x="640" 
d="M73 0v708h171v-260h90q122 0 199 -54t77 -169q0 -113 -78 -169t-197 -56h-262zM244 136h77q119 0 119 90q0 89 -119 89h-77v-179z" />
    <glyph glyph-name="uni042D" unicode="&#x42d;" horiz-adv-x="696" 
d="M277 -19q-88 0 -158 31.5t-114 83.5l104 115q55 -76 171 -76q72 0 124 45t62 113h-263v136h261q-14 62 -65 103t-120 41q-111 0 -161 -71l-108 121q44 48 115.5 76t151.5 28q162 0 270.5 -104.5t108.5 -268.5q0 -163 -108.5 -268t-270.5 -105z" />
    <glyph glyph-name="uni042E" unicode="&#x42e;" horiz-adv-x="1114" 
d="M711 -19q-147 0 -244 88.5t-115 228.5h-108v-298h-171v708h171v-270h112q25 129 119.5 209t235.5 80q163 0 263 -105t100 -266t-100.5 -268t-262.5 -107zM711 137q83 0 131.5 63t48.5 156t-48.5 155t-131.5 62q-84 0 -132.5 -62t-48.5 -155q0 -94 48.5 -156.5
t132.5 -62.5z" />
    <glyph glyph-name="uni042F" unicode="&#x42f;" horiz-adv-x="668" 
d="M18 0l178 289q-66 23 -103 75t-37 126q0 114 77.5 166t201.5 52h260v-708h-171v263h-60l-149 -263h-197zM350 393h74v179h-80q-120 0 -120 -88q0 -47 35 -69t91 -22z" />
    <glyph glyph-name="uni0430" unicode="&#x430;" horiz-adv-x="566" 
d="M214 -12q-44 0 -82.5 13.5t-68.5 50.5t-30 92q0 168 320 168v8q0 35 -25 53.5t-65 18.5q-68 0 -123 -51l-83 89q89 84 222 84q123 0 176 -62.5t53 -200.5v-251h-150v53h-3q-18 -30 -57 -47.5t-84 -17.5zM255 98q49 0 76 27.5t27 74.5v17h-21q-153 0 -153 -68
q0 -26 21 -38.5t50 -12.5z" />
    <glyph glyph-name="uni0431" unicode="&#x431;" horiz-adv-x="644" 
d="M327 -16q-116 0 -194 72q-46 43 -65.5 100.5t-19.5 150.5q0 75 4.5 128t19 105t39.5 85t68.5 56.5t104.5 31.5l108 14q47 6 65 15.5t25 32.5l116 -33q-15 -72 -50 -105t-101 -41l-127 -17q-38 -5 -61 -12.5t-47 -26t-36.5 -53.5t-15.5 -88h2q59 102 196 102
q102 0 174 -69.5t72 -185.5q0 -119 -79 -190.5t-198 -71.5zM328 122q55 0 86.5 38.5t31.5 90.5q0 51 -32 89t-87 38t-86 -37.5t-31 -89.5t31.5 -90.5t86.5 -38.5z" />
    <glyph glyph-name="uni0432" unicode="&#x432;" horiz-adv-x="585" 
d="M64 0v498h276q183 0 183 -131q0 -38 -21.5 -66t-57.5 -39v-2q43 -8 72 -39t29 -78q0 -71 -54 -107t-138 -36h-289zM224 101h81q33 0 54.5 14.5t21.5 41.5q0 55 -78 55h-79v-111zM224 297h80q26 0 44.5 13t18.5 39q0 49 -70 49h-73v-101z" />
    <glyph glyph-name="uni0433" unicode="&#x433;" horiz-adv-x="449" 
d="M64 0v498h365v-126h-200v-372h-165z" />
    <glyph glyph-name="uni0434" unicode="&#x434;" horiz-adv-x="655" 
d="M10 -125v252h47q61 77 61 244v127h453v-371h69v-252h-134v125h-362v-125h-134zM226 127h180v245h-134v-42q0 -127 -46 -203z" />
    <glyph glyph-name="uni0435" unicode="&#x435;" horiz-adv-x="596" 
d="M313 -16q-117 0 -195.5 70.5t-78.5 192.5q0 120 76.5 193.5t192.5 73.5q112 0 181 -72.5t69 -198.5q0 -27 -1 -39h-361q4 -40 39 -67t80 -27q72 0 110 52l114 -72q-73 -106 -226 -106zM196 306h211q0 41 -25.5 68t-72.5 27q-46 0 -78 -28t-35 -67z" />
    <glyph glyph-name="uni0436" unicode="&#x436;" horiz-adv-x="857" 
d="M-4 0l182 263l-170 235h190l145 -221h3v221h165v-221h3l145 221h190l-170 -235l182 -263h-191l-156 233h-3v-233h-165v233h-3l-156 -233h-191z" />
    <glyph glyph-name="uni0437" unicode="&#x437;" horiz-adv-x="502" 
d="M249 -19q-157 0 -239 85l82 90q49 -57 128 -57q36 0 59.5 13t23.5 39q0 53 -100 53h-43v102h45q86 0 86 49q0 42 -70 42q-71 0 -113 -45l-78 83q74 79 212 79q92 0 148.5 -36.5t56.5 -100.5q0 -43 -25.5 -74.5t-64.5 -40.5v-3q48 -11 76.5 -42t28.5 -80q0 -74 -64.5 -115
t-148.5 -41z" />
    <glyph glyph-name="uni0438" unicode="&#x438;" horiz-adv-x="639" 
d="M64 0v498h162v-290h2l173 290h174v-498h-160v283h-3l-170 -283h-178z" />
    <glyph glyph-name="uni0439" unicode="&#x439;" horiz-adv-x="639" 
d="M319 572q-143 0 -165 131l80 16q9 -59 85 -59q77 0 84 59l80 -16q-10 -66 -53.5 -98.5t-110.5 -32.5zM64 0v498h162v-290h2l173 290h174v-498h-160v283h-3l-170 -283h-178z" />
    <glyph glyph-name="uni043A" unicode="&#x43a;" horiz-adv-x="599" 
d="M64 0v498h165v-211h3l163 211h199l-195 -233l204 -265h-201l-170 225h-3v-225h-165z" />
    <glyph glyph-name="uni043B" unicode="&#x43b;" horiz-adv-x="640" 
d="M95 -6q-64 0 -90 8l10 125q12 -4 31 -4q41 0 62.5 40.5t21.5 149.5v185h446v-498h-165v372h-123v-89q0 -157 -47.5 -223t-145.5 -66z" />
    <glyph glyph-name="uni043C" unicode="&#x43c;" horiz-adv-x="801" 
d="M64 0v498h217l121 -297h2l114 297h219v-498h-158v327h-3l-128 -327h-100l-127 328h-3v-328h-154z" />
    <glyph glyph-name="uni043D" unicode="&#x43d;" horiz-adv-x="620" 
d="M64 0v498h165v-176h162v176h165v-498h-165v196h-162v-196h-165z" />
    <glyph glyph-name="uni043E" unicode="&#x43e;" horiz-adv-x="632" 
d="M315 -16q-116 0 -196 74t-80 193t80 191t196 72q117 0 197 -72t80 -191t-80 -193t-197 -74zM316 122q55 0 86.5 38.5t31.5 90.5q0 51 -32 89t-87 38t-86 -37.5t-31 -89.5t31.5 -90.5t86.5 -38.5z" />
    <glyph glyph-name="uni043F" unicode="&#x43f;" horiz-adv-x="620" 
d="M64 0v498h492v-498h-165v372h-162v-372h-165z" />
    <glyph glyph-name="uni0440" unicode="&#x440;" horiz-adv-x="657" 
d="M64 -240v738h156v-61h3q24 33 65.5 54t93.5 21q105 0 170.5 -76.5t65.5 -184.5q0 -110 -64.5 -187.5t-172.5 -77.5q-46 0 -87 18.5t-64 50.5h-2v-295h-164zM342 122q55 0 86 38t31 91q0 52 -31 89.5t-86 37.5q-53 0 -86.5 -39t-33.5 -89q0 -51 33.5 -89.5t86.5 -38.5z
" />
    <glyph glyph-name="uni0441" unicode="&#x441;" horiz-adv-x="503" 
d="M318 -16q-121 0 -200 72t-79 193q0 119 79.5 192t198.5 73q53 0 104.5 -18.5t80.5 -48.5l-95 -110q-13 18 -37.5 29t-49.5 11q-51 0 -83 -37.5t-32 -90.5t32 -90t85 -37q58 0 89 37l91 -111q-66 -64 -184 -64z" />
    <glyph glyph-name="uni0442" unicode="&#x442;" horiz-adv-x="503" 
d="M169 0v372h-149v126h463v-126h-149v-372h-165z" />
    <glyph glyph-name="uni0443" unicode="&#x443;" horiz-adv-x="567" 
d="M126 -240q-46 0 -90 11l18 138q29 -9 53 -9q36 0 53.5 15.5t30.5 51.5l16 41l-208 490h182l111 -320h3l99 320h174l-223 -573q-32 -84 -81 -124.5t-138 -40.5z" />
    <glyph glyph-name="uni0444" unicode="&#x444;" horiz-adv-x="833" 
d="M334 -240v223q-138 2 -216.5 73t-78.5 192t78.5 191t216.5 73v244h165v-244q138 -3 216.5 -73t78.5 -191t-78.5 -192t-216.5 -73v-223h-165zM334 119v259q-64 -2 -96.5 -36.5t-32.5 -92.5q0 -57 32 -92.5t97 -37.5zM499 119q65 2 97 37.5t32 92.5q0 58 -32.5 92.5
t-96.5 36.5v-259z" />
    <glyph glyph-name="uni0445" unicode="&#x445;" horiz-adv-x="594" 
d="M-3 0l199 261l-180 237h191l93 -133l94 133h185l-179 -237l197 -261h-193l-107 153l-110 -153h-190z" />
    <glyph glyph-name="uni0446" unicode="&#x446;" horiz-adv-x="642" 
d="M493 -125v125h-429v498h165v-371h164v371h165v-371h69v-252h-134z" />
    <glyph glyph-name="uni0447" unicode="&#x447;" horiz-adv-x="589" 
d="M360 0v171q-48 -13 -126 -13q-182 0 -182 155v185h161v-135q0 -48 19 -65t61 -17q22 0 67 9v208h165v-498h-165z" />
    <glyph glyph-name="uni0448" unicode="&#x448;" horiz-adv-x="905" 
d="M64 0v498h165v-371h141v371h165v-371h141v371h165v-498h-777z" />
    <glyph glyph-name="uni0449" unicode="&#x449;" horiz-adv-x="925" 
d="M910 -125h-134v125h-712v498h165v-371h141v371h165v-371h141v371h165v-371h69v-252z" />
    <glyph glyph-name="uni044A" unicode="&#x44a;" horiz-adv-x="638" 
d="M138 0v372h-118v126h283v-163h101q92 0 149 -40t57 -126q0 -84 -58 -126.5t-148 -42.5h-266zM303 108h70q75 0 75 62q0 59 -75 59h-70v-121z" />
    <glyph glyph-name="uni044B" unicode="&#x44b;" horiz-adv-x="833" 
d="M64 0v498h165v-163h101q92 0 149 -40t57 -126q0 -84 -58 -126.5t-148 -42.5h-266zM229 108h70q75 0 75 62q0 59 -75 59h-70v-121zM604 0v498h165v-498h-165z" />
    <glyph glyph-name="uni044C" unicode="&#x44c;" horiz-adv-x="564" 
d="M64 0v498h165v-163h101q92 0 149 -40t57 -126q0 -84 -58 -126.5t-148 -42.5h-266zM229 108h70q75 0 75 62q0 59 -75 59h-70v-121z" />
    <glyph glyph-name="uni044D" unicode="&#x44d;" horiz-adv-x="518" 
d="M197 -18q-121 0 -196 68l82 105q37 -44 107 -44q48 0 82 24.5t43 68.5h-172v104h168q-10 38 -41.5 60t-76.5 22q-71 0 -111 -46l-78 106q31 28 84 46t108 18q128 0 205.5 -73t77.5 -193q0 -121 -76 -193.5t-206 -72.5z" />
    <glyph glyph-name="uni044E" unicode="&#x44e;" horiz-adv-x="874" 
d="M563 -17q-99 0 -172.5 58.5t-90.5 155.5h-71v-197h-165v498h165v-179h74q22 89 93.5 142t166.5 53q114 0 192.5 -73t78.5 -192t-78.5 -192.5t-192.5 -73.5zM563 123q52 0 82.5 35t30.5 91t-31 91.5t-82 35.5q-50 0 -81 -36t-31 -91q0 -56 31 -91t81 -35z" />
    <glyph glyph-name="uni044F" unicode="&#x44f;" horiz-adv-x="601" 
d="M30 0l117 183q-101 36 -101 148q0 83 58 125t146 42h278v-498h-165v165h-61l-85 -165h-187zM284 268h79v126h-79q-37 0 -60 -16t-23 -47q0 -63 83 -63z" />
    <glyph glyph-name="uni0450" unicode="&#x450;" horiz-adv-x="596" 
d="M384 572h-124l-146 144h166zM313 -16q-117 0 -195.5 70.5t-78.5 192.5q0 120 76.5 193.5t192.5 73.5q112 0 181 -72.5t69 -198.5q0 -27 -1 -39h-361q4 -40 39 -67t80 -27q72 0 110 52l114 -72q-73 -106 -226 -106zM196 306h211q0 41 -25.5 68t-72.5 27q-46 0 -78 -28
t-35 -67z" />
    <glyph glyph-name="uni0451" unicode="&#x451;" horiz-adv-x="596" 
d="M503 658q0 -34 -24.5 -58t-58.5 -24q-35 0 -59 24t-24 58q0 33 24 57t59 24q34 0 58.5 -23.5t24.5 -57.5zM286 658q0 -34 -24.5 -58t-59.5 -24q-34 0 -58.5 24t-24.5 58q0 33 24.5 57t58.5 24q35 0 59.5 -23.5t24.5 -57.5zM313 -16q-117 0 -195.5 70.5t-78.5 192.5
q0 120 76.5 193.5t192.5 73.5q112 0 181 -72.5t69 -198.5q0 -27 -1 -39h-361q4 -40 39 -67t80 -27q72 0 110 52l114 -72q-73 -106 -226 -106zM196 306h211q0 41 -25.5 68t-72.5 27q-46 0 -78 -28t-35 -67z" />
    <glyph glyph-name="uni0452" unicode="&#x452;" horiz-adv-x="617" 
d="M348 -240q-42 0 -77 9l13 128q22 -6 37 -6q71 0 71 93v276q0 105 -73 105q-41 0 -65 -30t-24 -76v-259h-164v564h-66v95h66v97h164v-97h134v-95h-134v-139h2q18 32 56 54.5t87 22.5q94 0 138 -59.5t44 -144.5v-320q0 -100 -49.5 -159t-159.5 -59z" />
    <glyph glyph-name="uni0453" unicode="&#x453;" horiz-adv-x="449" 
d="M421 716l-146 -144h-124l104 144h166zM64 0v498h365v-126h-200v-372h-165z" />
    <glyph glyph-name="uni0454" unicode="&#x454;" horiz-adv-x="518" 
d="M321 -18q-130 0 -206 72.5t-76 193.5q0 120 77.5 193t205.5 73q55 0 108 -18t84 -46l-78 -106q-40 46 -111 46q-45 0 -76.5 -22t-41.5 -60h168v-104h-172q9 -44 43 -68.5t82 -24.5q70 0 107 44l82 -105q-75 -68 -196 -68z" />
    <glyph glyph-name="uni0455" unicode="&#x455;" horiz-adv-x="472" 
d="M228 -16q-62 0 -120.5 20t-96.5 57l92 97q51 -56 122 -56q24 0 41.5 10.5t17.5 32.5t-21.5 33t-77.5 24q-145 34 -145 145q0 82 63 124.5t144 42.5q125 0 200 -70l-90 -93q-47 45 -104 45q-26 0 -44 -10t-18 -30t19 -29t72 -21q159 -36 159 -152q0 -87 -62.5 -128.5
t-150.5 -41.5z" />
    <glyph glyph-name="uni0456" unicode="&#x456;" horiz-adv-x="296" 
d="M66 0v498h164v-498h-164zM148 567q-39 0 -66.5 26.5t-27.5 63.5q0 36 27.5 63t66.5 27t66.5 -26.5t27.5 -63.5q0 -38 -27.5 -64t-66.5 -26z" />
    <glyph glyph-name="uni0457" unicode="&#x457;" horiz-adv-x="296" 
d="M340 658q0 -34 -24.5 -58t-58.5 -24q-35 0 -59 24t-24 58q0 33 24 57t59 24q34 0 58.5 -23.5t24.5 -57.5zM123 658q0 -34 -24.5 -58t-59.5 -24q-34 0 -58.5 24t-24.5 58q0 33 24.5 57t58.5 24q35 0 59.5 -23.5t24.5 -57.5zM232 0h-164v498h164v-498z" />
    <glyph glyph-name="uni0458" unicode="&#x458;" horiz-adv-x="299" 
d="M34 -240q-42 0 -71 8l11 137q15 -5 35 -5q34 0 47 22.5t13 64.5v511h164v-511q0 -50 -9 -88t-30 -71t-61.5 -50.5t-98.5 -17.5zM151 567q-39 0 -66.5 26.5t-27.5 63.5q0 36 27.5 63t66.5 27t66.5 -26.5t27.5 -63.5q0 -38 -27.5 -64t-66.5 -26z" />
    <glyph glyph-name="uni0459" unicode="&#x459;" horiz-adv-x="915" 
d="M95 -6q-64 0 -90 8l10 124q12 -4 31 -4q41 0 62.5 40.5t21.5 149.5v186h450v-163h101q92 0 149 -40t57 -126q0 -84 -58 -126.5t-148 -42.5h-266v372h-129v-89q0 -158 -47 -223.5t-144 -65.5zM580 108h70q75 0 75 62q0 59 -75 59h-70v-121z" />
    <glyph glyph-name="uni045A" unicode="&#x45a;" horiz-adv-x="891" 
d="M64 0v498h165v-173h162v173h165v-173h101q92 0 149 -39t57 -123q0 -81 -57.5 -122t-147.5 -41h-267v208h-162v-208h-165zM556 106h67q78 0 78 60q0 59 -78 59h-67v-119z" />
    <glyph glyph-name="uni045B" unicode="&#x45b;" horiz-adv-x="617" 
d="M66 0v564h-66v95h66v97h164v-97h134v-95h-134v-139h2q18 32 56 54.5t87 22.5q94 0 138 -59.5t44 -144.5v-298h-165v260q0 105 -73 105q-41 0 -65 -30t-24 -76v-259h-164z" />
    <glyph glyph-name="uni045C" unicode="&#x45c;" horiz-adv-x="599" 
d="M503 716l-146 -144h-124l104 144h166zM64 0v498h165v-211h3l163 211h199l-195 -233l204 -265h-201l-170 225h-3v-225h-165z" />
    <glyph glyph-name="uni045D" unicode="&#x45d;" horiz-adv-x="639" 
d="M397 572h-124l-146 144h166zM64 0v498h162v-290h2l173 290h174v-498h-160v283h-3l-170 -283h-178z" />
    <glyph glyph-name="uni045E" unicode="&#x45e;" horiz-adv-x="567" 
d="M294 572q-143 0 -165 131l80 16q9 -59 85 -59q77 0 84 59l80 -16q-10 -66 -53.5 -98.5t-110.5 -32.5zM126 -240q-46 0 -90 11l18 138q29 -9 53 -9q36 0 53.5 15.5t30.5 51.5l16 41l-208 490h182l111 -320h3l99 320h174l-223 -573q-32 -84 -81 -124.5t-138 -40.5z" />
    <glyph glyph-name="uni045F" unicode="&#x45f;" horiz-adv-x="620" 
d="M243 -125v125h-179v498h165v-371h162v371h165v-498h-179v-125h-134z" />
    <glyph glyph-name="uni0490" unicode="&#x490;" horiz-adv-x="523" 
d="M73 0v708h307v132h138v-279h-274v-561h-171z" />
    <glyph glyph-name="uni0491" unicode="&#x491;" horiz-adv-x="449" 
d="M64 0v498h243v115h122v-241h-200v-372h-165z" />
    <glyph glyph-name="Wgrave" unicode="&#x1e80;" horiz-adv-x="1025" 
d="M1025 708l-202 -708h-169l-140 479h-3l-140 -479h-170l-201 708h184l112 -471h3l126 471h178l127 -471h3l114 471h178zM591 764h-124l-146 144h166z" />
    <glyph glyph-name="wgrave" unicode="&#x1e81;" horiz-adv-x="871" 
d="M871 498l-173 -498h-165l-98 310h-2l-96 -310h-165l-172 498h177l86 -315h3l89 315h165l92 -315h2l87 315h170zM509 572h-124l-146 144h166z" />
    <glyph glyph-name="Wacute" unicode="&#x1e82;" horiz-adv-x="1025" 
d="M1025 708l-202 -708h-169l-140 479h-3l-140 -479h-170l-201 708h184l112 -471h3l126 471h178l127 -471h3l114 471h178zM707 908l-146 -144h-124l104 144h166z" />
    <glyph glyph-name="wacute" unicode="&#x1e83;" horiz-adv-x="871" 
d="M871 498l-173 -498h-165l-98 310h-2l-96 -310h-165l-172 498h177l86 -315h3l89 315h165l92 -315h2l87 315h170zM636 716l-146 -144h-124l104 144h166z" />
    <glyph glyph-name="Wdieresis" unicode="&#x1e84;" horiz-adv-x="1025" 
d="M1025 708l-202 -708h-169l-140 479h-3l-140 -479h-170l-201 708h184l112 -471h3l126 471h178l127 -471h3l114 471h178zM704 850q0 -34 -24.5 -58t-58.5 -24q-35 0 -59 24t-24 58q0 33 24 57t59 24q34 0 58.5 -23.5t24.5 -57.5zM487 850q0 -34 -24.5 -58t-59.5 -24
q-34 0 -58.5 24t-24.5 58q0 33 24.5 57t58.5 24q35 0 59.5 -23.5t24.5 -57.5z" />
    <glyph glyph-name="wdieresis" unicode="&#x1e85;" horiz-adv-x="871" 
d="M871 498l-173 -498h-165l-98 310h-2l-96 -310h-165l-172 498h177l86 -315h3l89 315h165l92 -315h2l87 315h170zM626 658q0 -34 -24.5 -58t-58.5 -24q-35 0 -59 24t-24 58q0 33 24 57t59 24q34 0 58.5 -23.5t24.5 -57.5zM409 658q0 -34 -24.5 -58t-59.5 -24
q-34 0 -58.5 24t-24.5 58q0 33 24.5 57t58.5 24q35 0 59.5 -23.5t24.5 -57.5z" />
    <glyph glyph-name="Ygrave" unicode="&#x1ef2;" horiz-adv-x="669" 
d="M689 708l-272 -408v-300h-171v300l-266 408h207l151 -262l151 262h200zM409 764h-124l-146 144h166z" />
    <glyph glyph-name="ygrave" unicode="&#x1ef3;" horiz-adv-x="567" 
d="M568 498l-223 -573q-32 -84 -81 -124.5t-138 -40.5q-46 0 -90 11l18 138q29 -9 53 -9q36 0 53.5 15.5t30.5 51.5l16 41l-208 490h182l111 -320h3l99 320h174zM356 572h-124l-146 144h166z" />
    <glyph glyph-name="uni2010" unicode="&#x2010;" horiz-adv-x="326" 
d="M290 197h-254v130h254v-130z" />
    <glyph glyph-name="endash" unicode="&#x2013;" horiz-adv-x="400" 
d="M370 210h-340v103h340v-103z" />
    <glyph glyph-name="emdash" unicode="&#x2014;" horiz-adv-x="600" 
d="M570 209h-540v104h540v-104z" />
    <glyph glyph-name="quoteleft" unicode="&#x2018;" 
d="M259 708l-72 -271h-145l91 271h126z" />
    <glyph glyph-name="quoteright" unicode="&#x2019;" 
d="M258 708l-91 -271h-126l72 271h145z" />
    <glyph glyph-name="quotesinglbase" unicode="&#x201a;" 
d="M257 145l-91 -271h-126l72 271h145z" />
    <glyph glyph-name="quotedblleft" unicode="&#x201c;" horiz-adv-x="507" 
d="M466 708l-71 -271h-144l89 271h126zM259 708l-74 -271h-143l91 271h126z" />
    <glyph glyph-name="quotedblright" unicode="&#x201d;" horiz-adv-x="507" 
d="M465 708l-90 -271h-127l74 271h143zM256 708l-89 -271h-126l72 271h143z" />
    <glyph glyph-name="quotedblbase" unicode="&#x201e;" horiz-adv-x="507" 
d="M464 145l-90 -271h-127l74 271h143zM255 145l-89 -271h-126l72 271h143z" />
    <glyph glyph-name="dagger" unicode="&#x2020;" horiz-adv-x="603" 
d="M565 382h-194v-511h-142v511h-191v125h191v201h142v-201h194v-125z" />
    <glyph glyph-name="daggerdbl" unicode="&#x2021;" horiz-adv-x="603" 
d="M562 50h-190v-179h-141v179h-189v124h189v232h-189v123h188v179h142v-179h190v-123h-190v-232h190v-124z" />
    <glyph glyph-name="bullet" unicode="&#x2022;" horiz-adv-x="500" 
d="M427 354q0 -74 -51.5 -125.5t-125.5 -51.5t-125.5 51.5t-51.5 125.5t51.5 125.5t125.5 51.5t125.5 -51.5t51.5 -125.5z" />
    <glyph glyph-name="ellipsis" unicode="&#x2026;" horiz-adv-x="1000" 
d="M933 88q0 -41 -29.5 -69.5t-70.5 -28.5t-71.5 28t-30.5 69t30 70t72 29q41 0 70.5 -28.5t29.5 -69.5zM600 88q0 -41 -29.5 -69.5t-70.5 -28.5t-71.5 28t-30.5 69t30 70t72 29q41 0 70.5 -28.5t29.5 -69.5zM267 88q0 -41 -29.5 -69.5t-70.5 -28.5t-71 28t-30 69
q0 40 30 69.5t71 29.5t70.5 -28.5t29.5 -69.5z" />
    <glyph glyph-name="perthousand" unicode="&#x2030;" horiz-adv-x="1245" 
d="M1210 167q0 -74 -53 -126.5t-127 -52.5t-126.5 52.5t-52.5 126.5t52.5 126t126.5 52t127 -52t53 -126zM1104 167q0 31 -21 52.5t-53 21.5t-53 -21.5t-21 -52.5t21 -52.5t53 -21.5t53 21.5t21 52.5zM812 167q0 -74 -53 -126.5t-127 -52.5t-127 52.5t-53 126.5t53 126
t127 52t127 -52t53 -126zM706 167q0 31 -21.5 52.5t-52.5 21.5q-32 0 -53 -21.5t-21 -52.5t21 -52.5t53 -21.5q31 0 52.5 21.5t21.5 52.5zM394 542q0 -74 -53 -126.5t-127 -52.5t-127 52.5t-53 126.5t53 126t127 52t127 -52t53 -126zM288 542q0 31 -21.5 52.5t-52.5 21.5
q-32 0 -53 -21t-21 -53t21 -53t53 -21q31 0 52.5 21.5t21.5 52.5zM660 699l-388 -729l-89 39l388 731z" />
    <glyph glyph-name="guilsinglleft" unicode="&#x2039;" horiz-adv-x="318" 
d="M284 85l-98 -63l-161 232l161 232l97 -63l-115 -169z" />
    <glyph glyph-name="guilsinglright" unicode="&#x203a;" horiz-adv-x="318" 
d="M293 253l-161 -231l-97 63l115 168l-116 170l98 63z" />
    <glyph glyph-name="interrobang" unicode="&#x203d;" horiz-adv-x="546" 
d="M350 226h-152l-1 278h133l-5 -112l1 -1q56 60 56 118q0 40 -25 64.5t-71 24.5q-88 0 -102 -83l-148 18q13 90 82 142t171 52q104 0 171 -52.5t67 -150.5q0 -61 -28.5 -105t-89.5 -92q-36 -27 -47.5 -45t-11.5 -48v-8zM373 85q0 -40 -28.5 -67.5t-69.5 -27.5
q-40 0 -69 27.5t-29 66.5t29 67t69 28t69 -27.5t29 -66.5z" />
    <glyph glyph-name="fraction" unicode="&#x2044;" horiz-adv-x="100" 
d="M281 699l-388 -729l-87 39l388 731z" />
    <glyph glyph-name="zero.superior" unicode="&#x2070;" horiz-adv-x="420" 
d="M385 664q0 -101 -42 -164.5t-132 -63.5q-91 0 -133.5 64t-42.5 164t42.5 163t133.5 63q90 0 132 -63t42 -163zM267 664q0 127 -56 127q-58 0 -58 -127q0 -129 58 -129q56 0 56 129z" />
    <glyph glyph-name="four.superior" unicode="&#x2074;" horiz-adv-x="420" 
d="M335 445h-106v83h-200v93l175 260h131v-259h58v-94h-58v-83zM229 622v134h-1l-88 -134h89z" />
    <glyph glyph-name="five.superior" unicode="&#x2075;" horiz-adv-x="420" 
d="M378 593q0 -76 -49.5 -116.5t-119.5 -40.5q-61 0 -106.5 31t-61.5 86l103 31q16 -51 63 -51q25 0 40.5 14.5t15.5 40.5q0 28 -20.5 43t-56.5 15q-54 0 -112 -24l10 259h273v-100h-170l-3 -51q19 3 36 3q69 0 113.5 -37t44.5 -103z" />
    <glyph glyph-name="six.superior" unicode="&#x2076;" horiz-adv-x="420" 
d="M383 595q0 -73 -49.5 -116t-123.5 -43t-123.5 43.5t-49.5 113.5q0 65 47 135l104 153h139l-105 -142l1 -1q4 1 18 1q58 0 100 -40.5t42 -103.5zM269 593q0 25 -16.5 42.5t-42.5 17.5t-42.5 -17.5t-16.5 -43.5q0 -25 16 -42t42 -17q27 0 43.5 17t16.5 43z" />
    <glyph glyph-name="seven.superior" unicode="&#x2077;" horiz-adv-x="420" 
d="M210 445h-133l171 336h-194v100h320v-87z" />
    <glyph glyph-name="eight.superior" unicode="&#x2078;" horiz-adv-x="420" 
d="M375 572q0 -66 -47.5 -101t-117.5 -35t-117.5 35t-47.5 101q0 71 68 101v2q-58 26 -58 89q0 59 45 92.5t110 33.5t110 -32.5t45 -91.5q0 -65 -57 -91v-2q30 -12 48.5 -39t18.5 -62zM210 800q-19 0 -31.5 -12.5t-12.5 -30.5t12.5 -30.5t31.5 -12.5t31.5 12.5t12.5 30.5
t-12.5 30.5t-31.5 12.5zM210 628q-23 0 -38 -14.5t-15 -36.5t15 -35.5t38 -13.5t38 13.5t15 35.5q0 21 -15.5 36t-37.5 15z" />
    <glyph glyph-name="nine.superior" unicode="&#x2079;" horiz-adv-x="420" 
d="M383 733q0 -63 -48 -135l-103 -153h-140l105 142l-1 2q-5 -2 -18 -2q-59 0 -100 41t-41 103q0 72 49.5 115.5t122.5 43.5q74 0 124 -43t50 -114zM268 734q0 25 -16 42.5t-42 17.5q-27 0 -43.5 -17t-16.5 -44q0 -25 16.5 -42t42.5 -17t42.5 17t16.5 43z" />
    <glyph glyph-name="zero.inferior" unicode="&#x2080;" horiz-adv-x="420" 
d="M385 74q0 -101 -42 -164.5t-132 -63.5q-91 0 -133.5 64t-42.5 164t42.5 163t133.5 63q90 0 132 -63t42 -163zM267 74q0 127 -56 127q-58 0 -58 -127q0 -129 58 -129q56 0 56 129z" />
    <glyph glyph-name="one.inferior" unicode="&#x2081;" horiz-adv-x="420" 
d="M298 -145h-117v306l-74 -58l-60 81l145 107h106v-436z" />
    <glyph glyph-name="two.inferior" unicode="&#x2082;" horiz-adv-x="420" 
d="M374 -145h-319v92l170 156q29 26 29 56q0 18 -12 29t-33 11q-22 0 -37 -17t-17 -44l-110 14q7 69 54.5 108.5t114.5 39.5t113.5 -34t46.5 -100q0 -30 -12 -56t-25.5 -41t-38.5 -37l-87 -77h163v-100z" />
    <glyph glyph-name="three.inferior" unicode="&#x2083;" horiz-adv-x="420" 
d="M379 -17q0 -67 -49 -102t-115 -35q-63 0 -110.5 30t-65.5 92l105 28q16 -53 64 -53q23 0 39.5 11t16.5 35q0 47 -78 47h-33v84h36q65 0 65 47q0 17 -13 27.5t-33 10.5q-18 0 -32.5 -13t-18.5 -35l-105 25q16 56 61.5 87t102.5 31q64 0 108.5 -31t44.5 -90q0 -67 -57 -96
q32 -11 49.5 -37.5t17.5 -62.5z" />
    <glyph glyph-name="four.inferior" unicode="&#x2084;" horiz-adv-x="420" 
d="M335 -145h-106v83h-200v93l175 260h131v-259h58v-94h-58v-83zM229 32v134h-1l-88 -134h89z" />
    <glyph glyph-name="five.inferior" unicode="&#x2085;" horiz-adv-x="420" 
d="M378 3q0 -76 -49.5 -116.5t-119.5 -40.5q-61 0 -106.5 31t-61.5 86l103 31q16 -51 63 -51q25 0 40.5 14.5t15.5 40.5q0 28 -20.5 43t-56.5 15q-54 0 -112 -24l10 259h273v-100h-170l-3 -51q19 3 36 3q69 0 113.5 -37t44.5 -103z" />
    <glyph glyph-name="six.inferior" unicode="&#x2086;" horiz-adv-x="420" 
d="M383 5q0 -73 -49.5 -116t-123.5 -43t-123.5 43.5t-49.5 113.5q0 65 47 135l104 153h139l-105 -142l1 -1q4 1 18 1q58 0 100 -40.5t42 -103.5zM269 3q0 25 -16.5 42.5t-42.5 17.5t-42.5 -17.5t-16.5 -43.5q0 -25 16 -42t42 -17q27 0 43.5 17t16.5 43z" />
    <glyph glyph-name="seven.inferior" unicode="&#x2087;" horiz-adv-x="420" 
d="M210 -145h-133l171 336h-194v100h320v-87z" />
    <glyph glyph-name="eight.inferior" unicode="&#x2088;" horiz-adv-x="420" 
d="M375 -18q0 -66 -47.5 -101t-117.5 -35t-117.5 35t-47.5 101q0 71 68 101v2q-58 26 -58 89q0 59 45 92.5t110 33.5t110 -32.5t45 -91.5q0 -65 -57 -91v-2q30 -12 48.5 -39t18.5 -62zM210 210q-19 0 -31.5 -12.5t-12.5 -30.5t12.5 -30.5t31.5 -12.5t31.5 12.5t12.5 30.5
t-12.5 30.5t-31.5 12.5zM210 38q-23 0 -38 -14.5t-15 -36.5t15 -35.5t38 -13.5t38 13.5t15 35.5q0 21 -15.5 36t-37.5 15z" />
    <glyph glyph-name="nine.inferior" unicode="&#x2089;" horiz-adv-x="420" 
d="M383 143q0 -63 -48 -135l-103 -153h-140l105 142l-1 2q-5 -2 -18 -2q-59 0 -100 41t-41 103q0 72 49.5 115.5t122.5 43.5q74 0 124 -43t50 -114zM268 144q0 25 -16 42.5t-42 17.5q-27 0 -43.5 -17t-16.5 -44q0 -25 16.5 -42t42.5 -17t42.5 17t16.5 43z" />
    <glyph glyph-name="Euro" unicode="&#x20ac;" horiz-adv-x="646" 
d="M567 147l37 -127q-67 -39 -176 -39q-126 0 -206.5 64.5t-108.5 170.5h-92l34 103h45q-1 12 -1 35q0 18 3 36h-78l36 104h57q32 109 121 171t212 62q100 0 163 -30l-49 -126q-44 23 -119 23q-53 0 -99 -26.5t-63 -73.5h265l-35 -104h-258q-2 -12 -2 -37q0 -23 1 -34h241
l-34 -103h-186q14 -43 60 -71.5t105 -28.5q74 0 127 31z" />
    <glyph glyph-name="afii61248" unicode="&#x2105;" horiz-adv-x="942" 
d="M238 346q-86 0 -142.5 51t-56.5 137q0 85 57 137.5t142 52.5q86 0 137 -54l-75 -83q-21 28 -60 28q-33 0 -54 -22t-21 -59q0 -33 21.5 -56t55.5 -23q37 0 61 27l72 -84q-54 -52 -137 -52zM903 179q0 -85 -57 -138t-140 -53t-140 53t-57 138q0 84 57 135.5t140 51.5
t140 -51.5t57 -135.5zM782 179q0 32 -20.5 55.5t-55.5 23.5q-36 0 -56 -23.5t-20 -55.5q0 -33 20 -57.5t56 -24.5t56 24.5t20 57.5zM712 695l-417 -729l-89 44l416 730z" />
    <glyph glyph-name="afii61289" unicode="&#x2113;" horiz-adv-x="500" 
d="M465 56q-85 -70 -181 -70q-82 0 -127.5 42.5t-45.5 108.5v25l-54 -45h-2l-54 84l109 86v233q0 85 54 143t138 58q73 0 116.5 -42.5t43.5 -112.5q0 -77 -47 -149t-149 -154v-101q0 -33 16.5 -48t40.5 -15q36 0 88 37h2zM336 557q0 26 -9.5 44t-25.5 18q-15 0 -25 -19.5
t-10 -49.5v-157q70 71 70 164z" />
    <glyph glyph-name="uni2116" unicode="&#x2116;" horiz-adv-x="1068" 
d="M73 0v708h181l227 -433h3v433h165v-708h-184l-223 422h-4v-422h-165zM739 286v85h289v-85h-289zM881 418q-66 0 -110.5 42t-44.5 109q0 66 44.5 107.5t110.5 41.5q67 0 111.5 -41.5t44.5 -107.5q0 -67 -44.5 -109t-111.5 -42zM881 505q28 0 44.5 18.5t16.5 45.5
q0 26 -17 44.5t-44 18.5t-43 -18.5t-16 -44.5q0 -27 16 -45.5t43 -18.5z" />
    <glyph glyph-name="published" unicode="&#x2117;" horiz-adv-x="800" 
d="M20 353q0 157 111.5 267t269.5 110q157 0 268 -110t111 -267q0 -156 -111 -265.5t-268 -109.5q-158 0 -269.5 109.5t-111.5 265.5zM80 353q0 -132 93 -225.5t226 -93.5q132 0 226.5 93.5t94.5 225.5q0 133 -93.5 227t-225.5 94q-133 0 -227 -94t-94 -227zM260 125v444
h178q80 0 128.5 -37t48.5 -111t-50 -112.5t-127 -38.5h-59v-145h-119zM379 366h55q64 0 64 54q0 53 -62 53h-57v-107z" />
    <glyph glyph-name="trademark" unicode="&#x2122;" horiz-adv-x="1000" 
d="M948 296h-106v259h-2l-97 -259h-79l-96 259h-2v-259h-105v412h150l95 -260l92 260h150v-412zM386 613h-118v-317h-110v317h-118v95h346v-95z" />
    <glyph glyph-name="Omega" unicode="&#x2126;" horiz-adv-x="760" 
d="M706 0h-287v219q57 16 90 65.5t33 114.5q0 81 -45.5 127.5t-116.5 46.5t-116.5 -47t-45.5 -127q0 -72 36.5 -119.5t86.5 -60.5v-219h-287v144h157v11q-76 28 -121 97t-45 164q0 145 96 228t237 83q146 0 241.5 -83.5t95.5 -227.5q0 -92 -43.5 -161.5t-122.5 -99.5v-11
h157v-144z" />
    <glyph glyph-name="estimated" unicode="&#x212e;" horiz-adv-x="500" 
d="M561 259h-404v-181q59 -59 145 -59q122 0 193 120l35 -21q-46 -72 -98 -103.5t-130 -31.5q-115 0 -186.5 79t-71.5 197q0 119 71 197.5t187 78.5q115 0 186.5 -77t72.5 -199zM157 295h291v145q-63 60 -147 60t-144 -60v-145z" />
    <glyph glyph-name="partialdiff" unicode="&#x2202;" horiz-adv-x="666" 
d="M427 428q-1 61 -34 107.5t-95 46.5q-80 0 -137 -66l-77 112q93 93 215 93q64 0 115.5 -22t83.5 -57t53 -83t29.5 -97.5t8.5 -102.5t-6 -100t-24.5 -98.5t-47.5 -88.5t-79 -61t-116 -24q-109 0 -178 67.5t-69 174.5q0 101 64.5 164.5t175.5 63.5q65 0 118 -29zM420 292
q-47 36 -92 36t-69 -29t-24 -77q0 -45 23.5 -73.5t60.5 -28.5q51 0 76 47t25 112v13z" />
    <glyph glyph-name="Delta" unicode="&#x2206;" horiz-adv-x="735" 
d="M707 0h-680v102l258 606h166l256 -602v-106zM504 148l-139 371l-142 -371h281z" />
    <glyph glyph-name="product" unicode="&#x220f;" horiz-adv-x="753" 
d="M695 -214h-152v867h-333v-867h-151v1000h636v-1000z" />
    <glyph glyph-name="summation" unicode="&#x2211;" horiz-adv-x="666" 
d="M644 -214h-618v111l292 395l-280 383v111h594v-133h-402l256 -360l-273 -374h431v-133z" />
    <glyph glyph-name="minus" unicode="&#x2212;" horiz-adv-x="666" 
d="M598 242h-530v123h530v-123z" />
    <glyph glyph-name="uni2215" unicode="&#x2215;" horiz-adv-x="100" 
d="M281 699l-388 -729l-87 39l388 731z" />
    <glyph glyph-name="uni2219" unicode="&#x2219;" 
d="M251 291q0 -41 -29.5 -69.5t-70.5 -28.5q-42 0 -72 28t-30 69t30 70t72 29q41 0 70.5 -28.5t29.5 -69.5z" />
    <glyph glyph-name="radical" unicode="&#x221a;" horiz-adv-x="569" 
d="M579 786l-214 -1000h-126l-145 300l-51 -24l-54 114l175 79l112 -239l158 770h145z" />
    <glyph glyph-name="infinity" unicode="&#x221e;" horiz-adv-x="837" 
d="M792 266q0 -82 -49.5 -136.5t-133.5 -54.5q-97 0 -190 103q-47 -50 -88.5 -76t-99.5 -26q-84 0 -135 53.5t-51 135.5q0 80 49.5 133.5t132.5 53.5q59 0 103.5 -28.5t88.5 -80.5q43 51 87.5 80.5t103.5 29.5q83 0 132.5 -53.5t49.5 -133.5zM674 263q0 31 -18 51t-49 20
q-47 0 -114 -72q62 -68 117 -68q29 0 46.5 19.5t17.5 49.5zM344 262q-71 71 -117 71q-28 0 -46 -20.5t-18 -49.5q0 -31 18 -49.5t49 -18.5q51 0 114 67z" />
    <glyph glyph-name="integral" unicode="&#x222b;" horiz-adv-x="633" 
d="M519 696q0 -28 -18.5 -47.5t-47.5 -19.5q-23 0 -36 13t-21 28.5t-16 18.5q-11 -10 -11 -53q0 -14 1 -41.5t1 -41.5v-440q0 -76 -2 -113q-2 -44 -9.5 -78.5t-24.5 -67t-50.5 -50.5t-81.5 -18q-46 0 -85 23t-39 69q0 10 5 18q5 20 22.5 33t39.5 13t35 -13t20 -27.5
t15 -17.5q12 6 12 47q1 15 -0.5 42.5t-1.5 37.5v496q0 32 0.5 53t4 53t10 53.5t19 46t30.5 39t45 24t61 9.5q43 0 83 -22.5t40 -66.5z" />
    <glyph glyph-name="approxequal" unicode="&#x2248;" horiz-adv-x="666" 
d="M580 468q-8 -91 -50.5 -141.5t-110.5 -50.5q-42 0 -130 32t-116 32q-20 0 -33 -16t-18 -39h-96q7 78 46.5 130.5t115.5 52.5q41 0 123.5 -29.5t121.5 -29.5q42 0 50 59h97zM579 247q-6 -49 -20.5 -87t-50.5 -67.5t-88 -29.5q-43 0 -132 32.5t-116 32.5q-20 0 -33.5 -17
t-18.5 -45h-96q7 79 46 135t112 56q42 0 126 -30.5t125 -30.5q37 0 49 51h97z" />
    <glyph glyph-name="notequal" unicode="&#x2260;" horiz-adv-x="666" 
d="M569 110h-273l-74 -146l-115 56l47 90h-102v127h167l43 84h-210v127h275l75 145l115 -55l-47 -90h99v-127h-164l-43 -84h207v-127z" />
    <glyph glyph-name="lessequal" unicode="&#x2264;" horiz-adv-x="666" 
d="M587 18h-508v123h508v-123zM587 154l-508 214v103l508 214v-136l-306 -131l306 -127v-137z" />
    <glyph glyph-name="greaterequal" unicode="&#x2265;" horiz-adv-x="666" 
d="M79 18v123h508v-123h-508zM79 154v137l306 127l-306 131v136l508 -214v-103z" />
    <glyph glyph-name="lozenge" unicode="&#x25ca;" horiz-adv-x="606" 
d="M546 356l-184 -391h-120l-181 391l182 391h119zM405 356l-103 241l-101 -241l101 -241z" />
    <glyph glyph-name="f_i" unicode="&#xf001;" horiz-adv-x="665" 
d="M384 765l-11 -130q-21 7 -45 7q-73 0 -73 -94v-50h111v-123h-111v-375h-164v375h-91v123h91v48q0 229 214 229q48 0 79 -10zM611 657q0 -38 -27.5 -64t-66.5 -26t-66.5 26.5t-27.5 63.5q0 36 27.5 63t66.5 27t66.5 -26.5t27.5 -63.5zM599 0h-164v498h164v-498z" />
    <glyph glyph-name="f_l" unicode="&#xf002;" horiz-adv-x="666" 
d="M384 765l-11 -130q-21 7 -45 7q-73 0 -73 -94v-50h111v-123h-111v-375h-164v375h-91v123h91v48q0 229 214 229q48 0 79 -10zM600 0h-166v756h166v-756z" />
    <glyph glyph-name="uniF8FF" unicode="&#xf8ff;" horiz-adv-x="512" 
d="M278 117h-56v67h56v-67zM271 234h-46l-2 17q0 56 13 81q15 28 46 59q31 29 40.5 46t9.5 37q0 36 -22.5 60.5t-53.5 24.5q-71 0 -82 -95l-50 8q7 69 43 103t92 34q54 0 89 -36t35 -95q0 -34 -13 -60t-50 -60q-37 -33 -43 -52q-6 -20 -6 -72zM50 50h412v617h-412v-617z
M0 718h512v-718h-512v718z" />
    <glyph glyph-name="grave.cap" 
d="M235 764h-124l-146 144h166z" />
    <glyph glyph-name="acute.cap" 
d="M335 908l-146 -144h-124l104 144h166z" />
    <glyph glyph-name="circumflex.cap" 
d="M347 764h-130l-68 81l-68 -81h-128l124 144h148z" />
    <glyph glyph-name="caron.cap" 
d="M347 908l-123 -144h-147l-124 144h130l68 -81l68 81h128z" />
    <glyph glyph-name="caron.alt" 
d="M281 708l-86 -195h-126l67 195h145z" />
    <glyph glyph-name="tilde.cap" 
d="M335 900q-7 -58 -34.5 -95t-78.5 -37q-36 0 -81 21q-39 20 -63 20q-31 0 -42 -40h-72q17 130 113 130q37 0 80 -20t65 -20q32 0 42 41h71z" />
    <glyph glyph-name="dieresis.cap" 
d="M342 850q0 -34 -24.5 -58t-58.5 -24q-35 0 -59 24t-24 58q0 33 24 57t59 24q34 0 58.5 -23.5t24.5 -57.5zM125 850q0 -34 -24.5 -58t-59.5 -24q-34 0 -58.5 24t-24.5 58q0 33 24.5 57t58.5 24q35 0 59.5 -23.5t24.5 -57.5z" />
    <glyph glyph-name="macron.cap" 
d="M318 793h-336v86h336v-86z" />
    <glyph glyph-name="breve.cap" 
d="M324 908q-6 -74 -53 -109t-122 -35q-74 0 -121 35t-52 109h84q9 -55 90 -55q39 0 61.5 11.5t28.5 43.5h84z" />
    <glyph glyph-name="ring.cap" 
d="M259 856q0 -46 -31.5 -76.5t-77.5 -30.5q-45 0 -77 30.5t-32 75.5q0 46 31.5 77t77.5 31q45 0 77 -31t32 -76zM209 856q0 25 -17 41.5t-42 16.5t-42 -17t-17 -42q0 -24 17 -40.5t42 -16.5t42 16.5t17 41.5z" />
    <glyph glyph-name="hungarumlaut.cap" 
d="M456 908l-146 -144h-124l104 144h166zM236 908l-146 -144h-124l104 144h166z" />
    <glyph glyph-name="dotaccent.cap" 
d="M240 849q0 -36 -26 -60.5t-64 -24.5q-37 0 -63 25t-26 60t26 60.5t63 25.5q38 0 64 -25t26 -61z" />
    <glyph glyph-name="commaaccent" 
d="M235 -45l-86 -195h-126l67 195h145z" />
    <glyph glyph-name="commaaccent.alt" 
d="M56 572l86 195h126l-67 -195h-145z" />
    <glyph glyph-name="zero.denominator" horiz-adv-x="420" 
d="M385 219q0 -101 -42 -164.5t-132 -63.5q-91 0 -133.5 64t-42.5 164t42.5 163t133.5 63q90 0 132 -63t42 -163zM267 219q0 127 -56 127q-58 0 -58 -127q0 -129 58 -129q56 0 56 129z" />
    <glyph glyph-name="one.denominator" horiz-adv-x="420" 
d="M298 0h-117v306l-74 -58l-60 81l145 107h106v-436z" />
    <glyph glyph-name="two.denominator" horiz-adv-x="420" 
d="M374 0h-319v92l170 156q29 26 29 56q0 18 -12 29t-33 11q-22 0 -37 -17t-17 -44l-110 14q7 69 54.5 108.5t114.5 39.5t113.5 -34t46.5 -100q0 -30 -12 -56t-25.5 -41t-38.5 -37l-87 -77h163v-100z" />
    <glyph glyph-name="three.denominator" horiz-adv-x="420" 
d="M379 128q0 -67 -49 -102t-115 -35q-63 0 -110.5 30t-65.5 92l105 28q16 -53 64 -53q23 0 39.5 11t16.5 35q0 47 -78 47h-33v84h36q65 0 65 47q0 17 -13 27.5t-33 10.5q-18 0 -32.5 -13t-18.5 -35l-105 25q16 56 61.5 87t102.5 31q64 0 108.5 -31t44.5 -90q0 -68 -57 -96
q32 -11 49.5 -37.5t17.5 -62.5z" />
    <glyph glyph-name="four.denominator" horiz-adv-x="420" 
d="M335 0h-106v83h-200v93l175 260h131v-259h58v-94h-58v-83zM229 177v134h-1l-88 -134h89z" />
    <glyph glyph-name="five.denominator" horiz-adv-x="420" 
d="M378 148q0 -76 -49.5 -116.5t-119.5 -40.5q-61 0 -106.5 31t-61.5 86l103 31q16 -51 63 -51q25 0 40.5 14.5t15.5 40.5q0 28 -20.5 43t-56.5 15q-54 0 -112 -24l10 259h273v-100h-170l-3 -51q20 3 36 3q69 0 113.5 -37t44.5 -103z" />
    <glyph glyph-name="six.denominator" horiz-adv-x="420" 
d="M383 150q0 -73 -49.5 -116t-123.5 -43t-123.5 43.5t-49.5 113.5q0 64 47 135l104 153h139l-105 -142l1 -1q4 1 18 1q58 0 100 -40.5t42 -103.5zM269 148q0 25 -16.5 42.5t-42.5 17.5t-42.5 -17.5t-16.5 -43.5q0 -25 16 -42t42 -17q27 0 43.5 17t16.5 43z" />
    <glyph glyph-name="seven.denominator" horiz-adv-x="420" 
d="M210 0h-133l171 336h-194v100h320v-87z" />
    <glyph glyph-name="eight.denominator" horiz-adv-x="420" 
d="M375 127q0 -66 -47.5 -101t-117.5 -35t-117.5 35t-47.5 101q0 71 68 101v2q-58 26 -58 89q0 59 45 92.5t110 33.5t110 -32.5t45 -91.5q0 -65 -57 -91v-2q30 -12 48.5 -39t18.5 -62zM210 355q-19 0 -31.5 -12.5t-12.5 -30.5t12.5 -30.5t31.5 -12.5t31.5 12.5t12.5 30.5
t-12.5 30.5t-31.5 12.5zM210 183q-23 0 -38 -14.5t-15 -36.5t15 -35.5t38 -13.5t38 13.5t15 35.5q0 21 -15.5 36t-37.5 15z" />
    <glyph glyph-name="nine.denominator" horiz-adv-x="420" 
d="M383 288q0 -63 -48 -135l-103 -153h-140l105 142l-1 2q-5 -2 -18 -2q-59 0 -100 41t-41 103q0 72 49.5 115.5t122.5 43.5q74 0 124 -43t50 -114zM268 289q0 25 -16 42.5t-42 17.5q-27 0 -43.5 -17t-16.5 -44q0 -25 16.5 -42t42.5 -17t42.5 17t16.5 43z" />
    <glyph glyph-name="zero.numerator" horiz-adv-x="420" 
d="M385 491q0 -101 -42 -164.5t-132 -63.5q-91 0 -133.5 64t-42.5 164t42.5 163t133.5 63q90 0 132 -63t42 -163zM267 491q0 127 -56 127q-58 0 -58 -127q0 -129 58 -129q56 0 56 129z" />
    <glyph glyph-name="one.numerator" horiz-adv-x="420" 
d="M298 272h-117v306l-74 -58l-60 81l145 107h106v-436z" />
    <glyph glyph-name="two.numerator" horiz-adv-x="420" 
d="M374 272h-319v92l170 156q29 26 29 56q0 18 -12 29t-33 11q-22 0 -37 -17t-17 -44l-110 14q7 69 54.5 108.5t114.5 39.5t113.5 -34t46.5 -100q0 -30 -12 -56t-25.5 -41t-38.5 -37l-87 -77h163v-100z" />
    <glyph glyph-name="three.numerator" horiz-adv-x="420" 
d="M379 400q0 -67 -49 -102t-115 -35q-63 0 -110.5 30t-65.5 92l105 28q16 -53 64 -53q23 0 39.5 11t16.5 35q0 47 -78 47h-33v84h36q65 0 65 47q0 17 -13 27.5t-33 10.5q-18 0 -32.5 -13t-18.5 -35l-105 25q16 56 61.5 87t102.5 31q64 0 108.5 -31t44.5 -90q0 -68 -57 -96
q32 -11 49.5 -37.5t17.5 -62.5z" />
    <glyph glyph-name="four.numerator" horiz-adv-x="420" 
d="M335 272h-106v83h-200v93l175 260h131v-259h58v-94h-58v-83zM229 449v134h-1l-88 -134h89z" />
    <glyph glyph-name="five.numerator" horiz-adv-x="420" 
d="M378 420q0 -76 -49.5 -116.5t-119.5 -40.5q-61 0 -106.5 31t-61.5 86l103 31q16 -51 63 -51q25 0 40.5 14.5t15.5 40.5q0 28 -20.5 43t-56.5 15q-54 0 -112 -24l10 259h273v-100h-170l-3 -51q19 3 36 3q69 0 113.5 -37t44.5 -103z" />
    <glyph glyph-name="six.numerator" horiz-adv-x="420" 
d="M383 422q0 -73 -49.5 -116t-123.5 -43t-123.5 43.5t-49.5 113.5q0 64 47 135l104 153h139l-105 -142l1 -1q4 1 18 1q58 0 100 -40.5t42 -103.5zM269 420q0 25 -16.5 42.5t-42.5 17.5t-42.5 -17.5t-16.5 -43.5q0 -25 16 -42t42 -17q27 0 43.5 17t16.5 43z" />
    <glyph glyph-name="seven.numerator" horiz-adv-x="420" 
d="M210 272h-133l171 336h-194v100h320v-87z" />
    <glyph glyph-name="eight.numerator" horiz-adv-x="420" 
d="M375 399q0 -66 -47.5 -101t-117.5 -35t-117.5 35t-47.5 101q0 71 68 101v2q-58 26 -58 89q0 59 45 92.5t110 33.5t110 -32.5t45 -91.5q0 -65 -57 -91v-2q30 -12 48.5 -39t18.5 -62zM210 627q-19 0 -31.5 -12.5t-12.5 -30.5t12.5 -30.5t31.5 -12.5t31.5 12.5t12.5 30.5
t-12.5 30.5t-31.5 12.5zM210 455q-23 0 -38 -14.5t-15 -36.5t15 -35.5t38 -13.5t38 13.5t15 35.5q0 21 -15.5 36t-37.5 15z" />
    <glyph glyph-name="nine.numerator" horiz-adv-x="420" 
d="M383 560q0 -63 -48 -135l-103 -153h-140l105 142l-1 2q-5 -2 -18 -2q-59 0 -100 41t-41 103q0 72 49.5 115.5t122.5 43.5q74 0 124 -43t50 -114zM268 561q0 25 -16 42.5t-42 17.5q-27 0 -43.5 -17t-16.5 -44q0 -25 16.5 -42t42.5 -17t42.5 17t16.5 43z" />
    <glyph glyph-name="cyrbreve" 
d="M150 572q-143 0 -165 131l80 16q9 -59 85 -59q77 0 84 59l80 -16q-10 -66 -53.5 -98.5t-110.5 -32.5z" />
    <glyph glyph-name="cyrbreve.cap" 
d="M150 764q-71 0 -117.5 35t-57.5 105l85 17q4 -31 28 -49t62 -18q37 0 61 18t28 49l86 -17q-12 -70 -58 -105t-117 -35z" />
    <glyph glyph-name="exclam.sc" horiz-adv-x="339" 
d="M252 563v-343h-166v343h166zM266 83q0 -40 -28 -66.5t-69 -26.5q-40 0 -68 26.5t-28 65.5t28 66.5t68 27.5q41 0 69 -27t28 -66z" />
    <glyph glyph-name="dollar.sc" horiz-adv-x="576" 
d="M331 616v-52q99 -6 174 -60l-84 -107q-39 36 -88 44v-94q89 -22 135.5 -62t46.5 -109q0 -82 -52 -127.5t-139 -49.5v-57h-70v56q-54 1 -108 18t-86 47l95 109q39 -42 99 -48v103q-92 24 -134 59.5t-42 108.5q0 71 55.5 117.5t127.5 51.5v52h70zM263 362v80
q-19 -3 -29.5 -13t-10.5 -23q0 -31 40 -44zM324 213v-89q43 6 43 42q0 32 -43 47z" />
    <glyph glyph-name="percent.sc" horiz-adv-x="813" 
d="M338 424q0 -63 -47 -108t-110 -45q-64 0 -110.5 45t-46.5 108t46.5 107.5t110.5 44.5t110.5 -44.5t46.5 -107.5zM228 424q0 20 -13.5 32.5t-33.5 12.5t-33.5 -12.5t-13.5 -32.5t13.5 -32.5t33.5 -12.5t33.5 12.5t13.5 32.5zM772 138q0 -63 -47 -108t-110 -45
q-64 0 -110.5 45t-46.5 108t46.5 107.5t110.5 44.5t110.5 -44.5t46.5 -107.5zM662 138q0 20 -13.5 32.5t-33.5 12.5t-33.5 -12.5t-13.5 -32.5t13.5 -32.5t33.5 -12.5t33.5 12.5t13.5 32.5zM608 551l-335 -584l-88 42l332 587z" />
    <glyph glyph-name="ampersand.sc" horiz-adv-x="693" 
d="M667 297l-146 -157l141 -140h-198l-38 40q-72 -56 -170 -56q-96 0 -153.5 46.5t-57.5 128.5q0 54 28 91t84 67q-49 49 -49 110q0 66 52 109t138 43q83 0 132.5 -40.5t49.5 -107.5q0 -91 -106 -145l51 -52l48 63h194zM331 135l-85 90q-41 -16 -41 -61q0 -25 18 -40t42 -15
q40 0 66 26zM298 461q-16 0 -27 -10.5t-11 -26.5q0 -25 28 -53q49 21 49 53q0 16 -11 26.5t-28 10.5z" />
    <glyph glyph-name="parenleft.sc" horiz-adv-x="297" 
d="M150 281q0 -169 102 -311l-105 -53q-122 168 -122 364q0 195 122 363l105 -54q-102 -141 -102 -309z" />
    <glyph glyph-name="parenright.sc" horiz-adv-x="297" 
d="M272 280q0 -195 -122 -363l-105 53q102 142 102 310q0 169 -102 310l105 54q122 -168 122 -364z" />
    <glyph glyph-name="bracketleft.sc" horiz-adv-x="297" 
d="M238 -70h-197v701h197v-98h-73v-505h73v-98z" />
    <glyph glyph-name="backslash.sc" horiz-adv-x="352" 
d="M354 -6l-112 -38l-244 614l112 39z" />
    <glyph glyph-name="bracketright.sc" horiz-adv-x="297" 
d="M256 -70h-197v98h73v505h-73v98h197v-701z" />
    <glyph glyph-name="braceleft.sc" horiz-adv-x="297" 
d="M255 -70h-76q-57 0 -88.5 34t-31.5 95v115q0 54 -54 54v105q54 0 54 54v115q0 60 31.5 94.5t88.5 34.5h76v-99h-40q-34 0 -34 -39v-103q0 -48 -24 -75.5t-62 -33.5v-1q38 -6 62 -34t24 -75v-103q0 -39 34 -39h40v-99z" />
    <glyph glyph-name="slash.sc" horiz-adv-x="352" 
d="M110 -44l-112 38l244 615l112 -39z" />
    <glyph glyph-name="braceright.sc" horiz-adv-x="297" 
d="M118 -70h-76v99h40q34 0 34 39v103q0 47 24 75t62 34v1q-38 6 -62 33.5t-24 75.5v103q0 39 -34 39h-40v99h76q57 0 88.5 -34.5t31.5 -94.5v-115q0 -54 54 -54v-105q-54 0 -54 -54v-115q0 -61 -31.5 -95t-88.5 -34z" />
    <glyph glyph-name="zero.sc" horiz-adv-x="576" 
d="M288 -16q-117 0 -180 85.5t-63 213.5t63 212t180 84t180 -84t63 -212t-63 -213.5t-180 -85.5zM288 433q-35 0 -54.5 -41.5t-19.5 -108.5q0 -68 19 -109t55 -41t55 41t19 109t-19 109t-55 41z" />
    <glyph glyph-name="one.sc" horiz-adv-x="576" 
d="M238 0v375l-100 -75l-88 116l201 147h153v-563h-166z" />
    <glyph glyph-name="two.sc" horiz-adv-x="576" 
d="M75 121l215 189q46 41 46 81q0 20 -14 34t-36 14q-24 0 -41 -17t-21 -52l-158 22q9 86 75 136.5t154 50.5t151.5 -44.5t63.5 -128.5q0 -53 -23.5 -95.5t-78.5 -87.5l-105 -88h209v-135h-437v121z" />
    <glyph glyph-name="three.sc" horiz-adv-x="576" 
d="M419 296v-3q92 -30 92 -129q0 -59 -34.5 -101.5t-85 -60.5t-109.5 -18q-88 0 -151 37t-87 116l153 42q20 -63 80 -63q30 0 47.5 14.5t17.5 41.5q0 29 -22.5 46t-62.5 17h-37v109h36q34 0 54 15.5t20 41.5q0 21 -14.5 34.5t-38.5 13.5q-23 0 -40.5 -15t-23.5 -41l-154 36
q21 74 82.5 112t141.5 38q91 0 153 -40.5t62 -118.5q0 -91 -79 -124z" />
    <glyph glyph-name="four.sc" horiz-adv-x="576" 
d="M457 104v-104h-153v104h-268v129l218 330h203v-339h73v-120h-73zM302 409l-116 -185h118v185h-2z" />
    <glyph glyph-name="five.sc" horiz-adv-x="576" 
d="M512 187q0 -98 -64 -150.5t-164 -52.5q-179 0 -230 151l151 46q21 -61 75 -61q30 0 48 17.5t18 44.5q0 38 -25 56.5t-66 18.5q-75 0 -153 -29l14 335h367v-127h-219l-5 -71q24 6 57 6q88 0 142 -48t54 -136z" />
    <glyph glyph-name="six.sc" horiz-adv-x="576" 
d="M294 370l2 -2q14 5 35 5q86 0 139.5 -46.5t53.5 -133.5q0 -94 -67 -151.5t-170 -57.5q-104 0 -170.5 58t-66.5 154q0 83 75 195l114 172h200zM287 263q-31 0 -51 -20t-21 -53t20 -52t52 -19q30 0 51 19t21 52t-21 53t-51 20z" />
    <glyph glyph-name="seven.sc" horiz-adv-x="576" 
d="M296 0h-181l222 424h-256v139h424v-128z" />
    <glyph glyph-name="eight.sc" horiz-adv-x="576" 
d="M288 459q-23 0 -38.5 -15t-15.5 -39t15 -39t39 -15q23 0 38.5 15t15.5 39t-15.5 39t-38.5 15zM288 233q-28 0 -46 -17.5t-18 -45.5q0 -29 18 -46t46 -17t46 17t18 46q0 28 -18.5 45.5t-45.5 17.5zM422 297v-3q96 -37 96 -132q0 -86 -65 -132t-165 -46t-165 45.5
t-65 132.5q0 46 25.5 80t70.5 52v3q-80 34 -80 117q0 78 60.5 121.5t153.5 43.5t153.5 -42.5t60.5 -119.5q0 -87 -80 -120z" />
    <glyph glyph-name="nine.sc" horiz-adv-x="576" 
d="M281 191l-2 2q-15 -4 -37 -4q-77 0 -128.5 49t-51.5 134q0 94 66.5 150.5t170.5 56.5t170 -56t66 -148q0 -81 -62 -175l-131 -200h-201zM299 304q32 0 51.5 20t19.5 52t-20 52.5t-51 20.5q-32 0 -52.5 -20.5t-20.5 -52.5t20.5 -52t52.5 -20z" />
    <glyph glyph-name="question.sc" horiz-adv-x="500" 
d="M330 220h-163v19q0 61 57 102l23 17q32 23 32 49q0 13 -9.5 23.5t-26.5 10.5q-34 0 -40 -43l-156 18q6 64 59.5 113.5t143.5 49.5q92 0 142.5 -46.5t50.5 -116.5q0 -43 -17 -74.5t-58 -61.5q-38 -27 -38 -51v-9zM346 84q0 -40 -27.5 -67t-68.5 -27q-40 0 -68.5 27
t-28.5 66t28.5 66.5t68.5 27.5t68 -27t28 -66z" />
    <glyph glyph-name="a.sc" horiz-adv-x="641" 
d="M-2 0l237 563h174l234 -563h-181l-38 102h-210l-39 -102h-177zM382 222l-63 172l-64 -172h127z" />
    <glyph glyph-name="b.sc" horiz-adv-x="571" 
d="M70 563h242q202 0 202 -149q0 -86 -78 -116v-3q101 -21 101 -130q0 -87 -64 -126t-164 -39h-239v563zM233 235v-114h65q31 0 50.5 15t19.5 45q0 54 -68 54h-67zM233 440v-100h58q26 0 43 14t17 39q0 47 -62 47h-56z" />
    <glyph glyph-name="c.sc" horiz-adv-x="578" 
d="M562 501l-102 -118q-37 49 -108 49q-59 0 -97.5 -44t-38.5 -106q0 -63 38.5 -106t100.5 -43q72 0 109 47l98 -121q-77 -75 -210 -75q-136 0 -224.5 81t-88.5 217q0 133 89.5 215t222.5 82q60 0 118 -21.5t93 -56.5z" />
    <glyph glyph-name="d.sc" horiz-adv-x="655" 
d="M293 0h-223v563h218q67 0 123.5 -14.5t104 -45.5t74 -87t26.5 -133q0 -71 -27 -127t-72.5 -89t-102.5 -50t-121 -17zM236 432v-299h42q162 0 162 152q0 147 -159 147h-45z" />
    <glyph glyph-name="e.sc" horiz-adv-x="535" 
d="M70 0v563h399v-127h-236v-90h223v-122h-223v-96h250v-128h-413z" />
    <glyph glyph-name="f.sc" horiz-adv-x="503" 
d="M236 436v-104h207v-122h-206v-210h-167v563h392v-127h-226z" />
    <glyph glyph-name="g.sc" horiz-adv-x="645" 
d="M358 -16q-141 0 -230 80.5t-89 218.5q0 133 91 214.5t228 81.5q141 0 228 -74l-108 -123q-47 53 -117 53q-64 0 -104.5 -42t-40.5 -111q0 -71 40 -112.5t107 -41.5q44 0 71 11v76h-100v118h256v-295q-105 -54 -232 -54z" />
    <glyph glyph-name="h.sc" horiz-adv-x="656" 
d="M419 0v226h-182v-226h-167v563h167v-209h182v209h167v-563h-167z" />
    <glyph glyph-name="i.sc" horiz-adv-x="307" 
d="M70 0v563h167v-563h-167z" />
    <glyph glyph-name="j.sc" horiz-adv-x="476" 
d="M202 -16q-77 0 -131 42t-70 110l149 49q8 -55 49 -55q44 0 44 58v375h167v-369q0 -91 -48 -150.5t-160 -59.5z" />
    <glyph glyph-name="k.sc" horiz-adv-x="623" 
d="M417 0l-179 250h-2v-250h-166v563h166v-225h2l177 225h201l-228 -260l241 -303h-212z" />
    <glyph glyph-name="l.sc" horiz-adv-x="471" 
d="M70 0v563h167v-423h208v-140h-375z" />
    <glyph glyph-name="m.sc" horiz-adv-x="809" 
d="M342 0l-112 346h-3l3 -346h-160v563h225l111 -328h4l106 328h223v-563h-165l3 346h-3l-115 -346h-117z" />
    <glyph glyph-name="n.sc" horiz-adv-x="672" 
d="M70 0v563h184l190 -323h2l-5 323h161v-563h-182l-191 319h-3l4 -319h-160z" />
    <glyph glyph-name="o.sc" horiz-adv-x="704" 
d="M665 283q0 -133 -91 -216t-223 -83q-131 0 -221.5 83t-90.5 216q0 132 91 214t221 82q132 0 223 -82t91 -214zM490 283q0 58 -37.5 101.5t-101.5 43.5q-63 0 -99 -43.5t-36 -101.5q0 -60 36.5 -103.5t100.5 -43.5q63 0 100 44t37 103z" />
    <glyph glyph-name="p.sc" horiz-adv-x="555" 
d="M237 185v-185h-167v563h231q108 0 170 -45t62 -137q0 -97 -63.5 -146.5t-170.5 -49.5h-62zM237 436v-126h49q37 0 58.5 17.5t21.5 50.5q0 26 -19 42t-58 16h-52z" />
    <glyph glyph-name="q.sc" horiz-adv-x="709" 
d="M588 132v-4l107 5v-133h-349q-140 0 -223.5 75t-83.5 213q0 129 88.5 210t223.5 81q139 0 225 -75t86 -202q0 -105 -74 -170zM215 286q0 -67 37 -108.5t99 -41.5q64 0 100.5 41.5t36.5 108.5q0 61 -37 103t-100 42q-60 0 -98 -42t-38 -103z" />
    <glyph glyph-name="r.sc" horiz-adv-x="568" 
d="M70 0v563h235q102 0 163.5 -41.5t61.5 -132.5q0 -57 -27 -98.5t-75 -60.5l137 -230h-184l-108 200h-38v-200h-165zM235 436v-116h55q74 0 74 63q0 53 -73 53h-56z" />
    <glyph glyph-name="s.sc" horiz-adv-x="507" 
d="M473 498l-95 -103q-54 50 -111 50q-26 0 -45 -11.5t-19 -33.5t20 -33t75 -24q168 -39 168 -168q0 -98 -66.5 -144.5t-158.5 -46.5q-66 0 -127.5 22.5t-100.5 64.5l96 108q53 -62 130 -62q25 0 43 11.5t18 36.5q0 24 -23 36.5t-81 27.5q-43 11 -73.5 26t-55 50t-24.5 85
q0 92 66.5 140.5t152.5 48.5q60 0 116.5 -21t94.5 -60z" />
    <glyph glyph-name="t.sc" horiz-adv-x="483" 
d="M325 425v-425h-167v425h-153v138h473v-138h-153z" />
    <glyph glyph-name="u.sc" horiz-adv-x="646" 
d="M321 -16q-118 0 -186.5 63.5t-68.5 170.5v345h167v-334q0 -46 23.5 -72.5t65.5 -26.5q43 0 67 26.5t24 72.5v334h167v-345q0 -107 -69.5 -170.5t-189.5 -63.5z" />
    <glyph glyph-name="v.sc" horiz-adv-x="589" 
d="M210 0l-214 563h181l118 -361h4l117 361h177l-218 -563h-165z" />
    <glyph glyph-name="w.sc" horiz-adv-x="878" 
d="M874 563l-173 -563h-165l-98 350h-2l-96 -350h-164l-172 563h177l85 -356h3l89 356h166l91 -356h2l87 356h170z" />
    <glyph glyph-name="x.sc" horiz-adv-x="610" 
d="M408 0l-107 173l-105 -173h-196l198 297l-180 266h197l90 -152l90 152h189l-178 -266l204 -297h-202z" />
    <glyph glyph-name="y.sc" horiz-adv-x="566" 
d="M365 222v-222h-167v222l-208 341h196l101 -201l100 201h189z" />
    <glyph glyph-name="z.sc" horiz-adv-x="569" 
d="M53 0v126l245 301h-239v136h451v-122l-247 -302h253v-139h-463z" />
    <glyph glyph-name="agrave.sc" horiz-adv-x="641" 
d="M-2 0l237 563h174l234 -563h-181l-38 102h-210l-39 -102h-177zM382 222l-63 172l-64 -172h127zM394 622h-124l-146 144h166z" />
    <glyph glyph-name="aacute.sc" horiz-adv-x="641" 
d="M-2 0l237 563h174l234 -563h-181l-38 102h-210l-39 -102h-177zM382 222l-63 172l-64 -172h127zM522 766l-146 -144h-124l104 144h166z" />
    <glyph glyph-name="acircumflex.sc" horiz-adv-x="641" 
d="M-2 0l237 563h174l234 -563h-181l-38 102h-210l-39 -102h-177zM382 222l-63 172l-64 -172h127zM517 622h-130l-68 81l-68 -81h-128l124 144h148z" />
    <glyph glyph-name="atilde.sc" horiz-adv-x="641" 
d="M-2 0l237 563h174l234 -563h-181l-38 102h-210l-39 -102h-177zM382 222l-63 172l-64 -172h127zM506 758q-7 -58 -34.5 -95t-78.5 -37q-39 0 -81 21q-42 20 -63 20q-31 0 -42 -40h-72q17 130 113 130q37 0 80 -20t65 -20q32 0 42 41h71z" />
    <glyph glyph-name="adieresis.sc" horiz-adv-x="641" 
d="M-2 0l237 563h174l234 -563h-181l-38 102h-210l-39 -102h-177zM382 222l-63 172l-64 -172h127zM512 708q0 -34 -24.5 -58t-58.5 -24q-35 0 -59 24t-24 58q0 33 24 57t59 24q34 0 58.5 -23.5t24.5 -57.5zM295 708q0 -34 -24.5 -58t-59.5 -24q-34 0 -58.5 24t-24.5 58
q0 33 24.5 57t58.5 24q35 0 59.5 -23.5t24.5 -57.5z" />
    <glyph glyph-name="amacron.sc" horiz-adv-x="641" 
d="M-2 0l237 563h174l234 -563h-181l-38 102h-210l-39 -102h-177zM382 222l-63 172l-64 -172h127zM488 651h-336v86h336v-86z" />
    <glyph glyph-name="abreve.sc" horiz-adv-x="641" 
d="M-2 0l237 563h174l234 -563h-181l-38 102h-210l-39 -102h-177zM382 222l-63 172l-64 -172h127zM494 766q-6 -74 -53 -109t-122 -35q-74 0 -121 35t-52 109h84q9 -55 90 -55q39 0 61.5 11.5t28.5 43.5h84z" />
    <glyph glyph-name="aring.sc" horiz-adv-x="641" 
d="M-2 0l237 563h174l234 -563h-181l-38 102h-210l-39 -102h-177zM382 222l-63 172l-64 -172h127zM429 714q0 -46 -31.5 -76.5t-77.5 -30.5q-45 0 -77 30.5t-32 75.5q0 46 31.5 77t77.5 31q45 0 77 -31t32 -76zM379 714q0 25 -17 41.5t-42 16.5t-42 -17t-17 -42
q0 -24 17 -40.5t42 -16.5t42 16.5t17 41.5z" />
    <glyph glyph-name="aogonek.sc" horiz-adv-x="641" 
d="M582 -200q-54 -40 -115 -40q-46 0 -79.5 23t-33.5 68q0 73 108 149l-38 102h-210l-39 -102h-177l237 563h174l234 -563h-90q-95 -75 -95 -122q0 -16 10.5 -26t26.5 -10q27 0 55 20zM382 222l-63 172l-64 -172h127z" />
    <glyph glyph-name="ae.sc" horiz-adv-x="892" 
d="M427 0v112h-177l-64 -112h-191l329 563h502v-127h-236v-90h223v-122h-223v-96h250v-128h-413zM420 430l-111 -198h118v198h-7z" />
    <glyph glyph-name="cacute.sc" horiz-adv-x="578" 
d="M562 501l-102 -118q-37 49 -108 49q-59 0 -97.5 -44t-38.5 -106q0 -63 38.5 -106t100.5 -43q72 0 109 47l98 -121q-77 -75 -210 -75q-136 0 -224.5 81t-88.5 217q0 133 89.5 215t222.5 82q60 0 118 -21.5t93 -56.5zM515 766l-146 -144h-124l104 144h166z" />
    <glyph glyph-name="ccircumflex.sc" horiz-adv-x="578" 
d="M562 501l-102 -118q-37 49 -108 49q-59 0 -97.5 -44t-38.5 -106q0 -63 38.5 -106t100.5 -43q72 0 109 47l98 -121q-77 -75 -210 -75q-136 0 -224.5 81t-88.5 217q0 133 89.5 215t222.5 82q60 0 118 -21.5t93 -56.5zM547 622h-130l-68 81l-68 -81h-128l124 144h148z" />
    <glyph glyph-name="ccaron.sc" horiz-adv-x="578" 
d="M562 501l-102 -118q-37 49 -108 49q-59 0 -97.5 -44t-38.5 -106q0 -63 38.5 -106t100.5 -43q72 0 109 47l98 -121q-77 -75 -210 -75q-136 0 -224.5 81t-88.5 217q0 133 89.5 215t222.5 82q60 0 118 -21.5t93 -56.5zM548 766l-123 -144h-147l-124 144h130l68 -81l68 81
h128z" />
    <glyph glyph-name="cdotaccent.sc" horiz-adv-x="578" 
d="M562 501l-102 -118q-37 49 -108 49q-59 0 -97.5 -44t-38.5 -106q0 -63 38.5 -106t100.5 -43q72 0 109 47l98 -121q-77 -75 -210 -75q-136 0 -224.5 81t-88.5 217q0 133 89.5 215t222.5 82q60 0 118 -21.5t93 -56.5zM441 707q0 -36 -26 -60.5t-64 -24.5q-37 0 -63 25
t-26 60t26 60.5t63 25.5q38 0 64 -25t26 -61z" />
    <glyph glyph-name="ccedilla.sc" horiz-adv-x="578" 
d="M463 -142q0 -52 -44.5 -75t-102.5 -23q-67 0 -119 25l27 60q40 -19 84 -19q50 0 50 33q0 29 -47 29q-22 0 -40 -6l-31 29l58 77q-115 15 -187 93.5t-72 200.5q0 133 89.5 215t222.5 82q60 0 118 -21.5t93 -56.5l-102 -118q-37 49 -108 49q-59 0 -97.5 -44t-38.5 -106
q0 -63 38.5 -106t100.5 -43q72 0 109 47l98 -121q-68 -66 -185 -74l-35 -45q7 1 18 1q103 0 103 -83z" />
    <glyph glyph-name="dcaron.sc" horiz-adv-x="655" 
d="M293 0h-223v563h218q67 0 123.5 -14.5t104 -45.5t74 -87t26.5 -133q0 -71 -27 -127t-72.5 -89t-102.5 -50t-121 -17zM236 432v-299h42q162 0 162 152q0 147 -159 147h-45zM504 766l-123 -144h-147l-124 144h130l68 -81l68 81h128z" />
    <glyph glyph-name="dcroat.sc" horiz-adv-x="655" 
d="M293 0h-223v235h-62v105h62v223h218q67 0 123.5 -14.5t104 -45.5t74 -87t26.5 -133q0 -71 -27 -127t-72.5 -89t-102.5 -50t-121 -17zM236 432v-92h99v-105h-99v-103h42q162 0 162 152q0 148 -159 148h-45z" />
    <glyph glyph-name="eth.sc" horiz-adv-x="655" 
d="M293 0h-223v235h-62v105h62v223h218q67 0 123.5 -14.5t104 -45.5t74 -87t26.5 -133q0 -71 -27 -127t-72.5 -89t-102.5 -50t-121 -17zM236 432v-92h99v-105h-99v-103h42q162 0 162 152q0 148 -159 148h-45z" />
    <glyph glyph-name="egrave.sc" horiz-adv-x="535" 
d="M70 0v563h399v-127h-236v-90h223v-122h-223v-96h250v-128h-413zM352 622h-124l-146 144h166z" />
    <glyph glyph-name="eacute.sc" horiz-adv-x="535" 
d="M70 0v563h399v-127h-236v-90h223v-122h-223v-96h250v-128h-413zM468 766l-146 -144h-124l104 144h166z" />
    <glyph glyph-name="ecircumflex.sc" horiz-adv-x="535" 
d="M70 0v563h399v-127h-236v-90h223v-122h-223v-96h250v-128h-413zM464 622h-130l-68 81l-68 -81h-128l124 144h148z" />
    <glyph glyph-name="ecaron.sc" horiz-adv-x="535" 
d="M70 0v563h399v-127h-236v-90h223v-122h-223v-96h250v-128h-413zM468 766l-123 -144h-147l-124 144h130l68 -81l68 81h128z" />
    <glyph glyph-name="edieresis.sc" horiz-adv-x="535" 
d="M70 0v563h399v-127h-236v-90h223v-122h-223v-96h250v-128h-413zM459 708q0 -34 -24.5 -58t-58.5 -24q-35 0 -59 24t-24 58q0 33 24 57t59 24q34 0 58.5 -23.5t24.5 -57.5zM242 708q0 -34 -24.5 -58t-59.5 -24q-34 0 -58.5 24t-24.5 58q0 33 24.5 57t58.5 24
q35 0 59.5 -23.5t24.5 -57.5z" />
    <glyph glyph-name="emacron.sc" horiz-adv-x="535" 
d="M70 0v563h399v-127h-236v-90h223v-122h-223v-96h250v-128h-413zM437 651h-336v86h336v-86z" />
    <glyph glyph-name="ebreve.sc" horiz-adv-x="535" 
d="M70 0v563h399v-127h-236v-90h223v-122h-223v-96h250v-128h-413zM445 766q-6 -74 -53 -109t-122 -35q-74 0 -121 35t-52 109h84q9 -55 90 -55q39 0 61.5 11.5t28.5 43.5h84z" />
    <glyph glyph-name="edotaccent.sc" horiz-adv-x="535" 
d="M70 0v563h399v-127h-236v-90h223v-122h-223v-96h250v-128h-413zM361 707q0 -36 -26 -60.5t-64 -24.5q-37 0 -63 25t-26 60t26 60.5t63 25.5q38 0 64 -25t26 -61z" />
    <glyph glyph-name="eogonek.sc" horiz-adv-x="535" 
d="M70 0v563h399v-127h-236v-90h223v-122h-223v-96h250v-128h-23q-95 -75 -95 -122q0 -16 10.5 -26t26.5 -10q27 0 55 20l32 -62q-54 -40 -115 -40q-46 0 -79.5 23t-33.5 68q0 73 108 149h-299z" />
    <glyph glyph-name="gcircumflex.sc" horiz-adv-x="645" 
d="M358 -16q-141 0 -230 80.5t-89 218.5q0 133 91 214.5t228 81.5q141 0 228 -74l-108 -123q-47 53 -117 53q-64 0 -104.5 -42t-40.5 -111q0 -71 40 -112.5t107 -41.5q44 0 71 11v76h-100v118h256v-295q-105 -54 -232 -54zM557 622h-130l-68 81l-68 -81h-128l124 144h148z
" />
    <glyph glyph-name="gbreve.sc" horiz-adv-x="645" 
d="M358 -16q-141 0 -230 80.5t-89 218.5q0 133 91 214.5t228 81.5q141 0 228 -74l-108 -123q-47 53 -117 53q-64 0 -104.5 -42t-40.5 -111q0 -71 40 -112.5t107 -41.5q44 0 71 11v76h-100v118h256v-295q-105 -54 -232 -54zM536 766q-6 -74 -53 -109t-122 -35q-74 0 -121 35
t-52 109h84q9 -55 90 -55q39 0 61.5 11.5t28.5 43.5h84z" />
    <glyph glyph-name="gdotaccent.sc" horiz-adv-x="645" 
d="M358 -16q-141 0 -230 80.5t-89 218.5q0 133 91 214.5t228 81.5q141 0 228 -74l-108 -123q-47 53 -117 53q-64 0 -104.5 -42t-40.5 -111q0 -71 40 -112.5t107 -41.5q44 0 71 11v76h-100v118h256v-295q-105 -54 -232 -54zM451 707q0 -36 -26 -60.5t-64 -24.5q-37 0 -63 25
t-26 60t26 60.5t63 25.5q38 0 64 -25t26 -61z" />
    <glyph glyph-name="gcommaaccent.sc" horiz-adv-x="645" 
d="M358 -16q-141 0 -230 80.5t-89 218.5q0 133 91 214.5t228 81.5q141 0 228 -74l-108 -123q-47 53 -117 53q-64 0 -104.5 -42t-40.5 -111q0 -71 40 -112.5t107 -41.5q44 0 71 11v76h-100v118h256v-295q-105 -54 -232 -54zM418 -45l-86 -195h-126l67 195h145z" />
    <glyph glyph-name="kgreenlandic.sc" horiz-adv-x="623" 
d="M417 0l-179 250h-2v-250h-166v563h166v-225h2l177 225h201l-228 -260l241 -303h-212z" />
    <glyph glyph-name="hcircumflex.sc" horiz-adv-x="656" 
d="M419 0v226h-182v-226h-167v563h167v-209h182v209h167v-563h-167zM527 622h-130l-68 81l-68 -81h-128l124 144h148z" />
    <glyph glyph-name="hbar.sc" horiz-adv-x="656" 
d="M419 0v216h-182v-216h-167v563h167v-75h182v75h167v-563h-167zM237 344h182v66h-182v-66z" />
    <glyph glyph-name="igrave.sc" horiz-adv-x="307" 
d="M70 0v563h167v-563h-167zM221 622h-124l-146 144h166z" />
    <glyph glyph-name="iacute.sc" horiz-adv-x="307" 
d="M70 0v563h167v-563h-167zM354 766l-146 -144h-124l104 144h166z" />
    <glyph glyph-name="ibreve.sc" horiz-adv-x="307" 
d="M70 0v563h167v-563h-167zM327 766q-6 -74 -53 -109t-122 -35q-74 0 -121 35t-52 109h84q9 -55 90 -55q39 0 61.5 11.5t28.5 43.5h84z" />
    <glyph glyph-name="icircumflex.sc" horiz-adv-x="307" 
d="M70 0v563h167v-563h-167zM351 622h-130l-68 81l-68 -81h-128l124 144h148z" />
    <glyph glyph-name="itilde.sc" horiz-adv-x="307" 
d="M70 0v563h167v-563h-167zM340 758q-7 -58 -34.5 -95t-78.5 -37q-39 0 -81 21q-42 20 -63 20q-31 0 -42 -40h-72q17 130 113 130q37 0 80 -20t65 -20q32 0 42 41h71z" />
    <glyph glyph-name="idieresis.sc" horiz-adv-x="307" 
d="M70 0v563h167v-563h-167zM346 708q0 -34 -24.5 -58t-58.5 -24q-35 0 -59 24t-24 58q0 33 24 57t59 24q34 0 58.5 -23.5t24.5 -57.5zM129 708q0 -34 -24.5 -58t-59.5 -24q-34 0 -58.5 24t-24.5 58q0 33 24.5 57t58.5 24q35 0 59.5 -23.5t24.5 -57.5z" />
    <glyph glyph-name="imacron.sc" horiz-adv-x="307" 
d="M70 0v563h167v-563h-167zM322 651h-336v86h336v-86z" />
    <glyph glyph-name="idotaccent.sc" horiz-adv-x="307" 
d="M70 0v563h167v-563h-167zM240 707q0 -36 -26 -60.5t-64 -24.5q-37 0 -63 25t-26 60t26 60.5t63 25.5q38 0 64 -25t26 -61z" />
    <glyph glyph-name="iogonek.sc" horiz-adv-x="307" 
d="M70 0v563h167v-563q-95 -75 -95 -122q0 -16 10.5 -26t26.5 -10q27 0 55 20l32 -62q-54 -40 -115 -40q-46 0 -79.5 23t-33.5 68q0 73 108 149h-76z" />
    <glyph glyph-name="jcircumflex.sc" horiz-adv-x="476" 
d="M202 -16q-77 0 -131 42t-70 110l149 49q8 -55 49 -55q44 0 44 58v375h167v-369q0 -91 -48 -150.5t-160 -59.5zM523 622h-130l-68 81l-68 -81h-128l124 144h148z" />
    <glyph glyph-name="kcommaaccent.sc" horiz-adv-x="623" 
d="M417 0l-179 250h-2v-250h-166v563h166v-225h2l177 225h201l-228 -260l241 -303h-212zM387 -45l-86 -195h-126l67 195h145z" />
    <glyph glyph-name="lacute.sc" horiz-adv-x="471" 
d="M70 0v563h167v-423h208v-140h-375zM360 766l-146 -144h-124l104 144h166z" />
    <glyph glyph-name="lcaron.sc" horiz-adv-x="471" 
d="M70 0v563h167v-423h208v-140h-375zM484 563l-86 -195h-126l67 195h145z" />
    <glyph glyph-name="lcommaaccent.sc" horiz-adv-x="471" 
d="M70 0v563h167v-423h208v-140h-375zM329 -45l-86 -195h-126l67 195h145z" />
    <glyph glyph-name="lslash.sc" horiz-adv-x="471" 
d="M70 0v171l-64 -50v142l64 49v251h167v-121l107 83v-141l-107 -83v-161h208v-140h-375z" />
    <glyph glyph-name="ldot.sc" horiz-adv-x="471" 
d="M70 0v563h167v-423h208v-140h-375zM470 347q0 -36 -26 -60.5t-64 -24.5q-37 0 -63 25t-26 60t26 60.5t63 25.5q38 0 64 -25t26 -61z" />
    <glyph glyph-name="nacute.sc" horiz-adv-x="672" 
d="M70 0v563h184l190 -323h2l-5 323h161v-563h-182l-191 319h-3l4 -319h-160zM518 766l-146 -144h-124l104 144h166z" />
    <glyph glyph-name="ncaron.sc" horiz-adv-x="672" 
d="M70 0v563h184l190 -323h2l-5 323h161v-563h-182l-191 319h-3l4 -319h-160zM533 766l-123 -144h-147l-124 144h130l68 -81l68 81h128z" />
    <glyph glyph-name="ntilde.sc" horiz-adv-x="672" 
d="M70 0v563h184l190 -323h2l-5 323h161v-563h-182l-191 319h-3l4 -319h-160zM518 758q-7 -58 -34.5 -95t-78.5 -37q-39 0 -81 21q-42 20 -63 20q-31 0 -42 -40h-72q17 130 113 130q37 0 80 -20t65 -20q32 0 42 41h71z" />
    <glyph glyph-name="ncommaaccent.sc" horiz-adv-x="672" 
d="M70 0v563h184l190 -323h2l-5 323h161v-563h-182l-191 319h-3l4 -319h-160zM409 -45l-86 -195h-126l67 195h145z" />
    <glyph glyph-name="ograve.sc" horiz-adv-x="704" 
d="M665 283q0 -133 -91 -216t-223 -83q-131 0 -221.5 83t-90.5 216q0 132 91 214t221 82q132 0 223 -82t91 -214zM490 283q0 58 -37.5 101.5t-101.5 43.5q-63 0 -99 -43.5t-36 -101.5q0 -60 36.5 -103.5t100.5 -43.5q63 0 100 44t37 103zM424 622h-124l-146 144h166z" />
    <glyph glyph-name="oacute.sc" horiz-adv-x="704" 
d="M665 283q0 -133 -91 -216t-223 -83q-131 0 -221.5 83t-90.5 216q0 132 91 214t221 82q132 0 223 -82t91 -214zM490 283q0 58 -37.5 101.5t-101.5 43.5q-63 0 -99 -43.5t-36 -101.5q0 -60 36.5 -103.5t100.5 -43.5q63 0 100 44t37 103zM546 766l-146 -144h-124l104 144
h166z" />
    <glyph glyph-name="ocircumflex.sc" horiz-adv-x="704" 
d="M665 283q0 -133 -91 -216t-223 -83q-131 0 -221.5 83t-90.5 216q0 132 91 214t221 82q132 0 223 -82t91 -214zM490 283q0 58 -37.5 101.5t-101.5 43.5q-63 0 -99 -43.5t-36 -101.5q0 -60 36.5 -103.5t100.5 -43.5q63 0 100 44t37 103zM548 622h-130l-68 81l-68 -81h-128
l124 144h148z" />
    <glyph glyph-name="otilde.sc" horiz-adv-x="704" 
d="M665 283q0 -133 -91 -216t-223 -83q-131 0 -221.5 83t-90.5 216q0 132 91 214t221 82q132 0 223 -82t91 -214zM490 283q0 58 -37.5 101.5t-101.5 43.5q-63 0 -99 -43.5t-36 -101.5q0 -60 36.5 -103.5t100.5 -43.5q63 0 100 44t37 103zM538 758q-7 -58 -34.5 -95
t-78.5 -37q-39 0 -81 21q-42 20 -63 20q-31 0 -42 -40h-72q17 130 113 130q37 0 80 -20t65 -20q32 0 42 41h71z" />
    <glyph glyph-name="odieresis.sc" horiz-adv-x="704" 
d="M665 283q0 -133 -91 -216t-223 -83q-131 0 -221.5 83t-90.5 216q0 132 91 214t221 82q132 0 223 -82t91 -214zM490 283q0 58 -37.5 101.5t-101.5 43.5q-63 0 -99 -43.5t-36 -101.5q0 -60 36.5 -103.5t100.5 -43.5q63 0 100 44t37 103zM544 708q0 -34 -24.5 -58t-58.5 -24
q-35 0 -59 24t-24 58q0 33 24 57t59 24q34 0 58.5 -23.5t24.5 -57.5zM327 708q0 -34 -24.5 -58t-59.5 -24q-34 0 -58.5 24t-24.5 58q0 33 24.5 57t58.5 24q35 0 59.5 -23.5t24.5 -57.5z" />
    <glyph glyph-name="omacron.sc" horiz-adv-x="704" 
d="M665 283q0 -133 -91 -216t-223 -83q-131 0 -221.5 83t-90.5 216q0 132 91 214t221 82q132 0 223 -82t91 -214zM490 283q0 58 -37.5 101.5t-101.5 43.5q-63 0 -99 -43.5t-36 -101.5q0 -60 36.5 -103.5t100.5 -43.5q63 0 100 44t37 103zM520 651h-336v86h336v-86z" />
    <glyph glyph-name="obreve.sc" horiz-adv-x="704" 
d="M665 283q0 -133 -91 -216t-223 -83q-131 0 -221.5 83t-90.5 216q0 132 91 214t221 82q132 0 223 -82t91 -214zM490 283q0 58 -37.5 101.5t-101.5 43.5q-63 0 -99 -43.5t-36 -101.5q0 -60 36.5 -103.5t100.5 -43.5q63 0 100 44t37 103zM526 766q-6 -74 -53 -109t-122 -35
q-74 0 -121 35t-52 109h84q9 -55 90 -55q39 0 61.5 11.5t28.5 43.5h84z" />
    <glyph glyph-name="ohungarumlaut.sc" horiz-adv-x="704" 
d="M665 283q0 -133 -91 -216t-223 -83q-131 0 -221.5 83t-90.5 216q0 132 91 214t221 82q132 0 223 -82t91 -214zM490 283q0 58 -37.5 101.5t-101.5 43.5q-63 0 -99 -43.5t-36 -101.5q0 -60 36.5 -103.5t100.5 -43.5q63 0 100 44t37 103zM675 766l-146 -144h-124l104 144
h166zM455 766l-146 -144h-124l104 144h166z" />
    <glyph glyph-name="oslash.sc" horiz-adv-x="704" 
d="M39 283q0 132 91 214t221 82q104 0 177 -50l69 72l59 -59l-63 -66q72 -74 72 -193q0 -133 -91 -216t-223 -83q-103 0 -177 51l-75 -78l-58 59l69 72q-71 76 -71 195zM213 284q0 -47 13 -73l198 205q-30 19 -71 19q-61 0 -100.5 -42.5t-39.5 -108.5zM493 284q0 40 -13 69
l-197 -205q28 -17 70 -17q61 0 100.5 42t39.5 111z" />
    <glyph glyph-name="oe.sc" horiz-adv-x="852" 
d="M360 0q-139 0 -227.5 76t-88.5 207q0 132 88 206t228 74h426v-127h-236v-90h223v-122h-223v-96h250v-128h-440zM220 283q0 -68 38.5 -104t101.5 -36h27v279h-27q-62 0 -101 -37t-39 -102z" />
    <glyph glyph-name="racute.sc" horiz-adv-x="568" 
d="M70 0v563h235q102 0 163.5 -41.5t61.5 -132.5q0 -57 -27 -98.5t-75 -60.5l137 -230h-184l-108 200h-38v-200h-165zM235 436v-116h55q74 0 74 63q0 53 -73 53h-56zM460 766l-146 -144h-124l104 144h166z" />
    <glyph glyph-name="rcaron.sc" horiz-adv-x="568" 
d="M70 0v563h235q102 0 163.5 -41.5t61.5 -132.5q0 -57 -27 -98.5t-75 -60.5l137 -230h-184l-108 200h-38v-200h-165zM235 436v-116h55q74 0 74 63q0 53 -73 53h-56zM487 766l-123 -144h-147l-124 144h130l68 -81l68 81h128z" />
    <glyph glyph-name="rcommaaccent.sc" horiz-adv-x="568" 
d="M70 0v563h235q102 0 163.5 -41.5t61.5 -132.5q0 -57 -27 -98.5t-75 -60.5l137 -230h-184l-108 200h-38v-200h-165zM235 436v-116h55q74 0 74 63q0 53 -73 53h-56zM372 -45l-86 -195h-126l67 195h145z" />
    <glyph glyph-name="sacute.sc" horiz-adv-x="507" 
d="M473 498l-95 -103q-54 50 -111 50q-26 0 -45 -11.5t-19 -33.5t20 -33t75 -24q168 -39 168 -168q0 -98 -66.5 -144.5t-158.5 -46.5q-66 0 -127.5 22.5t-100.5 64.5l96 108q53 -62 130 -62q25 0 43 11.5t18 36.5q0 24 -23 36.5t-81 27.5q-43 11 -73.5 26t-55 50t-24.5 85
q0 92 66.5 140.5t152.5 48.5q60 0 116.5 -21t94.5 -60zM441 766l-146 -144h-124l104 144h166z" />
    <glyph glyph-name="scircumflex.sc" horiz-adv-x="507" 
d="M473 498l-95 -103q-54 50 -111 50q-26 0 -45 -11.5t-19 -33.5t20 -33t75 -24q168 -39 168 -168q0 -98 -66.5 -144.5t-158.5 -46.5q-66 0 -127.5 22.5t-100.5 64.5l96 108q53 -62 130 -62q25 0 43 11.5t18 36.5q0 24 -23 36.5t-81 27.5q-43 11 -73.5 26t-55 50t-24.5 85
q0 92 66.5 140.5t152.5 48.5q60 0 116.5 -21t94.5 -60zM457 622h-130l-68 81l-68 -81h-128l124 144h148z" />
    <glyph glyph-name="scaron.sc" horiz-adv-x="507" 
d="M473 498l-95 -103q-54 50 -111 50q-26 0 -45 -11.5t-19 -33.5t20 -33t75 -24q168 -39 168 -168q0 -98 -66.5 -144.5t-158.5 -46.5q-66 0 -127.5 22.5t-100.5 64.5l96 108q53 -62 130 -62q25 0 43 11.5t18 36.5q0 24 -23 36.5t-81 27.5q-43 11 -73.5 26t-55 50t-24.5 85
q0 92 66.5 140.5t152.5 48.5q60 0 116.5 -21t94.5 -60zM458 766l-123 -144h-147l-124 144h130l68 -81l68 81h128z" />
    <glyph glyph-name="scedilla.sc" horiz-adv-x="507" 
d="M367 -142q0 -52 -44.5 -75t-102.5 -23q-67 0 -119 25l27 60q40 -19 84 -19q50 0 50 33q0 29 -47 29q-22 0 -40 -6l-31 29l56 75q-120 13 -187 85l96 108q53 -62 130 -62q25 0 43 11.5t18 36.5q0 24 -23 36.5t-81 27.5q-43 11 -73.5 26t-55 50t-24.5 85q0 92 66.5 140.5
t152.5 48.5q60 0 116.5 -21t94.5 -60l-95 -103q-54 50 -111 50q-26 0 -45 -11.5t-19 -33.5t20 -33t75 -24q168 -39 168 -168q0 -86 -52.5 -132.5t-131.5 -55.5l-36 -47q7 1 18 1q103 0 103 -83z" />
    <glyph glyph-name="scommaaccent.sc" horiz-adv-x="507" 
d="M473 498l-95 -103q-54 50 -111 50q-26 0 -45 -11.5t-19 -33.5t20 -33t75 -24q168 -39 168 -168q0 -98 -66.5 -144.5t-158.5 -46.5q-66 0 -127.5 22.5t-100.5 64.5l96 108q53 -62 130 -62q25 0 43 11.5t18 36.5q0 24 -23 36.5t-81 27.5q-43 11 -73.5 26t-55 50t-24.5 85
q0 92 66.5 140.5t152.5 48.5q60 0 116.5 -21t94.5 -60zM337 -45l-86 -195h-126l67 195h145z" />
    <glyph glyph-name="tcaron.sc" horiz-adv-x="483" 
d="M325 425v-425h-167v425h-153v138h473v-138h-153zM439 766l-123 -144h-147l-124 144h130l68 -81l68 81h128z" />
    <glyph glyph-name="tcommaaccent.sc" horiz-adv-x="483" 
d="M325 425v-425h-167v425h-153v138h473v-138h-153zM315 -45l-86 -195h-126l67 195h145z" />
    <glyph glyph-name="tbar.sc" horiz-adv-x="483" 
d="M55 264v86h103v75h-153v138h473v-138h-153v-75h103v-86h-103v-264h-167v264h-103z" />
    <glyph glyph-name="thorn.sc" horiz-adv-x="556" 
d="M70 0v563h167v-72h75q113 0 167.5 -48t54.5 -135q0 -89 -60.5 -138.5t-165.5 -49.5h-71v-120h-167zM237 248h51q78 0 78 59q0 57 -76 57h-53v-116z" />
    <glyph glyph-name="ugrave.sc" horiz-adv-x="646" 
d="M321 -16q-118 0 -186.5 63.5t-68.5 170.5v345h167v-334q0 -46 23.5 -72.5t65.5 -26.5q43 0 67 26.5t24 72.5v334h167v-345q0 -107 -69.5 -170.5t-189.5 -63.5zM398 622h-124l-146 144h166z" />
    <glyph glyph-name="uacute.sc" horiz-adv-x="646" 
d="M321 -16q-118 0 -186.5 63.5t-68.5 170.5v345h167v-334q0 -46 23.5 -72.5t65.5 -26.5q43 0 67 26.5t24 72.5v334h167v-345q0 -107 -69.5 -170.5t-189.5 -63.5zM514 766l-146 -144h-124l104 144h166z" />
    <glyph glyph-name="ucircumflex.sc" horiz-adv-x="646" 
d="M321 -16q-118 0 -186.5 63.5t-68.5 170.5v345h167v-334q0 -46 23.5 -72.5t65.5 -26.5q43 0 67 26.5t24 72.5v334h167v-345q0 -107 -69.5 -170.5t-189.5 -63.5zM520 622h-130l-68 81l-68 -81h-128l124 144h148z" />
    <glyph glyph-name="utilde.sc" horiz-adv-x="646" 
d="M321 -16q-118 0 -186.5 63.5t-68.5 170.5v345h167v-334q0 -46 23.5 -72.5t65.5 -26.5q43 0 67 26.5t24 72.5v334h167v-345q0 -107 -69.5 -170.5t-189.5 -63.5zM509 758q-7 -58 -34.5 -95t-78.5 -37q-39 0 -81 21q-42 20 -63 20q-31 0 -42 -40h-72q17 130 113 130
q37 0 80 -20t65 -20q32 0 42 41h71z" />
    <glyph glyph-name="udieresis.sc" horiz-adv-x="646" 
d="M321 -16q-118 0 -186.5 63.5t-68.5 170.5v345h167v-334q0 -46 23.5 -72.5t65.5 -26.5q43 0 67 26.5t24 72.5v334h167v-345q0 -107 -69.5 -170.5t-189.5 -63.5zM514 708q0 -34 -24.5 -58t-58.5 -24q-35 0 -59 24t-24 58q0 33 24 57t59 24q34 0 58.5 -23.5t24.5 -57.5z
M297 708q0 -34 -24.5 -58t-59.5 -24q-34 0 -58.5 24t-24.5 58q0 33 24.5 57t58.5 24q35 0 59.5 -23.5t24.5 -57.5z" />
    <glyph glyph-name="umacron.sc" horiz-adv-x="646" 
d="M321 -16q-118 0 -186.5 63.5t-68.5 170.5v345h167v-334q0 -46 23.5 -72.5t65.5 -26.5q43 0 67 26.5t24 72.5v334h167v-345q0 -107 -69.5 -170.5t-189.5 -63.5zM491 651h-336v86h336v-86z" />
    <glyph glyph-name="ubreve.sc" horiz-adv-x="646" 
d="M321 -16q-118 0 -186.5 63.5t-68.5 170.5v345h167v-334q0 -46 23.5 -72.5t65.5 -26.5q43 0 67 26.5t24 72.5v334h167v-345q0 -107 -69.5 -170.5t-189.5 -63.5zM496 766q-6 -74 -53 -109t-122 -35q-74 0 -121 35t-52 109h84q9 -55 90 -55q39 0 61.5 11.5t28.5 43.5h84z
" />
    <glyph glyph-name="uring.sc" horiz-adv-x="646" 
d="M321 -16q-118 0 -186.5 63.5t-68.5 170.5v345h167v-334q0 -46 23.5 -72.5t65.5 -26.5q43 0 67 26.5t24 72.5v334h167v-345q0 -107 -69.5 -170.5t-189.5 -63.5zM433 714q0 -46 -31.5 -76.5t-77.5 -30.5q-45 0 -77 30.5t-32 75.5q0 46 31.5 77t77.5 31q45 0 77 -31t32 -76z
M383 714q0 25 -17 41.5t-42 16.5t-42 -17t-17 -42q0 -24 17 -40.5t42 -16.5t42 16.5t17 41.5z" />
    <glyph glyph-name="uhungarumlaut.sc" horiz-adv-x="646" 
d="M321 -16q-118 0 -186.5 63.5t-68.5 170.5v345h167v-334q0 -46 23.5 -72.5t65.5 -26.5q43 0 67 26.5t24 72.5v334h167v-345q0 -107 -69.5 -170.5t-189.5 -63.5zM640 766l-146 -144h-124l104 144h166zM420 766l-146 -144h-124l104 144h166z" />
    <glyph glyph-name="uogonek.sc" horiz-adv-x="646" 
d="M441 -200q-54 -40 -115 -40q-46 0 -79.5 23t-33.5 68q0 65 87 134q-110 6 -172 68.5t-62 164.5v345h167v-334q0 -46 23.5 -72.5t65.5 -26.5q43 0 67 26.5t24 72.5v334h167v-345q0 -86 -46.5 -145.5t-129.5 -78.5q-87 -69 -87 -116q0 -16 10.5 -26t26.5 -10q27 0 55 20z
" />
    <glyph glyph-name="wacute.sc" horiz-adv-x="878" 
d="M874 563l-173 -563h-165l-98 350h-2l-96 -350h-164l-172 563h177l85 -356h3l89 356h166l91 -356h2l87 356h170zM640 766l-146 -144h-124l104 144h166z" />
    <glyph glyph-name="wcircumflex.sc" horiz-adv-x="878" 
d="M874 563l-173 -563h-165l-98 350h-2l-96 -350h-164l-172 563h177l85 -356h3l89 356h166l91 -356h2l87 356h170zM636 622h-130l-68 81l-68 -81h-128l124 144h148z" />
    <glyph glyph-name="wdieresis.sc" horiz-adv-x="878" 
d="M874 563l-173 -563h-165l-98 350h-2l-96 -350h-164l-172 563h177l85 -356h3l89 356h166l91 -356h2l87 356h170zM629 708q0 -34 -24.5 -58t-58.5 -24q-35 0 -59 24t-24 58q0 33 24 57t59 24q34 0 58.5 -23.5t24.5 -57.5zM412 708q0 -34 -24.5 -58t-59.5 -24
q-34 0 -58.5 24t-24.5 58q0 33 24.5 57t58.5 24q35 0 59.5 -23.5t24.5 -57.5z" />
    <glyph glyph-name="wgrave.sc" horiz-adv-x="878" 
d="M874 563l-173 -563h-165l-98 350h-2l-96 -350h-164l-172 563h177l85 -356h3l89 356h166l91 -356h2l87 356h170zM513 622h-124l-146 144h166z" />
    <glyph glyph-name="yacute.sc" horiz-adv-x="566" 
d="M365 222v-222h-167v222l-208 341h196l101 -201l100 201h189zM477 766l-146 -144h-124l104 144h166z" />
    <glyph glyph-name="ycircumflex.sc" horiz-adv-x="566" 
d="M365 222v-222h-167v222l-208 341h196l101 -201l100 201h189zM484 622h-130l-68 81l-68 -81h-128l124 144h148z" />
    <glyph glyph-name="ydieresis.sc" horiz-adv-x="566" 
d="M365 222v-222h-167v222l-208 341h196l101 -201l100 201h189zM478 708q0 -34 -24.5 -58t-58.5 -24q-35 0 -59 24t-24 58q0 33 24 57t59 24q34 0 58.5 -23.5t24.5 -57.5zM261 708q0 -34 -24.5 -58t-59.5 -24q-34 0 -58.5 24t-24.5 58q0 33 24.5 57t58.5 24q35 0 59.5 -23.5
t24.5 -57.5z" />
    <glyph glyph-name="ygrave.sc" horiz-adv-x="566" 
d="M365 222v-222h-167v222l-208 341h196l101 -201l100 201h189zM362 622h-124l-146 144h166z" />
    <glyph glyph-name="zacute.sc" horiz-adv-x="569" 
d="M53 0v126l245 301h-239v136h451v-122l-247 -302h253v-139h-463zM463 766l-146 -144h-124l104 144h166z" />
    <glyph glyph-name="zcaron.sc" horiz-adv-x="569" 
d="M53 0v126l245 301h-239v136h451v-122l-247 -302h253v-139h-463zM483 766l-123 -144h-147l-124 144h130l68 -81l68 81h128z" />
    <glyph glyph-name="zdotaccent.sc" horiz-adv-x="569" 
d="M53 0v126l245 301h-239v136h451v-122l-247 -302h253v-139h-463zM376 707q0 -36 -26 -60.5t-64 -24.5q-37 0 -63 25t-26 60t26 60.5t63 25.5q38 0 64 -25t26 -61z" />
    <glyph glyph-name="ij.sc" horiz-adv-x="787" 
d="M70 0v563h167v-563h-167zM545 -16q-77 0 -131 42t-70 110l149 49q8 -55 49 -55q44 0 44 58v375h167v-369q0 -91 -48 -150.5t-160 -59.5z" />
    <glyph glyph-name="germandbls.sc" horiz-adv-x="1013" 
d="M473 498l-95 -103q-54 50 -111 50q-26 0 -45 -11.5t-19 -33.5t20 -33t75 -24q168 -39 168 -168q0 -98 -66.5 -144.5t-158.5 -46.5q-66 0 -127.5 22.5t-100.5 64.5l96 108q53 -62 130 -62q25 0 43 11.5t18 36.5q0 24 -23 36.5t-81 27.5q-43 11 -73.5 26t-55 50t-24.5 85
q0 92 66.5 140.5t152.5 48.5q60 0 116.5 -21t94.5 -60zM979 498l-95 -103q-54 50 -111 50q-26 0 -45 -11.5t-19 -33.5t20 -33t75 -24q168 -39 168 -168q0 -98 -66.5 -144.5t-158.5 -46.5q-66 0 -127.5 22.5t-100.5 64.5l96 108q53 -62 130 -62q25 0 43 11.5t18 36.5
q0 24 -23 36.5t-81 27.5q-43 11 -73.5 26t-55 50t-24.5 85q0 92 66.5 140.5t152.5 48.5q60 0 116.5 -21t94.5 -60z" />
    <glyph glyph-name="eng.sc" horiz-adv-x="672" 
d="M602 -13q0 -50 -9 -88t-30 -71t-61.5 -50.5t-98.5 -17.5q-42 0 -71 8l11 137q15 -5 35 -5q34 0 47 22.5t13 64.5v5l-209 327h-3l4 -319h-160v563h184l190 -308h2l-5 308h161v-576z" />
    <glyph glyph-name="grave.sc" 
d="M231 622h-124l-146 144h166z" />
    <glyph glyph-name="acute.sc" 
d="M339 766l-146 -144h-124l104 144h166z" />
    <glyph glyph-name="circumflex.sc" 
d="M347 622h-130l-68 81l-68 -81h-128l124 144h148z" />
    <glyph glyph-name="caron.sc" 
d="M347 766l-123 -144h-147l-124 144h130l68 -81l68 81h128z" />
    <glyph glyph-name="tilde.sc" 
d="M335 758q-7 -58 -34.5 -95t-78.5 -37q-39 0 -81 21q-42 20 -63 20q-31 0 -42 -40h-72q17 130 113 130q37 0 80 -20t65 -20q32 0 42 41h71z" />
    <glyph glyph-name="dieresis.sc" 
d="M342 708q0 -34 -24.5 -58t-58.5 -24q-35 0 -59 24t-24 58q0 33 24 57t59 24q34 0 58.5 -23.5t24.5 -57.5zM125 708q0 -34 -24.5 -58t-59.5 -24q-34 0 -58.5 24t-24.5 58q0 33 24.5 57t58.5 24q35 0 59.5 -23.5t24.5 -57.5z" />
    <glyph glyph-name="macron.sc" 
d="M318 651h-336v86h336v-86z" />
    <glyph glyph-name="breve.sc" 
d="M324 766q-6 -74 -53 -109t-122 -35q-74 0 -121 35t-52 109h84q9 -55 90 -55q39 0 61.5 11.5t28.5 43.5h84z" />
    <glyph glyph-name="ring.sc" 
d="M259 714q0 -46 -31.5 -76.5t-77.5 -30.5q-45 0 -77 30.5t-32 75.5q0 46 31.5 77t77.5 31q45 0 77 -31t32 -76zM209 714q0 25 -17 41.5t-42 16.5t-42 -17t-17 -42q0 -24 17 -40.5t42 -16.5t42 16.5t17 41.5z" />
    <glyph glyph-name="hungarumlaut.sc" 
d="M456 766l-146 -144h-124l104 144h166zM236 766l-146 -144h-124l104 144h166z" />
    <glyph glyph-name="dotaccent.sc" 
d="M240 707q0 -36 -26 -60.5t-64 -24.5q-37 0 -63 25t-26 60t26 60.5t63 25.5q38 0 64 -25t26 -61z" />
    <glyph glyph-name="exclamdown.sc" horiz-adv-x="339" 
d="M252 0h-166v343h166v-343zM266 480q0 -39 -28 -66t-69 -27q-40 0 -68 27.5t-28 66.5t28 65.5t68 26.5q41 0 69 -26.5t28 -66.5z" />
    <glyph glyph-name="questiondown.sc" horiz-adv-x="500" 
d="M170 343h163v-19q0 -61 -57 -102l-23 -17q-32 -23 -32 -49q0 -13 9.5 -23.5t26.5 -10.5q34 0 40 43l156 -18q-6 -64 -59.5 -113.5t-143.5 -49.5q-92 0 -142.5 46.5t-50.5 116.5q0 43 17 74.5t58 61.5q38 27 38 51v9zM154 479q0 40 27.5 67t68.5 27q40 0 68.5 -27
t28.5 -66t-28.5 -66.5t-68.5 -27.5t-68 27t-28 66z" />
    <glyph glyph-name="Euro.sc" horiz-adv-x="576" 
d="M487 139l38 -124q-65 -31 -150 -31q-100 0 -166 47t-87 138h-80l29 90h40v23q0 4 0.5 10.5t0.5 8.5h-70l32 90h50q27 91 100 139.5t177 48.5q78 0 136 -23l-50 -127q-42 20 -96 20q-77 0 -106 -58h189l-29 -90h-180q-2 -10 -2 -20q0 -11 1 -22h170l-30 -90h-122
q11 -27 40 -40.5t62 -13.5q52 0 103 24z" />
    <glyph glyph-name="cent.sc" horiz-adv-x="576" 
d="M556 51q-56 -56 -160 -65v-65h-76v65q-105 12 -169 84.5t-64 179.5q0 106 63.5 176.5t169.5 85.5v64h76v-64q106 -7 159 -63l-83 -104q-31 33 -76 39v-270q46 4 79 39zM320 116v266q-44 -10 -68 -46.5t-24 -86.5q0 -48 24.5 -84.5t67.5 -48.5z" />
    <glyph glyph-name="sterling.sc" horiz-adv-x="576" 
d="M71 0v128h69v106h-69v113h69v38q0 82 53.5 138t148.5 56q107 0 164 -62l-95 -109q-20 30 -60 30q-23 0 -37.5 -15.5t-14.5 -37.5v-38h120v-113h-120v-106h203v-128h-431z" />
    <glyph glyph-name="florin.sc" horiz-adv-x="576" 
d="M477 349v-111h-111l-29 -141q-19 -91 -65.5 -137t-131.5 -46q-65 0 -117 29l48 120q29 -19 57 -19q46 0 61 76l23 118h-72v111h92l16 78q15 75 62.5 113.5t119.5 38.5t124 -32l-59 -120q-25 18 -54 18q-37 0 -45 -43l-11 -53h92z" />
    <glyph glyph-name="yen.sc" horiz-adv-x="576" 
d="M203 0v86h-137v100h137v44h-137v100h96l-146 233h182l93 -184l91 184h178l-143 -233h80v-100h-139v-44h139v-100h-139v-86h-155z" />
    <glyph glyph-name="perthousand.sc" horiz-adv-x="1156" 
d="M338 424q0 -63 -47 -108t-110 -45q-64 0 -110.5 45t-46.5 108t46.5 107.5t110.5 44.5t110.5 -44.5t46.5 -107.5zM228 424q0 20 -13.5 32.5t-33.5 12.5t-33.5 -12.5t-13.5 -32.5t13.5 -32.5t33.5 -12.5t33.5 12.5t13.5 32.5zM772 138q0 -63 -47 -108t-110 -45
q-64 0 -110.5 45t-46.5 108t46.5 107.5t110.5 44.5t110.5 -44.5t46.5 -107.5zM662 138q0 20 -13.5 32.5t-33.5 12.5t-33.5 -12.5t-13.5 -32.5t13.5 -32.5t33.5 -12.5t33.5 12.5t13.5 32.5zM1136 138q0 -63 -47 -108t-110 -45q-64 0 -110.5 45t-46.5 108t46.5 107.5
t110.5 44.5t110.5 -44.5t46.5 -107.5zM1026 138q0 20 -13.5 32.5t-33.5 12.5t-33.5 -12.5t-13.5 -32.5t13.5 -32.5t33.5 -12.5t33.5 12.5t13.5 32.5zM608 551l-335 -584l-88 42l332 587z" />
    <glyph glyph-name="zero.onum" horiz-adv-x="722" 
d="M673 285q0 -136 -90 -219t-223 -83q-131 0 -220.5 83.5t-89.5 218.5t89 216.5t221 81.5q134 0 223.5 -81.5t89.5 -216.5zM506 285q0 65 -40.5 109t-105.5 44q-64 0 -104 -44t-40 -109q0 -66 40 -110.5t104 -44.5q66 0 106 44t40 111z" />
    <glyph glyph-name="one.onum" horiz-adv-x="477" 
d="M368 0h-169v391l-98 -72l-81 114l188 133h160v-566z" />
    <glyph glyph-name="two.onum" horiz-adv-x="602" 
d="M548 0h-488v128l53 31q148 84 201 125.5t53 89.5q0 33 -22 52.5t-61 19.5q-70 0 -104 -71l-135 54q32 71 96 112.5t153 41.5q66 0 119 -18t89.5 -63t36.5 -112q0 -34 -12.5 -65t-29.5 -53t-47 -46t-51.5 -38t-57.5 -35l-29 -18v-2h236v-133z" />
    <glyph glyph-name="three.onum" horiz-adv-x="576" 
d="M526 83q0 -66 -27 -116t-73 -79t-101.5 -43.5t-118.5 -14.5q-74 0 -138 13l24 143q52 -11 102 -11q72 0 116.5 27t44.5 81q0 43 -39.5 67.5t-103.5 24.5q-49 0 -110 -14l-29 116q120 73 231 149v4h-240v136h433v-142q-109 -82 -205 -140v-3q16 2 27 2q88 0 147.5 -55
t59.5 -145z" />
    <glyph glyph-name="four.onum" horiz-adv-x="645" 
d="M621 3h-99v-173h-159v173h-328v142l251 438h173l-262 -444h167v207h158v-207h99v-136z" />
    <glyph glyph-name="five.onum" horiz-adv-x="573" 
d="M506 566v-144h-256l-16 -118q20 4 46 4q103 0 167 -57t64 -162q0 -69 -26.5 -121t-72 -81t-99 -43t-114.5 -14q-71 0 -139 12l23 143q53 -10 98 -10q159 0 159 113q0 51 -39 75.5t-98 24.5q-56 0 -133 -17l35 395h401z" />
    <glyph glyph-name="six.onum" horiz-adv-x="656" 
d="M606 234q0 -117 -79.5 -185.5t-198.5 -68.5q-121 0 -199.5 67t-78.5 196q0 66 29 137.5t77.5 136t100.5 118t110 101.5l154 -70q-65 -49 -126 -109t-94 -109l2 -2q25 17 72 17q96 0 163.5 -63.5t67.5 -165.5zM438 232q0 47 -30 77.5t-79 30.5t-79.5 -30.5t-30.5 -77.5
t30.5 -79t78.5 -32q49 0 79.5 31.5t30.5 79.5z" />
    <glyph glyph-name="seven.onum" horiz-adv-x="576" 
d="M535 436q-173 -349 -281 -616l-173 37q133 295 273 565h-312v144h493v-130z" />
    <glyph glyph-name="eight.onum" horiz-adv-x="649" 
d="M591 199q0 -105 -77.5 -161.5t-188.5 -56.5q-112 0 -189.5 56.5t-77.5 160.5q0 62 35 107.5t91 64.5v2q-48 17 -78 58t-30 96q0 95 72.5 148t176.5 53q103 0 175.5 -52.5t72.5 -147.5q0 -55 -29.5 -96.5t-78.5 -57.5v-3q55 -17 90.5 -63t35.5 -108zM325 597
q-38 0 -62 -24t-24 -59t24.5 -59.5t61.5 -24.5q36 0 61 25t25 59q0 35 -24.5 59t-61.5 24zM424 208q0 41 -27.5 68.5t-71.5 27.5q-45 0 -72.5 -27.5t-27.5 -68.5t27.5 -68t72.5 -27q44 0 71.5 27t27.5 68z" />
    <glyph glyph-name="nine.onum" horiz-adv-x="656" 
d="M606 318q0 -64 -29 -136t-77.5 -138.5t-102.5 -123t-112 -104.5l-153 71q154 123 223 228l-2 2q-25 -17 -72 -17q-96 0 -163.5 63.5t-67.5 165.5q0 117 79.5 185.5t198.5 68.5q121 0 199.5 -68.5t78.5 -196.5zM437 332q0 47 -30.5 78.5t-78.5 31.5q-49 0 -79.5 -31.5
t-30.5 -79.5q0 -47 30 -77.5t79 -30.5t79.5 30.5t30.5 78.5z" />
    <glyph glyph-name="napostrophe.sc" horiz-adv-x="813" 
d="M211 0v563h184l190 -323h2l-5 323h161v-563h-182l-191 319h-3l4 -319h-160zM190 563l-86 -195h-126l67 195h145z" />
    <glyph glyph-name="ordfeminine.sc" horiz-adv-x="384" 
d="M16 431l130 293h94l127 -293h-104l-19 51h-104l-20 -51h-104zM222 542l-31 86l-32 -86h63z" />
    <glyph glyph-name="fi.sc" horiz-adv-x="810" 
d="M236 436v-104h207v-122h-206v-210h-167v563h392v-127h-226zM573 0v563h167v-563h-167z" />
    <glyph glyph-name="fl.sc" horiz-adv-x="974" 
d="M236 436v-104h207v-122h-206v-210h-167v563h392v-127h-226zM573 0v563h167v-423h208v-140h-375z" />
    </font>
</defs>
</svg>
